<?xml version="1.0" encoding="UTF-8" standalone="no"?>
<svg xmlns="http://www.w3.org/2000/svg"
     xmlns:svg="http://www.w3.org/2000/svg"
     version="1.1"
     width="162.899mm" height="41.1481mm"
     viewBox="0 0 1924 486">
  <defs>
  </defs>
  <path id="vector0"
        fill="#FF5700"
        stroke="none"
        opacity="1.000000"
        stroke-width="6.000000"
        stroke-linecap="butt"
        stroke-linejoin="miter"
        stroke-miterlimit="10.000000"
        d="M 337.00,143.00
           C 346.39,137.25 349.91,134.56 361.00,131.90
             365.17,130.90 374.70,129.86 379.00,130.04
             424.58,131.95 449.66,178.83 464.99,216.00
             464.99,216.00 473.67,239.00 473.67,239.00
             473.67,239.00 486.58,281.00 486.58,281.00
             487.76,285.26 490.78,294.00 488.98,298.00
             487.66,300.91 476.97,312.70 474.13,316.00
             474.13,316.00 445.80,350.00 445.80,350.00
             445.80,350.00 402.87,406.00 402.87,406.00
             402.87,406.00 368.16,450.00 368.16,450.00
             350.59,469.68 330.63,485.68 303.00,486.00
             294.80,486.09 282.62,484.52 275.00,481.54
             251.19,472.23 223.17,441.18 206.28,422.00
             206.28,422.00 185.93,399.00 185.93,399.00
             184.13,397.02 179.04,390.86 176.96,390.01
             173.49,388.60 165.49,394.54 162.00,396.22
             151.09,401.46 139.15,404.98 127.00,405.00
             115.85,405.02 110.04,405.70 99.00,402.57
             59.63,391.42 33.42,354.05 16.75,319.00
             12.34,309.74 6.70,294.87 3.86,285.00
             3.01,282.07 0.42,274.59 0.44,272.00
             0.49,267.52 4.86,264.92 8.00,262.40
             13.77,257.77 21.93,251.19 26.96,246.00
             44.76,227.61 63.35,195.82 75.69,173.00
             75.69,173.00 111.75,102.00 111.75,102.00
             124.62,76.26 140.81,46.61 161.01,26.00
             167.90,18.98 178.15,10.73 187.00,6.37
             204.95,-2.47 228.42,-2.28 246.00,7.31
             255.98,12.76 262.45,19.72 269.93,28.00
             281.11,40.39 292.57,59.50 301.20,74.00
             309.85,88.53 330.46,127.81 337.00,143.00 Z
           M 237.00,281.00
           C 245.03,266.64 282.61,209.32 292.86,195.00
             292.86,195.00 310.08,172.00 310.08,172.00
             312.22,169.41 318.41,162.84 319.05,160.00
             319.79,156.77 316.24,150.97 314.75,148.00
             314.75,148.00 300.86,121.00 300.86,121.00
             286.69,95.44 274.36,69.02 256.00,46.00
             245.84,33.27 234.22,22.20 217.00,22.00
             187.56,21.67 167.81,50.45 153.81,73.00
             125.99,117.81 105.67,166.80 78.55,212.00
             73.40,220.59 67.87,229.06 61.77,237.00
             61.77,237.00 51.00,250.00 51.00,250.00
             51.00,250.00 80.00,243.08 80.00,243.08
             107.04,238.34 132.52,238.68 159.00,246.42
             178.74,252.19 191.91,259.14 210.00,268.25
             217.83,272.19 228.68,279.44 237.00,281.00 Z
           M 1676.00,128.00
           C 1676.00,128.00 1721.00,128.00 1721.00,128.00
             1721.00,128.00 1721.00,385.00 1721.00,385.00
             1721.00,385.00 1688.00,391.73 1688.00,391.73
             1650.05,397.58 1601.48,397.59 1572.04,368.91
             1558.14,355.38 1550.62,334.95 1548.06,316.00
             1548.06,316.00 1548.06,308.00 1548.06,308.00
             1548.06,308.00 1547.00,296.00 1547.00,296.00
             1547.00,296.00 1547.83,287.00 1547.83,287.00
             1550.72,257.17 1559.02,235.12 1583.00,215.46
             1603.79,198.42 1627.22,195.70 1653.00,196.00
             1659.57,196.08 1669.98,197.48 1676.00,200.00
             1676.00,200.00 1676.00,128.00 1676.00,128.00 Z
           M 465.00,282.00
           C 465.00,282.00 455.69,253.00 455.69,253.00
             446.38,226.91 434.31,196.72 417.00,175.00
             407.75,163.40 394.51,152.67 379.00,152.04
             366.07,151.52 358.39,156.50 348.00,163.00
             349.62,171.61 360.05,188.78 364.72,197.00
             378.95,222.02 395.94,244.92 420.00,261.25
             432.53,269.77 450.57,277.18 465.00,282.00 Z
           M 332.00,182.00
           C 324.42,185.66 313.16,203.51 307.98,211.00
             307.98,211.00 275.66,260.00 275.66,260.00
             271.17,266.91 259.47,284.31 257.00,291.00
             271.56,296.05 285.87,301.59 301.00,304.79
             331.95,311.34 374.61,311.37 406.00,307.28
             406.00,307.28 438.00,302.00 438.00,302.00
             442.91,300.98 450.82,299.48 455.00,297.00
             435.88,291.46 426.67,289.81 409.00,278.56
             374.78,256.79 350.59,217.19 332.00,182.00 Z
           M 609.00,207.00
           C 632.63,196.98 650.74,195.71 676.00,196.00
             700.63,196.29 728.94,206.40 740.11,230.00
             749.03,248.86 748.00,271.58 748.00,292.00
             748.00,292.00 748.00,385.00 748.00,385.00
             748.00,385.00 723.00,390.39 723.00,390.39
             708.94,393.03 690.26,395.02 676.00,395.00
             676.00,395.00 664.00,394.09 664.00,394.09
             646.65,392.90 626.93,390.17 613.00,378.67
             608.00,374.55 602.95,368.78 599.98,363.00
             591.81,347.11 591.81,320.89 599.98,305.00
             603.84,297.49 609.30,291.32 616.00,286.24
             636.54,270.67 660.47,269.96 685.00,270.00
             690.08,270.01 699.14,270.82 704.00,272.00
             703.96,267.30 703.10,258.35 701.64,254.00
             692.55,226.99 650.76,231.58 629.00,236.21
             629.00,236.21 613.00,240.00 613.00,240.00
             613.00,240.00 609.00,207.00 609.00,207.00 Z
           M 982.00,240.00
           C 982.00,240.00 979.80,218.00 979.80,218.00
             979.18,215.06 978.34,210.01 979.80,207.39
             981.55,205.02 985.44,203.87 988.00,203.00
             995.17,200.57 1002.51,198.91 1010.00,197.87
             1038.75,193.87 1079.44,193.76 1100.56,217.09
             1112.37,230.12 1116.92,248.75 1117.00,266.00
             1117.00,266.00 1117.00,385.00 1117.00,385.00
             1117.00,385.00 1095.00,389.80 1095.00,389.80
             1079.18,392.95 1061.11,395.03 1045.00,395.00
             1045.00,395.00 1033.00,394.09 1033.00,394.09
             1014.52,392.82 994.42,389.64 980.00,376.82
             960.18,359.19 957.83,322.98 971.47,301.00
             974.54,296.04 981.31,289.25 986.00,285.76
             1000.18,275.22 1021.49,270.03 1039.00,270.00
             1050.12,269.98 1062.17,269.36 1073.00,272.00
             1073.00,266.30 1072.87,260.52 1071.22,255.00
             1062.95,227.36 1020.85,231.16 999.00,236.12
             999.00,236.12 982.00,240.00 982.00,240.00 Z
           M 1164.00,390.00
           C 1164.00,390.00 1164.00,218.00 1164.00,218.00
             1164.00,215.86 1163.77,212.29 1165.02,210.51
             1166.48,208.43 1171.57,207.14 1174.00,206.33
             1183.12,203.30 1189.70,202.05 1199.00,200.20
             1231.56,193.73 1281.94,191.01 1307.91,215.29
             1320.50,227.06 1326.80,247.06 1327.00,264.00
             1327.00,264.00 1327.00,390.00 1327.00,390.00
             1327.00,390.00 1282.00,390.00 1282.00,390.00
             1282.00,390.00 1282.00,272.00 1282.00,272.00
             1281.86,260.25 1278.01,247.65 1268.00,240.65
             1264.75,238.37 1259.86,236.84 1256.00,235.90
             1234.98,230.76 1227.41,236.50 1209.00,238.00
             1209.00,238.00 1209.00,390.00 1209.00,390.00
             1209.00,390.00 1164.00,390.00 1164.00,390.00 Z
           M 1379.00,240.00
           C 1379.00,240.00 1376.17,213.00 1376.17,213.00
             1376.03,211.17 1375.96,209.02 1377.02,207.41
             1378.42,205.29 1382.65,203.91 1385.00,203.05
             1392.58,200.29 1399.13,199.21 1407.00,197.92
             1435.09,193.31 1478.84,194.48 1498.68,218.00
             1515.02,237.38 1514.00,259.42 1514.00,283.00
             1514.00,283.00 1514.00,385.00 1514.00,385.00
             1514.00,385.00 1494.00,389.55 1494.00,389.55
             1469.56,394.44 1443.73,396.56 1419.00,393.13
             1403.37,390.96 1386.60,386.42 1375.09,374.91
             1358.28,358.10 1356.00,325.74 1366.37,305.00
             1370.08,297.58 1376.43,290.87 1383.00,285.90
             1403.30,270.53 1427.80,269.96 1452.00,270.00
             1456.90,270.01 1465.39,270.69 1470.00,272.00
             1470.00,272.00 1470.00,266.00 1470.00,266.00
             1469.95,262.13 1469.58,258.72 1468.43,255.00
             1461.66,233.07 1438.58,232.97 1420.00,233.00
             1412.96,233.01 1404.91,234.19 1398.00,235.66
             1398.00,235.66 1379.00,240.00 1379.00,240.00 Z
           M 1908.00,350.00
           C 1908.00,350.00 1910.99,374.00 1910.99,374.00
             1911.36,376.61 1912.52,381.24 1910.99,383.49
             1909.25,386.01 1899.20,388.55 1896.00,389.37
             1882.26,392.89 1865.16,395.16 1851.00,395.00
             1851.00,395.00 1842.00,393.94 1842.00,393.94
             1842.00,393.94 1834.00,393.94 1834.00,393.94
             1820.60,392.07 1805.55,387.57 1794.00,380.54
             1770.20,366.04 1755.33,336.63 1755.00,309.00
             1755.00,309.00 1755.00,289.00 1755.00,289.00
             1755.25,266.91 1761.22,243.38 1775.46,226.00
             1782.75,217.10 1791.69,209.52 1802.00,204.37
             1817.19,196.77 1832.41,195.81 1849.00,196.00
             1872.73,196.28 1894.42,207.66 1908.09,227.00
             1925.11,251.10 1924.00,280.96 1924.00,309.00
             1924.00,309.00 1801.00,309.00 1801.00,309.00
             1801.01,316.29 1801.59,321.04 1804.09,328.00
             1816.07,361.38 1857.18,360.85 1886.00,355.20
             1886.00,355.20 1908.00,350.00 1908.00,350.00 Z
           M 766.00,201.00
           C 766.00,201.00 807.00,201.00 807.00,201.00
             807.00,201.00 814.30,201.99 814.30,201.99
             814.30,201.99 818.33,211.00 818.33,211.00
             818.33,211.00 825.67,234.00 825.67,234.00
             825.67,234.00 850.66,312.00 850.66,312.00
             850.66,312.00 861.00,344.00 861.00,344.00
             861.00,344.00 876.00,297.00 876.00,297.00
             876.00,297.00 896.33,234.00 896.33,234.00
             896.33,234.00 903.72,211.00 903.72,211.00
             903.72,211.00 907.70,201.99 907.70,201.99
             907.70,201.99 915.00,201.00 915.00,201.00
             915.00,201.00 954.00,201.00 954.00,201.00
             954.00,201.00 937.05,247.00 937.05,247.00
             937.05,247.00 899.19,347.00 899.19,347.00
             899.19,347.00 887.05,379.00 887.05,379.00
             883.25,389.16 883.61,389.88 877.00,390.00
             877.00,390.00 845.00,390.00 845.00,390.00
             842.96,390.00 839.37,390.26 837.70,389.01
             835.80,387.59 833.26,379.55 832.32,377.00
             832.32,377.00 820.58,346.00 820.58,346.00
             820.58,346.00 784.58,251.00 784.58,251.00
             784.58,251.00 766.00,201.00 766.00,201.00 Z
           M 1880.00,275.00
           C 1880.00,265.63 1879.22,258.46 1874.68,250.00
             1866.61,234.97 1855.00,230.82 1839.00,231.00
             1831.63,231.09 1824.98,233.21 1819.00,237.61
             1807.89,245.79 1801.30,261.42 1801.00,275.00
             1801.00,275.00 1880.00,275.00 1880.00,275.00 Z
           M 1676.00,355.00
           C 1676.00,355.00 1676.00,296.00 1676.00,296.00
             1676.00,296.00 1676.00,245.00 1676.00,245.00
             1676.00,242.97 1676.26,239.36 1675.01,237.70
             1672.26,234.06 1658.49,233.01 1654.00,233.00
             1637.39,232.97 1625.25,233.46 1612.04,245.30
             1593.58,261.84 1591.36,295.19 1596.21,318.00
             1598.23,327.51 1602.34,336.76 1609.29,343.71
             1625.48,359.91 1655.08,358.81 1676.00,355.00 Z
           M 51.00,250.00
           C 51.00,250.00 50.00,250.00 50.00,250.00
             50.00,250.00 51.00,251.00 51.00,251.00
             51.00,251.00 51.00,250.00 51.00,250.00 Z
           M 224.00,300.00
           C 198.74,285.62 163.71,268.05 135.00,263.65
             118.76,260.82 95.35,261.60 79.00,263.65
             70.28,265.08 45.74,269.00 39.00,273.00
             79.94,278.41 103.79,287.03 136.00,313.92
             136.00,313.92 155.91,332.09 155.91,332.09
             155.91,332.09 167.00,344.00 167.00,344.00
             169.31,346.32 176.12,354.80 179.01,354.80
             182.79,354.80 189.64,345.85 192.15,343.00
             200.39,333.65 218.82,310.61 224.00,300.00 Z
           M 161.00,371.00
           C 155.64,362.56 145.29,353.29 138.00,346.00
             138.00,346.00 124.00,332.29 124.00,332.29
             95.62,307.40 64.25,293.94 27.00,289.00
             38.09,316.73 56.68,350.90 81.00,368.84
             92.41,377.27 108.46,384.73 123.00,383.91
             138.99,383.00 147.41,378.27 161.00,371.00 Z
           M 670.00,304.29
           C 662.75,305.39 657.60,306.18 651.00,309.80
             636.70,317.64 632.87,340.29 645.10,351.79
             653.25,359.45 671.19,361.86 682.00,360.83
             686.03,360.45 700.84,359.33 702.98,356.44
             704.15,354.86 703.99,351.90 704.00,350.00
             704.00,350.00 704.00,313.00 704.00,313.00
             703.99,311.21 704.17,308.19 703.01,306.74
             701.64,305.03 697.12,304.55 695.00,304.29
             695.00,304.29 670.00,304.29 670.00,304.29 Z
           M 1040.00,304.28
           C 1032.18,305.43 1027.13,305.77 1020.00,309.88
             1004.63,318.73 1002.80,341.78 1015.17,352.47
             1022.45,358.77 1035.60,360.77 1045.00,360.99
             1048.96,361.08 1061.11,359.95 1065.00,359.20
             1067.13,358.78 1070.62,358.28 1071.98,356.44
             1073.23,354.74 1073.00,351.08 1073.00,349.00
             1073.00,349.00 1073.00,313.00 1073.00,313.00
             1072.99,311.21 1073.17,308.19 1072.01,306.74
             1070.64,305.03 1066.12,304.55 1064.00,304.28
             1064.00,304.28 1040.00,304.28 1040.00,304.28 Z
           M 1437.00,304.23
           C 1430.44,305.29 1422.80,306.59 1417.00,309.95
             1401.94,318.69 1399.99,341.42 1413.02,352.79
             1419.89,358.79 1433.05,360.78 1442.00,360.99
             1445.96,361.08 1458.11,359.95 1462.00,359.20
             1464.13,358.78 1467.62,358.28 1468.98,356.44
             1470.23,354.74 1470.00,351.08 1470.00,349.00
             1470.00,349.00 1470.00,313.00 1470.00,313.00
             1469.98,310.84 1470.26,307.52 1468.40,306.02
             1467.09,304.96 1461.82,304.34 1460.00,304.23
             1460.00,304.23 1437.00,304.23 1437.00,304.23 Z
           M 445.00,319.00
           C 424.47,325.84 409.49,328.78 388.00,330.96
             388.00,330.96 379.00,330.96 379.00,330.96
             379.00,330.96 367.00,332.00 367.00,332.00
             367.00,332.00 353.00,332.00 353.00,332.00
             353.00,332.00 335.00,331.00 335.00,331.00
             325.89,330.89 304.24,327.75 295.00,325.79
             283.13,323.28 271.45,319.63 260.00,315.66
             260.00,315.66 244.00,310.00 244.00,310.00
             233.37,325.94 222.04,341.44 209.57,356.00
             206.71,359.34 195.34,369.55 195.11,373.00
             194.90,376.03 198.96,379.85 200.85,382.00
             200.85,382.00 218.72,402.00 218.72,402.00
             218.72,402.00 249.00,434.00 249.00,434.00
             266.67,451.67 284.79,469.36 312.00,462.76
             328.91,458.66 342.05,445.61 353.15,433.00
             353.15,433.00 411.80,358.00 411.80,358.00
             411.80,358.00 432.09,334.00 432.09,334.00
             436.58,329.18 442.15,325.03 445.00,319.00 Z" />
</svg>
