<?xml version="1.0" encoding="UTF-8" standalone="no"?>
<svg xmlns="http://www.w3.org/2000/svg"
     xmlns:svg="http://www.w3.org/2000/svg"
     version="1.1"
     width="22.5833in" height="7.69444in"
     viewBox="0 0 1626 554"
     preserveAspectRatio="none">
  <defs>
  </defs>
  <path id="vector0"
        fill="#10C6F9"
        stroke="none"
        opacity="1.000000"
        stroke-width="6.000000"
        stroke-linecap="butt"
        stroke-linejoin="miter"
        stroke-miterlimit="10.000000"
        d="M 1177.00,341.00
           C 1177.00,341.00 1177.00,204.00 1177.00,204.00
             1177.00,204.00 1178.00,189.00 1178.00,189.00
             1178.00,189.00 1178.00,79.00 1178.00,79.00
             1178.00,79.00 1178.00,20.00 1178.00,20.00
             1178.00,15.73 1176.81,3.51 1180.43,1.02
             1182.24,-0.22 1185.84,0.00 1188.00,0.00
             1188.00,0.00 1255.00,0.00 1255.00,0.00
             1259.72,0.00 1272.12,-1.26 1275.15,2.43
             1277.06,4.76 1277.07,9.11 1276.96,12.00
             1276.96,12.00 1276.00,25.00 1276.00,25.00
             1276.00,25.00 1276.00,418.00 1276.00,418.00
             1276.00,418.00 1294.04,418.00 1294.04,418.00
             1294.04,418.00 1294.04,406.00 1294.04,406.00
             1294.04,406.00 1295.00,394.00 1295.00,394.00
             1295.00,394.00 1295.00,340.00 1295.00,340.00
             1295.00,334.89 1293.65,319.95 1297.43,316.74
             1299.84,314.69 1304.01,315.00 1307.00,315.00
             1307.00,315.00 1382.00,315.00 1382.00,315.00
             1393.21,315.02 1391.88,317.84 1392.00,328.00
             1392.00,328.00 1392.96,338.00 1392.96,338.00
             1392.96,338.00 1392.96,348.00 1392.96,348.00
             1392.96,348.00 1394.00,364.14 1394.00,364.14
             1394.00,364.14 1406.00,364.14 1406.00,364.14
             1406.00,364.14 1425.00,364.14 1425.00,364.14
             1425.00,364.14 1425.00,306.00 1425.00,306.00
             1425.00,306.00 1424.00,289.00 1424.00,289.00
             1424.00,289.00 1424.00,218.00 1424.00,218.00
             1423.93,211.97 1420.92,196.86 1427.15,193.17
             1429.48,191.79 1433.33,192.00 1436.00,192.00
             1436.00,192.00 1450.00,192.00 1450.00,192.00
             1450.00,192.00 1466.00,191.01 1466.00,191.01
             1466.00,191.01 1500.00,191.01 1500.00,191.01
             1500.00,191.01 1512.00,191.01 1512.00,191.01
             1513.91,190.79 1516.89,190.11 1518.57,191.01
             1521.44,192.81 1521.00,198.11 1521.00,201.00
             1521.00,201.00 1521.00,347.00 1521.00,347.00
             1521.00,347.00 1521.00,428.00 1521.00,428.00
             1521.00,428.00 1520.00,443.00 1520.00,443.00
             1520.00,443.00 1520.00,554.00 1520.00,554.00
             1520.00,554.00 1151.00,554.00 1151.00,554.00
             1151.00,554.00 1151.00,447.00 1151.00,447.00
             1151.00,447.00 1150.00,432.00 1150.00,432.00
             1150.00,432.00 1150.00,391.00 1150.00,391.00
             1150.00,391.00 1150.00,356.00 1150.00,356.00
             1150.01,351.91 1149.78,347.60 1152.65,344.28
             1155.79,340.64 1160.65,341.01 1165.00,341.00
             1165.00,341.00 1177.00,341.00 1177.00,341.00 Z
           M 431.00,160.00
           C 431.00,160.00 431.58,131.00 431.58,131.00
             431.93,128.32 431.86,124.27 433.02,122.01
             435.07,118.02 447.80,109.10 452.00,105.79
             452.00,105.79 496.00,71.65 496.00,71.65
             496.00,71.65 526.00,48.67 526.00,48.67
             529.23,46.30 535.74,42.68 538.83,47.31
             540.22,49.41 540.00,53.52 540.00,56.00
             540.00,56.00 540.00,83.00 540.00,83.00
             540.00,83.00 539.00,100.00 539.00,100.00
             539.00,100.00 539.00,341.00 539.00,341.00
             539.00,341.00 539.00,451.00 539.00,451.00
             539.00,451.00 538.00,466.00 538.00,466.00
             538.00,466.00 538.00,531.00 538.00,531.00
             538.00,531.00 538.82,541.00 538.82,541.00
             538.82,541.00 538.00,554.00 538.00,554.00
             538.00,554.00 328.00,554.00 328.00,554.00
             328.00,554.00 327.00,534.00 327.00,534.00
             327.00,534.00 327.00,252.00 327.00,252.00
             327.00,252.00 327.00,190.00 327.00,190.00
             327.00,184.79 326.46,168.12 329.02,164.31
             331.38,160.79 339.18,161.01 343.00,161.00
             343.00,161.00 400.00,161.00 400.00,161.00
             400.00,161.00 415.00,160.00 415.00,160.00
             415.00,160.00 431.00,160.00 431.00,160.00 Z
           M 1537.00,554.00
           C 1537.00,554.00 1536.04,536.00 1536.04,536.00
             1536.04,536.00 1536.04,521.00 1536.04,521.00
             1536.04,521.00 1537.00,509.00 1537.00,509.00
             1537.00,509.00 1537.00,125.00 1537.00,125.00
             1537.01,122.36 1536.32,116.85 1540.15,116.70
             1543.02,116.59 1557.57,124.96 1561.00,126.86
             1561.00,126.86 1610.00,154.00 1610.00,154.00
             1624.72,162.37 1625.98,160.45 1626.00,171.00
             1626.00,171.00 1626.00,554.00 1626.00,554.00
             1626.00,554.00 1537.00,554.00 1537.00,554.00 Z
           M 866.00,554.00
           C 866.00,554.00 865.00,537.00 865.00,537.00
             865.00,537.00 865.00,327.00 865.00,327.00
             865.00,327.00 865.00,231.00 865.00,231.00
             865.00,231.00 864.00,216.00 864.00,216.00
             864.00,216.00 864.00,174.00 864.00,174.00
             864.00,174.00 864.99,161.00 864.99,161.00
             865.04,158.74 864.75,155.33 866.02,153.42
             868.44,149.78 875.15,150.01 879.00,150.00
             879.00,150.00 954.00,150.00 954.00,150.00
             958.89,150.00 974.25,148.67 977.15,152.31
             979.11,154.78 978.98,159.00 979.00,162.00
             979.00,162.00 978.00,181.00 978.00,181.00
             978.00,181.00 978.00,284.00 978.00,284.00
             978.00,284.00 979.00,299.00 979.00,299.00
             979.00,299.00 979.00,367.00 979.00,367.00
             979.00,367.00 1005.00,374.00 1005.00,374.00
             1005.00,374.00 1006.00,356.00 1006.00,356.00
             1006.00,356.00 1006.00,313.00 1006.00,313.00
             1006.05,308.98 1006.54,298.12 1009.31,295.43
             1013.32,291.55 1022.48,293.99 1028.00,294.04
             1028.00,294.04 1040.00,294.04 1040.00,294.04
             1040.00,294.04 1050.00,295.00 1050.00,295.00
             1050.00,295.00 1065.00,295.00 1065.00,295.00
             1065.00,295.00 1088.00,296.00 1088.00,296.00
             1097.68,296.02 1098.98,297.32 1099.00,307.00
             1099.00,307.00 1099.00,321.00 1099.00,321.00
             1099.00,321.00 1100.00,337.00 1100.00,337.00
             1100.00,337.00 1100.58,379.00 1100.58,379.00
             1100.99,382.11 1100.70,388.55 1102.02,390.79
             1104.83,395.54 1119.48,398.61 1123.41,403.39
             1126.02,406.57 1126.04,414.93 1126.00,419.00
             1126.00,419.00 1125.00,434.00 1125.00,434.00
             1125.00,434.00 1125.00,538.00 1125.00,538.00
             1125.00,538.00 1124.00,554.00 1124.00,554.00
             1124.00,554.00 866.00,554.00 866.00,554.00 Z
           M 587.00,554.00
           C 587.00,554.00 587.00,517.00 587.00,517.00
             587.00,517.00 588.00,500.00 588.00,500.00
             588.00,500.00 588.00,460.00 588.00,460.00
             588.00,460.00 589.00,443.00 589.00,443.00
             589.00,443.00 589.00,401.00 589.00,401.00
             589.00,401.00 590.00,386.00 590.00,386.00
             590.00,386.00 590.00,347.00 590.00,347.00
             590.00,347.00 591.00,330.00 591.00,330.00
             591.00,330.00 591.00,289.00 591.00,289.00
             591.00,289.00 592.00,272.00 592.00,272.00
             592.00,272.00 592.00,233.00 592.00,233.00
             592.00,233.00 592.96,221.00 592.96,221.00
             592.96,221.00 592.96,205.00 592.96,205.00
             593.02,193.87 596.35,192.02 607.00,192.00
             607.00,192.00 643.00,192.00 643.00,192.00
             643.00,192.00 663.96,193.51 663.96,193.51
             665.26,193.93 666.36,194.52 667.26,195.57
             671.87,200.89 665.51,216.51 672.15,219.40
             673.79,220.12 677.15,220.00 679.00,220.00
             679.00,220.00 715.00,220.00 715.00,220.00
             715.00,220.00 731.00,221.00 731.00,221.00
             731.00,221.00 757.00,221.00 757.00,221.00
             757.00,221.00 774.00,221.00 774.00,221.00
             776.14,221.04 778.77,220.96 780.40,222.60
             782.32,224.52 781.99,228.46 782.00,231.00
             782.00,231.00 782.00,255.00 782.00,255.00
             782.00,255.00 783.00,272.00 783.00,272.00
             783.00,272.00 783.00,312.00 783.00,312.00
             783.00,312.00 827.00,290.25 827.00,290.25
             830.41,288.54 840.79,282.01 843.40,287.31
             844.13,288.79 844.00,292.29 844.00,294.00
             844.00,294.00 844.00,375.00 844.00,375.00
             844.00,375.00 843.00,390.00 843.00,390.00
             843.00,390.00 843.00,492.00 843.00,492.00
             843.00,492.00 842.00,507.00 842.00,507.00
             842.00,507.00 842.00,554.00 842.00,554.00
             842.00,554.00 587.00,554.00 587.00,554.00 Z
           M 191.00,345.04
           C 191.00,345.04 191.00,317.00 191.00,317.00
             191.00,317.00 190.00,300.00 190.00,300.00
             190.00,300.00 190.00,250.00 190.00,250.00
             190.05,246.17 190.44,235.11 193.31,232.74
             195.77,230.71 199.97,231.00 203.00,231.00
             203.00,231.00 276.00,231.00 276.00,231.00
             281.19,231.00 295.03,229.60 297.98,234.28
             299.21,236.23 299.00,239.73 299.00,242.00
             299.00,242.00 299.00,435.00 299.00,435.00
             299.00,435.00 298.00,450.00 298.00,450.00
             298.00,450.00 298.00,554.00 298.00,554.00
             298.00,554.00 142.00,554.00 142.00,554.00
             142.00,554.00 142.00,526.00 142.00,526.00
             142.00,526.00 141.00,509.00 141.00,509.00
             141.00,509.00 141.00,459.00 141.00,459.00
             141.00,459.00 140.00,442.00 140.00,442.00
             140.00,442.00 140.00,397.00 140.00,397.00
             140.00,397.00 140.00,363.00 140.00,363.00
             140.00,359.49 139.31,352.07 141.60,349.43
             144.15,346.49 156.90,346.02 161.00,346.00
             161.00,346.00 165.00,346.00 165.00,346.00
             165.00,346.00 176.00,345.04 176.00,345.04
             176.00,345.04 191.00,345.04 191.00,345.04 Z
           M 0.00,296.00
           C 0.00,296.00 51.00,296.00 51.00,296.00
             51.00,296.00 67.00,295.00 67.00,295.00
             67.00,295.00 96.00,295.00 96.00,295.00
             96.00,295.00 117.00,295.00 117.00,295.00
             119.84,295.06 122.38,295.02 124.44,297.31
             127.17,300.34 126.99,306.16 127.00,310.00
             127.00,310.00 127.00,353.00 127.00,353.00
             127.00,353.00 128.00,370.00 128.00,370.00
             128.00,370.00 128.00,438.00 128.00,438.00
             128.00,438.00 129.00,453.00 129.00,453.00
             129.00,453.00 129.00,522.00 129.00,522.00
             129.00,522.00 130.00,538.00 130.00,538.00
             130.00,538.00 129.00,554.00 129.00,554.00
             129.00,554.00 42.00,554.00 42.00,554.00
             42.00,554.00 23.00,554.00 23.00,554.00
             23.00,554.00 9.00,553.18 9.00,553.18
             9.00,553.18 0.00,554.00 0.00,554.00
             0.00,554.00 0.00,296.00 0.00,296.00 Z" />
</svg>
