<?xml version="1.0" encoding="UTF-8" standalone="no"?>
<svg xmlns="http://www.w3.org/2000/svg"
     xmlns:svg="http://www.w3.org/2000/svg"
     version="1.1"
     width="0.713333in" height="0.116667in"
     viewBox="0 0 214 35">
  <defs>
  </defs>
  <path id="vector0"
        fill="#018578"
        stroke="#018578"
        opacity="1.000000"
        stroke-width="1.000000"
        stroke-linecap="butt"
        stroke-linejoin="miter"
        stroke-miterlimit="10.000000"
        d="M 0.49,1.43
           C 0.49,1.43 7.55,1.48 7.55,1.48
             7.55,1.48 16.11,22.60 16.11,22.60
             16.11,22.60 24.52,1.45 24.52,1.45
             24.52,1.45 29.48,1.42 29.48,1.42
             29.48,1.42 38.48,22.43 38.48,22.43
             38.48,22.43 46.49,1.43 46.49,1.43
             46.49,1.43 52.51,1.42 52.51,1.42
             52.51,1.42 40.52,33.44 40.52,33.44
             40.52,33.44 35.46,33.48 35.46,33.48
             35.46,33.48 26.46,11.45 26.46,11.45
             26.46,11.45 17.54,33.48 17.54,33.48
             17.54,33.48 12.49,33.54 12.49,33.54
             12.49,33.54 0.49,1.43 0.49,1.43 Z" />
  <path id="vector1"
        fill="#018578"
        stroke="#018578"
        opacity="1.000000"
        stroke-width="1.000000"
        stroke-linecap="butt"
        stroke-linejoin="miter"
        stroke-miterlimit="10.000000"
        d="M 83.00,21.00
           C 77.56,21.00 61.12,22.03 57.28,19.15
             53.27,16.14 52.90,6.09 56.56,2.74
             58.82,0.67 63.11,1.00 66.00,1.00
             69.78,0.99 83.18,0.56 85.87,1.74
             87.41,2.41 88.49,3.48 89.05,5.09
             90.75,9.97 85.33,10.52 82.00,11.00
             82.00,11.00 82.00,7.00 82.00,7.00
             82.00,7.00 62.00,7.00 62.00,7.00
             62.00,7.00 62.00,13.00 62.00,13.00
             67.29,13.00 83.89,12.06 87.63,14.93
             91.01,17.62 91.03,29.51 87.63,32.26
             85.23,34.29 81.03,34.00 78.00,34.00
             74.06,34.01 59.89,34.46 57.11,33.26
             53.45,31.69 52.14,27.14 54.58,25.17
             56.13,23.92 59.10,24.05 61.00,24.00
             61.00,24.00 61.00,27.00 61.00,27.00
             61.00,27.00 83.00,27.00 83.00,27.00
             83.00,27.00 83.00,21.00 83.00,21.00 Z
           M 95.00,1.00
           C 95.00,1.00 130.00,1.00 130.00,1.00
             130.00,1.00 130.00,7.00 130.00,7.00
             130.00,7.00 104.00,7.00 104.00,7.00
             104.00,7.00 104.00,14.00 104.00,14.00
             104.00,14.00 119.00,14.00 119.00,14.00
             119.00,14.00 119.00,20.00 119.00,20.00
             119.00,20.00 104.00,20.00 104.00,20.00
             104.00,20.00 104.00,27.00 104.00,27.00
             104.00,27.00 130.00,27.00 130.00,27.00
             130.00,27.00 130.00,34.00 130.00,34.00
             130.00,34.00 95.00,34.00 95.00,34.00
             95.00,34.00 95.00,1.00 95.00,1.00 Z
           M 171.00,22.00
           C 170.97,25.29 171.16,30.00 168.49,32.40
             166.36,34.32 162.69,33.99 160.00,34.00
             155.27,34.01 139.57,35.13 136.43,32.40
             132.89,29.33 133.98,17.65 134.00,13.00
             134.01,10.03 133.87,5.85 135.85,3.43
             138.85,-0.22 150.39,1.00 155.00,1.00
             158.58,1.00 165.79,0.36 168.49,2.74
             171.19,5.12 170.97,9.71 171.00,13.00
             171.00,13.00 162.00,14.00 162.00,14.00
             162.00,14.00 162.00,8.00 162.00,8.00
             162.00,8.00 143.00,8.00 143.00,8.00
             143.00,8.00 143.00,27.00 143.00,27.00
             143.00,27.00 162.00,27.00 162.00,27.00
             162.00,27.00 162.00,20.00 162.00,20.00
             162.00,20.00 171.00,22.00 171.00,22.00 Z
           M 176.00,1.00
           C 176.00,1.00 185.00,1.00 185.00,1.00
             185.00,1.00 185.00,27.00 185.00,27.00
             185.00,27.00 205.00,27.00 205.00,27.00
             205.00,27.00 205.00,1.00 205.00,1.00
             205.00,1.00 214.00,1.00 214.00,1.00
             214.00,1.00 214.00,23.00 214.00,23.00
             213.96,26.05 213.95,30.18 211.49,32.40
             209.36,34.32 205.69,33.99 203.00,34.00
             183.99,34.04 176.18,37.03 176.00,24.00
             176.00,24.00 176.00,1.00 176.00,1.00 Z" />
</svg>
