<svg width="205" height="76" viewBox="0 0 205 76" fill="none" xmlns="http://www.w3.org/2000/svg">
<g id="buttonYellow">
<g id="buttonShadow">
<path d="M5.5 61.5V10C5.5 8 7.9 4.5 11.5 4.5H184.5C190 5 203 8.5 204.5 20V70.5C204.5 72.5 203 75.5 199 75.5H26.5C17 75.5 5.5 72.5 5.5 61.5Z" fill="#E4BE57"/>
<path d="M11.5 4.5C7.9 4.5 5.5 8 5.5 10V61.5C5.5 72.5 17 75.5 26.5 75.5H199C203 75.5 204.5 72.5 204.5 70.5V20C203 8.5 190 5 184.5 4.5M11.5 4.5C15.1 4.5 128.333 4.5 184.5 4.5M11.5 4.5H184.5" stroke="black"/>
</g>
<g id="buttonBody">
<g id="buttonFront">
<path d="M1 58V6.5C1 4.5 3.4 1 7 1H180C185.5 1.5 198.5 5 200 16.5V67C200 69 198.5 72 194.5 72H22C12.5 72 1 69 1 58Z" fill="#FFCA3A"/>
<path d="M7 1C3.4 1 1 4.5 1 6.5V58C1 69 12.5 72 22 72H194.5C198.5 72 200 69 200 67V16.5C198.5 5 185.5 1.5 180 1M7 1C10.6 1 123.833 1 180 1M7 1H180" stroke="black"/>
</g>
<path id="textContent" d="M14 55V15H182V55H14Z" fill="white" stroke="black"/>
</g>
</g>
</svg>
