<?xml version="1.0" encoding="UTF-8" standalone="no"?>
<svg xmlns="http://www.w3.org/2000/svg"
     xmlns:svg="http://www.w3.org/2000/svg"
     version="1.1"
     width="22.7778in" height="2.77778in"
     viewBox="0 0 1640 200"
     preserveAspectRatio="none">
  <defs>
  </defs>
  <path id="vector0"
        fill="#24B633"
        stroke="#25B634"
        opacity="1.000000"
        stroke-width="6.000000"
        stroke-linecap="butt"
        stroke-linejoin="miter"
        stroke-miterlimit="10.000000"
        d="M 552.60,71.20
           C 563.18,66.24 585.44,69.02 597.00,69.00
             597.00,69.00 618.00,67.17 618.00,67.17
             618.00,67.17 678.00,59.39 678.00,59.39
             678.00,59.39 704.00,54.79 704.00,54.79
             704.00,54.79 757.00,42.42 757.00,42.42
             757.00,42.42 821.00,28.13 821.00,28.13
             821.00,28.13 877.00,14.80 877.00,14.80
             877.00,14.80 905.00,10.58 905.00,10.58
             905.00,10.58 946.00,5.00 946.00,5.00
             973.33,4.68 1006.31,5.56 1033.00,11.21
             1052.93,15.43 1091.37,27.05 1111.00,33.86
             1111.00,33.86 1150.00,48.31 1150.00,48.31
             1150.00,48.31 1214.00,67.85 1214.00,67.85
             1214.00,67.85 1281.00,81.42 1281.00,81.42
             1281.00,81.42 1340.00,89.17 1340.00,89.17
             1340.00,89.17 1361.00,91.00 1361.00,91.00
             1361.00,91.00 1419.00,91.00 1419.00,91.00
             1419.00,91.00 1435.00,90.00 1435.00,90.00
             1435.00,90.00 1449.00,90.00 1449.00,90.00
             1449.00,90.00 1467.00,89.00 1467.00,89.00
             1467.00,89.00 1482.00,88.00 1482.00,88.00
             1482.00,88.00 1538.00,85.00 1538.00,85.00
             1538.00,85.00 1577.00,81.17 1577.00,81.17
             1596.80,79.27 1621.44,78.13 1640.00,71.00
             1640.00,71.00 1640.00,130.00 1640.00,130.00
             1640.00,130.00 1623.00,135.12 1623.00,135.12
             1623.00,135.12 1586.00,143.36 1586.00,143.36
             1586.00,143.36 1561.00,148.56 1561.00,148.56
             1561.00,148.56 1545.00,150.28 1545.00,150.28
             1545.00,150.28 1487.00,157.96 1487.00,157.96
             1487.00,157.96 1479.00,157.96 1479.00,157.96
             1479.00,157.96 1463.00,159.83 1463.00,159.83
             1463.00,159.83 1443.00,161.17 1443.00,161.17
             1443.00,161.17 1409.00,164.09 1409.00,164.09
             1409.00,164.09 1399.00,165.00 1399.00,165.00
             1399.00,165.00 1366.00,167.00 1366.00,167.00
             1366.00,167.00 1345.00,167.00 1345.00,167.00
             1345.00,167.00 1329.00,168.00 1329.00,168.00
             1329.00,168.00 1283.00,168.00 1283.00,168.00
             1283.00,168.00 1268.00,167.00 1268.00,167.00
             1268.00,167.00 1250.00,167.00 1250.00,167.00
             1250.00,167.00 1238.00,166.04 1238.00,166.04
             1238.00,166.04 1225.00,166.04 1225.00,166.04
             1225.00,166.04 1213.00,165.04 1213.00,165.04
             1213.00,165.04 1203.00,165.04 1203.00,165.04
             1203.00,165.04 1188.00,164.00 1188.00,164.00
             1188.00,164.00 1159.00,164.00 1159.00,164.00
             1159.00,164.00 1144.00,163.00 1144.00,163.00
             1144.00,163.00 1140.00,163.00 1140.00,163.00
             1140.00,163.00 1130.00,162.04 1130.00,162.04
             1130.00,162.04 1114.00,162.04 1114.00,162.04
             1114.00,162.04 1098.00,161.00 1098.00,161.00
             1098.00,161.00 1072.00,159.09 1072.00,159.09
             1072.00,159.09 1005.00,153.17 1005.00,153.17
             1005.00,153.17 960.00,148.17 960.00,148.17
             960.00,148.17 910.00,142.72 910.00,142.72
             910.00,142.72 809.00,125.61 809.00,125.61
             809.00,125.61 696.00,103.80 696.00,103.80
             696.00,103.80 670.00,99.58 670.00,99.58
             670.00,99.58 629.00,90.89 629.00,90.89
             629.00,90.89 619.00,89.11 619.00,89.11
             619.00,89.11 584.36,80.42 584.36,80.42
             584.36,80.42 565.04,74.73 565.04,74.73
             565.04,74.73 552.60,71.20 552.60,71.20 Z" />
  <path id="vector1"
        fill="#079719"
        stroke="none"
        opacity="1.000000"
        stroke-width="6.000000"
        stroke-linecap="butt"
        stroke-linejoin="miter"
        stroke-miterlimit="10.000000"
        d="M 0.00,200.00
           C 0.00,200.00 0.00,39.00 0.00,39.00
             0.00,36.60 -0.39,32.69 1.60,30.98
             3.20,29.61 10.59,28.48 13.00,28.00
             13.00,28.00 41.00,22.92 41.00,22.92
             85.92,15.48 131.52,10.53 177.00,10.00
             177.00,10.00 192.00,9.00 192.00,9.00
             192.00,9.00 226.00,9.00 226.00,9.00
             226.00,9.00 241.00,10.00 241.00,10.00
             282.48,10.06 331.16,15.92 372.00,23.80
             372.00,23.80 429.00,37.85 429.00,37.85
             429.00,37.85 477.00,50.58 477.00,50.58
             477.00,50.58 536.00,65.72 536.00,65.72
             536.00,65.72 557.00,72.39 557.00,72.39
             557.00,72.39 584.00,80.47 584.00,80.47
             584.00,80.47 669.00,99.20 669.00,99.20
             669.00,99.20 702.00,104.80 702.00,104.80
             702.00,104.80 752.00,115.20 752.00,115.20
             752.00,115.20 809.00,125.42 809.00,125.42
             809.00,125.42 838.00,131.55 838.00,131.55
             838.00,131.55 856.00,134.42 856.00,134.42
             856.00,134.42 899.00,141.73 899.00,141.73
             899.00,141.73 941.00,146.83 941.00,146.83
             941.00,146.83 962.00,148.29 962.00,148.29
             962.00,148.29 980.00,150.84 980.00,150.84
             980.00,150.84 1044.00,157.17 1044.00,157.17
             1044.00,157.17 1081.00,160.09 1081.00,160.09
             1081.00,160.09 1091.00,161.00 1091.00,161.00
             1091.00,161.00 1115.00,162.09 1115.00,162.09
             1115.00,162.09 1125.00,163.00 1125.00,163.00
             1125.00,163.00 1138.00,163.00 1138.00,163.00
             1138.00,163.00 1169.00,165.00 1169.00,165.00
             1169.00,165.00 1194.00,165.00 1194.00,165.00
             1194.00,165.00 1206.00,165.91 1206.00,165.91
             1206.00,165.91 1234.00,167.00 1234.00,167.00
             1234.00,167.00 1249.00,168.00 1249.00,168.00
             1249.00,168.00 1271.00,168.00 1271.00,168.00
             1271.00,168.00 1288.00,169.00 1288.00,169.00
             1288.00,169.00 1314.00,169.00 1314.00,169.00
             1314.00,169.00 1326.00,168.42 1326.00,168.42
             1326.00,168.42 1332.00,168.42 1332.00,168.42
             1332.00,168.42 1343.00,167.83 1343.00,167.83
             1343.00,167.83 1360.00,167.83 1360.00,167.83
             1360.00,167.83 1368.00,167.83 1368.00,167.83
             1368.00,167.83 1398.00,165.48 1398.00,165.48
             1398.00,165.48 1423.00,163.83 1423.00,163.83
             1423.00,163.83 1433.00,162.00 1433.00,162.00
             1433.00,162.00 1442.00,162.00 1442.00,162.00
             1442.00,162.00 1496.00,156.83 1496.00,156.83
             1496.00,156.83 1544.00,150.28 1544.00,150.28
             1544.00,150.28 1562.00,148.56 1562.00,148.56
             1562.00,148.56 1586.00,143.42 1586.00,143.42
             1586.00,143.42 1599.00,141.33 1599.00,141.33
             1599.00,141.33 1611.00,137.92 1611.00,137.92
             1611.00,137.92 1623.00,135.12 1623.00,135.12
             1623.00,135.12 1640.00,130.00 1640.00,130.00
             1640.00,130.00 1640.00,200.00 1640.00,200.00
             1640.00,200.00 0.00,200.00 0.00,200.00 Z" />
</svg>
