<svg xmlns="http://www.w3.org/2000/svg" width="330" height="204" fill="none"><path fill="#000" d="M74.462 143.267 33 153.197l-9.308 10.314 38.077-10.314v4.864l12.693-14.794ZM108.308 151.832l-38.923 13.814-7.616 10.323 47.862-16.069-1.323-8.068ZM151.462 154.947l-33.415 35.038 2.107 11.679 41.461-39.922-10.153-6.795ZM188.692 145.603v34.26l-27.077-18.121L198 189.985v-31.924l50.769 21.802-11-38.153 62.616 7.008-29.616-25.695 44.846-9.344-42.307-9.495 20.307 6.381-37.23 7.008 27.923 25.694-58.385-10.122 11.846 37.374-49.077-24.916ZM258.923 99.664l14.385 4.52 55.846-13.863-24.539-2.07-45.692 11.413ZM252.154 78.641 266.538 80l29.616-26.274-20.308 4.106-23.692 20.81ZM225.923 56.061l10.154-1.62 14.385-33.418-11.39 6.229-13.149 28.81Z"/><path fill="#F7F7F7" d="M30.462 40.489 61.769 78.64l-49.077 1.557 43.154 24.917-51.615 14.793 42.307 8.565-33.846 29.588L33 153.197l41.462-9.93-12.693 14.794-12.692 14.794 20.308-7.209 38.923-13.814 1.323 8.068 5.446 33.199 2.97-3.114 33.415-35.038 10.153 6.795 27.077 18.121v-34.26l49.077 24.916-11.846-37.374 58.385 10.122-27.923-25.694 37.23-7.008-20.307-6.381-14.385-4.52 45.692-11.412 13.539-3.382L266.538 80l-14.384-1.358 23.692-20.81 13.539-11.892-53.308 8.502-10.154 1.62 13.149-28.81 4.62-10.121-62.615 30.366-16.923-45.16-29.616 43.603-40.615-28.81 5.923 43.604-69.385-20.244Z"/><path stroke="#000" d="m33 153.197-20.308 4.864 33.846-29.588-42.307-8.565 51.615-14.794-43.154-24.916 49.077-1.557-31.307-38.153 69.384 20.245-5.923-43.603 40.615 28.809 29.616-43.603 16.923 45.16 62.615-30.366-4.62 10.122M33 153.197l41.462-9.93-12.693 14.794M33 153.197l-9.308 10.314m215.38-136.26-13.149 28.81 10.154-1.62m2.995-27.19 11.39-6.228-14.385 33.418M61.769 158.061v-4.864m0 4.864-12.692 14.794 20.308-7.209m-45.693-2.135 38.077-10.314m-38.077 10.314 38.077-10.314m7.616 12.449 38.923-13.814 1.323 8.068m-40.246 5.746-7.616 10.323 47.862-16.069m0 0 5.446 33.199 2.97-3.114m0 0 33.415-35.038 10.153 6.795m-43.568 28.243 2.107 11.679 41.461-39.922m0 0 27.077 18.121v-34.26l49.077 24.916-11.846-37.374 58.385 10.122-27.923-25.694 37.23-7.008-20.307-6.381m-111.693 57.558L198 189.985v-31.924l50.769 21.802-11-38.153 62.616 7.008-29.616-25.695 44.846-9.344-42.307-9.495m0 0-14.385-4.52 45.692-11.412m-31.307 15.932 55.846-13.863-24.539-2.07m0 0 13.539-3.38-51.616-4.872m0 0-14.384-1.358 23.692-20.81m-9.308 22.168 29.616-26.274-20.308 4.106m0 0 13.539-11.892-53.308 8.502"/><path fill="#000" d="m105.895 88.275-.899-13.153-4.384.3.18 2.63 1.753-.12.719 10.522 2.631-.18Zm-5.92-9.286-.3-4.385 6.138-.419 1.405 1.225 1.019 14.907-4.385.3-1.405-1.226-.629-9.207-.438.03-1.405-1.225Zm12.935 8.807-.899-13.153-4.384.3.179 2.63 1.754-.12.719 10.522 2.631-.18Zm-5.921-9.287-.299-4.384 6.138-.42 1.405 1.226 1.018 14.907-4.384.3-1.405-1.226-.629-9.207-.438.03-1.406-1.225Zm17.807-4.74-1.754.12c-2.631.18-3.856 1.585-3.676 4.216.179 2.63 1.584 3.856 4.215 3.676l1.754-.12c.877-.06 1.345.349 1.405 1.226.06.876-.349 1.345-1.226 1.405l-1.753.12c-.877.06-1.335-.203-1.375-.788l-2.631.18c.16 2.338 1.555 3.418 4.185 3.238l1.754-.12c2.631-.18 3.856-1.584 3.677-4.215-.18-2.63-1.585-3.856-4.216-3.676l-1.754.12c-.876.06-1.345-.35-1.405-1.226-.06-.877.349-1.345 1.226-1.405l1.753-.12c.877-.06 1.336.202 1.376.787l2.63-.18c-.159-2.338-1.555-3.417-4.185-3.238Zm-4.066 8.444c-1.354-.653-2.101-2.002-2.241-4.048-.22-3.216 1.278-4.933 4.493-5.153l1.754-.12c1.958-.133 3.505.29 4.641 1.27 1.141.972 1.79 2.602 1.946 4.888l-2.42.165c1.069.514 1.779 1.2 2.131 2.057.353.857.559 1.724.619 2.6.219 3.216-1.279 4.933-4.494 5.153l-1.754.12c-1.958.133-3.508-.29-4.649-1.269-1.136-.973-1.782-2.603-1.938-4.889l2.42-.165a3.669 3.669 0 0 1-.508-.609Zm20.557-5.606c-.179-2.63-1.585-3.856-4.215-3.676l-1.754.12c-2.63.18-3.856 1.584-3.676 4.215l.359 5.261c.18 2.63 1.585 3.856 4.216 3.677l1.753-.12c2.631-.18 3.856-1.585 3.677-4.216l-.03-.438-2.631.18.03.438c.06.877-.349 1.345-1.225 1.405l-1.754.12c-.877.06-1.345-.349-1.405-1.225l-.36-5.262c-.06-.876.349-1.345 1.226-1.405l1.754-.12c.876-.06 1.345.349 1.405 1.226l.03.438 2.63-.18-.03-.438Zm-8.314 10.479c-1.093-.953-1.709-2.453-1.849-4.499l-.359-5.261c-.22-3.215 1.278-4.933 4.493-5.152l1.754-.12c2.046-.14 3.615.267 4.708 1.22s1.709 2.453 1.849 4.499l.09 1.315-4.384.3-1.405-1.226-.03-.438-.877.06c-.292.02-.429.176-.409.468l.3 4.384.877-.06c.292-.02.428-.176.408-.468l-.09-1.315 4.385-.3 1.405 1.226.09 1.315c.219 3.215-1.279 4.932-4.494 5.152l-1.753.12c-2.046.14-3.616-.267-4.709-1.22Zm13.845-6.892 4.384-.3.36 5.261 2.63-.18-.898-13.152-2.631.18.36 5.26-4.385.3-.359-5.261-2.631.18.899 13.153 2.63-.18-.359-5.261Zm3.927 5.898-.27-3.946-1.315.09.359 5.261-4.384.3-1.405-1.226-1.018-14.906 4.384-.3 1.405 1.226.27 3.946 1.315-.09-.36-5.261 4.385-.3 1.405 1.226 1.018 14.906-4.384.3-1.405-1.226Zm10.879-14.838-1.754.12c-2.63.18-3.856 1.584-3.676 4.215l.359 5.261c.18 2.63 1.585 3.856 4.216 3.677l1.753-.12c2.631-.18 3.856-1.585 3.677-4.216l-.36-5.26c-.179-2.631-1.584-3.857-4.215-3.677Zm1.585 3.856.359 5.261c.06.877-.348 1.345-1.225 1.405l-1.754.12c-.877.06-1.345-.349-1.405-1.225l-.359-5.262c-.06-.877.348-1.345 1.225-1.405l1.754-.12c.877-.06 1.345.349 1.405 1.226Zm-1.803 5.85.877-.06c.292-.02.428-.177.408-.47l-.299-4.383c-.877.06-1.285.528-1.226 1.405l.24 3.507Zm-3.881 4.449c-1.092-.953-1.709-2.453-1.849-4.499l-.359-5.261c-.22-3.215 1.278-4.933 4.493-5.152l1.754-.12c2.046-.14 3.616.267 4.708 1.22 1.093.953 1.71 2.453 1.849 4.499l.36 5.26c.219 3.216-1.278 4.934-4.494 5.153l-1.753.12c-2.046.14-3.616-.267-4.709-1.22ZM173.9 70.415l-1.754.12c-2.63.18-3.856 1.585-3.676 4.216l.359 5.26c.18 2.631 1.585 3.857 4.216 3.677l1.754-.12c2.63-.18 3.856-1.585 3.676-4.215l-.359-5.261c-.18-2.63-1.585-3.856-4.216-3.677Zm1.585 3.856.359 5.261c.06.877-.348 1.346-1.225 1.406l-1.754.12c-.877.06-1.345-.35-1.405-1.226l-.359-5.261c-.06-.877.348-1.345 1.225-1.405l1.754-.12c.877-.06 1.345.348 1.405 1.225Zm-1.803 5.85.877-.06c.292-.02.428-.176.408-.469l-.299-4.384c-.877.06-1.285.528-1.226 1.405l.24 3.508Zm-3.881 4.45c-1.092-.954-1.709-2.453-1.848-4.5l-.36-5.26c-.219-3.216 1.278-4.933 4.493-5.153l1.754-.12c2.046-.14 3.616.267 4.709 1.22 1.092.954 1.709 2.453 1.849 4.5l.359 5.26c.219 3.216-1.278 4.933-4.493 5.153l-1.754.12c-2.046.14-3.616-.268-4.709-1.22Zm10.676-14.605.898 13.153 8.769-.599-.18-2.63-6.138.419-.719-10.523-2.63.18Zm.081 14.09-1.018-14.907 4.384-.3 1.405 1.226.629 9.207 4.823-.33 1.405 1.226.3 4.385-10.523.718-1.405-1.225Zm17.017-15.258-1.753.12c-2.631.18-3.856 1.585-3.677 4.215.18 2.63 1.585 3.856 4.216 3.677l1.753-.12c.877-.06 1.346.349 1.406 1.225.059.877-.349 1.346-1.226 1.405l-1.754.12c-.876.06-1.335-.202-1.375-.787l-2.63.18c.159 2.338 1.554 3.418 4.185 3.238l1.754-.12c2.63-.18 3.856-1.585 3.676-4.215-.18-2.63-1.585-3.856-4.215-3.677l-1.754.12c-.877.06-1.345-.349-1.405-1.225-.06-.877.348-1.346 1.225-1.405l1.754-.12c.877-.06 1.335.202 1.375.787l2.631-.18c-.16-2.338-1.555-3.418-4.186-3.238Zm-4.065 8.444c-1.355-.653-2.102-2.003-2.242-4.049-.219-3.215 1.279-4.932 4.494-5.152l1.753-.12c1.959-.134 3.506.29 4.642 1.269 1.141.973 1.79 2.603 1.946 4.889l-2.42.165c1.068.514 1.779 1.2 2.131 2.057.352.856.558 1.723.618 2.6.22 3.215-1.278 4.933-4.493 5.152l-1.754.12c-1.958.134-3.508-.289-4.65-1.268-1.135-.974-1.781-2.603-1.937-4.889l2.42-.165a3.628 3.628 0 0 1-.508-.609ZM101.408 93.532l103.54-7.072.117 1.706-103.54 7.072-.117-1.706ZM66.672 111.243c.05.731-.29 1.121-1.021 1.171l-1.462.1c-.73.05-1.12-.29-1.17-1.021l-.525-7.673-2.192.15.524 7.673c.15 2.192 1.321 3.213 3.513 3.063l1.462-.099c2.192-.15 3.213-1.321 3.063-3.513l-.524-7.673-2.192.15.524 7.672Zm-1.802.491.731-.05c.243-.017.357-.147.34-.391l-.574-8.403 3.654-.249 1.17 1.021.575 8.403c.183 2.679-1.065 4.11-3.745 4.293l-1.461.1c-1.705.117-3.013-.222-3.924-1.016-.91-.795-1.424-2.044-1.54-3.749l-.574-8.404 3.653-.249 1.171 1.021.524 7.673Zm8.152-4.257 3.915 6.369 2.382-.163-.749-10.961-2.192.15.451 6.606-3.914-6.369-2.383.162.749 10.961 2.192-.15-.451-6.605Zm3.526 7.13-1.354-2.198.23 3.375-3.653.25-1.17-1.021-.85-12.422 3.552-.243 1.17 1.021 1.355 2.198-.23-3.376 3.653-.249 1.171 1.021.849 12.422-3.552.243-1.17-1.021Zm7.155-1.223-.749-10.961-2.192.15.75 10.96 2.191-.149Zm-2.873.93-.848-12.422 3.653-.25 1.171 1.021.849 12.423-3.654.249-1.17-1.021Zm10.864-12.488-1.612 8.215-2.714-7.92-2.265.155 3.686 10.76 2.981-.203 2.19-11.162-2.266.155Zm-1.505 3.876.9-4.569 3.77-.257 1.171 1.021-2.483 12.65-4.093.279-1.17-1.021-4.181-12.195 3.77-.257 1.171 1.021 1.145 3.328Zm8.71 4.441-.15-2.192 4.384-.299-.15-2.192-4.384.299-.15-2.192 5.115-.349-.149-2.193-7.308.5.75 10.96 7.306-.499-.149-2.192-5.115.349Zm4.79-5.099 1.146.656.25 3.654.78.681.25 3.653-8.769.599-1.17-1.021-.85-12.422 8.769-.599 1.171 1.021.25 3.654-1.827.124Zm1.918-4.168.749 10.96 2.192-.149-.3-4.385 1.023-.069 2.835 4.211 2.529-.173-2.869-4.268c1.517-.573 2.218-1.703 2.103-3.388-.149-2.192-1.32-3.214-3.512-3.064l-4.75.325Zm2.342 2.042 2.557-.175c.731-.05 1.121.291 1.171 1.022.05.73-.29 1.121-1.021 1.171l-2.558.174-.149-2.192Zm6.281-2.081c.911.794 1.425 2.044 1.541 3.749.14 2.046-.429 3.313-1.708 3.802l3.064 4.548-4.224.289-1.171-1.022-1.462-2.176.229 3.362-3.653.249-1.171-1.021-.849-12.422 5.481-.374c1.705-.117 3.012.222 3.923 1.016Zm6.357-.985-1.462.1c-2.192.15-3.213 1.321-3.063 3.513.149 2.192 1.32 3.213 3.512 3.064l1.462-.1c.731-.05 1.121.29 1.171 1.021.05.731-.291 1.121-1.021 1.171l-1.462.1c-.731.05-1.113-.169-1.146-.656l-2.192.15c.133 1.948 1.296 2.848 3.488 2.698l1.461-.1c2.192-.15 3.214-1.32 3.064-3.513-.15-2.192-1.321-3.213-3.513-3.063l-1.461.1c-.731.049-1.121-.291-1.171-1.022-.05-.73.29-1.121 1.021-1.171l1.461-.099c.731-.05 1.113.168 1.146.655l2.192-.149c-.133-1.949-1.295-2.848-3.487-2.699Zm-3.389 7.037c-1.128-.544-1.751-1.669-1.867-3.374-.183-2.679 1.065-4.11 3.744-4.293l1.462-.1c1.632-.112 2.921.24 3.867 1.057.951.811 1.492 2.169 1.622 4.074l-2.017.137c.891.429 1.483 1 1.776 1.714.294.715.466 1.437.516 2.168.183 2.679-1.066 4.11-3.745 4.293l-1.461.1c-1.632.111-2.924-.241-3.875-1.057-.946-.811-1.485-2.169-1.615-4.074l2.017-.138a3.115 3.115 0 0 1-.424-.507Zm11.81 3.4-.749-10.96-2.192.15.749 10.96 2.192-.15Zm-2.873.931-.849-12.423 3.654-.25 1.171 1.022.848 12.422-3.653.25-1.171-1.021Zm9.581-10.199 2.923-.199-.15-2.192-8.038.549.15 2.192 2.923-.2.599 8.769 2.192-.15-.599-8.769Zm-5.796 1.13-.249-3.653 9.499-.649 1.171 1.021.25 3.654-2.923.199.599 8.769-3.654.25-1.171-1.022-.524-7.672-1.827.125-1.171-1.022Zm13.702 7.14-.748-10.96-2.193.149.749 10.961 2.192-.15Zm-2.873.93-.848-12.422 3.653-.25 1.171 1.022.849 12.422-3.654.249-1.171-1.021Zm7.108-3.422-.15-2.192 4.384-.299-.149-2.193-4.385.3-.149-2.192 5.115-.35-.15-2.192-7.307.5.748 10.96 7.308-.499-.15-2.192-5.115.349Zm4.79-5.099 1.146.656.25 3.654.781.68.249 3.654-8.769.599-1.17-1.021-.849-12.422 8.769-.6 1.171 1.022.249 3.653-1.827.125Zm6.668-4.493-1.462.1c-2.192.15-3.213 1.32-3.063 3.513.149 2.192 1.32 3.213 3.512 3.063l1.462-.099c.731-.05 1.121.29 1.171 1.021.05.731-.291 1.121-1.021 1.171l-1.462.1c-.731.049-1.113-.169-1.146-.656l-2.192.149c.133 1.949 1.296 2.848 3.488 2.699l1.461-.1c2.193-.15 3.214-1.321 3.064-3.513-.15-2.192-1.321-3.213-3.513-3.064l-1.461.1c-.731.05-1.121-.29-1.171-1.021-.05-.73.29-1.121 1.021-1.17l1.461-.1c.731-.05 1.113.168 1.146.655l2.193-.15c-.134-1.948-1.296-2.848-3.488-2.698Zm-3.389 7.037c-1.128-.545-1.751-1.669-1.867-3.374-.183-2.68 1.065-4.11 3.744-4.294l1.462-.1c1.632-.111 2.921.241 3.867 1.058.951.81 1.492 2.169 1.622 4.073l-2.017.138c.891.429 1.483 1 1.777 1.714a6.93 6.93 0 0 1 .515 2.167c.183 2.68-1.065 4.111-3.745 4.294l-1.461.1c-1.632.111-2.924-.241-3.875-1.057-.946-.812-1.484-2.17-1.615-4.074l2.017-.138a3.115 3.115 0 0 1-.424-.507Zm11.96 5.592-.3-4.384-2.192.149.3 4.385 2.192-.15Zm-2.873.93-.4-5.845 3.654-.25 1.171 1.021.399 5.846-3.653.25-1.171-1.022Zm16.141-11.747c-.15-2.192-1.321-3.213-3.513-3.064l-1.461.1c-2.192.15-3.214 1.32-3.064 3.513l.3 4.384c.149 2.192 1.32 3.214 3.512 3.064l1.462-.1c2.192-.15 3.213-1.321 3.063-3.513l-.025-.365-2.192.15.025.365c.05.731-.29 1.121-1.021 1.171l-1.461.1c-.731.05-1.121-.291-1.171-1.021l-.3-4.385c-.05-.73.291-1.12 1.021-1.17l1.462-.1c.731-.05 1.121.29 1.171 1.02l.025.366 2.192-.15-.025-.365Zm-6.928 8.732c-.911-.794-1.425-2.044-1.541-3.749l-.3-4.384c-.183-2.68 1.065-4.11 3.745-4.294l1.461-.1c1.705-.116 3.013.223 3.924 1.017.911.795 1.424 2.044 1.541 3.75l.075 1.095-3.654.25-1.171-1.021-.025-.366-.731.05c-.243.017-.357.147-.34.391l.249 3.653.731-.05c.244-.016.357-.147.341-.39l-.075-1.096 3.653-.25 1.171 1.021.075 1.097c.183 2.679-1.065 4.11-3.744 4.293l-1.462.1c-1.705.116-3.013-.223-3.923-1.017Zm13.645-12.495-1.461.1c-2.192.15-3.214 1.321-3.064 3.513l.3 4.385c.149 2.192 1.32 3.213 3.512 3.063l1.462-.1c2.192-.149 3.213-1.32 3.064-3.513l-.3-4.384c-.15-2.192-1.321-3.213-3.513-3.063Zm1.321 3.214.299 4.384c.05.731-.29 1.121-1.021 1.171l-1.461.1c-.731.05-1.121-.291-1.171-1.021l-.3-4.385c-.05-.73.291-1.12 1.022-1.17l1.461-.1c.731-.05 1.121.29 1.171 1.02Zm-1.502 4.874.73-.05c.244-.016.357-.146.341-.39l-.25-3.653c-.731.05-1.071.44-1.021 1.17l.2 2.923Zm-3.234 3.708c-.911-.794-1.425-2.044-1.541-3.749l-.3-4.384c-.183-2.68 1.066-4.11 3.745-4.293l1.461-.1c1.705-.117 3.013.222 3.924 1.017.911.794 1.424 2.043 1.541 3.748l.299 4.385c.183 2.679-1.065 4.11-3.744 4.293l-1.462.1c-1.705.117-3.013-.222-3.923-1.017Zm8.896-12.17.748 10.961 7.307-.499-.149-2.192-5.115.349-.599-8.769-2.192.15Zm.067 11.742-.848-12.423 3.654-.25 1.171 1.022.524 7.673 4.019-.275 1.17 1.021.25 3.654-8.769.599-1.171-1.021Zm9.432-12.39.749 10.96 7.307-.499-.15-2.192-5.115.349-.599-8.768-2.192.15Zm.068 11.741-.849-12.422 3.654-.25 1.171 1.021.524 7.673 4.019-.275 1.171 1.021.249 3.654-8.768.599-1.171-1.021Zm12.222-3.772-.149-2.192 4.384-.3-.15-2.191-4.384.3-.15-2.193 5.115-.35-.15-2.192-7.307.5.749 10.96 7.307-.499-.15-2.192-5.115.349Zm4.791-5.099 1.146.656.25 3.654.78.681.25 3.653-8.769.599-1.171-1.021-.848-12.422 8.768-.6 1.171 1.022.25 3.654-1.827.124Zm6.667-4.493-1.461.1c-2.192.15-3.213 1.32-3.064 3.513l.3 4.384c.149 2.192 1.32 3.214 3.513 3.064l1.461-.1c2.192-.15 3.213-1.321 3.064-3.513l-.225-3.288-3.654.25.15 2.192 1.462-.1.074 1.096c.05.731-.29 1.121-1.021 1.171l-1.461.1c-.731.05-1.121-.291-1.171-1.022l-.3-4.384c-.049-.73.291-1.12 1.022-1.17l1.461-.1c.731-.05 1.113.168 1.146.655l2.192-.15c-.133-1.948-1.296-2.847-3.488-2.698Zm.184 8.063-.781-.68.05.73.731-.05Zm3.358-7.806c.883.758 1.386 2.025 1.507 3.803l.275 4.019c.183 2.679-1.065 4.11-3.744 4.294l-1.462.099c-1.583.108-2.799-.205-3.647-.94-.843-.74-1.319-1.902-1.427-3.485l-.299-4.384c-.183-2.68 1.065-4.11 3.744-4.294l1.461-.1c1.515-.103 2.713.226 3.592.989Zm4.73 7.988-.15-2.192 4.384-.3-.149-2.192-4.385.3-.149-2.193 5.115-.35-.15-2.191-7.307.499.748 10.961 7.308-.499-.15-2.193-5.115.35Zm4.79-5.1 1.146.656.25 3.654.781.681.249 3.654-8.768.598-1.171-1.021-.849-12.422 8.769-.599 1.171 1.021.249 3.654-1.827.125Zm6.668-4.492-1.462.1c-2.192.15-3.213 1.32-3.063 3.512.149 2.192 1.32 3.214 3.513 3.064l1.461-.1c.731-.05 1.121.29 1.171 1.021.05.731-.291 1.121-1.021 1.171l-1.462.1c-.73.05-1.112-.169-1.146-.656l-2.192.15c.133 1.948 1.296 2.848 3.488 2.698l1.461-.1c2.193-.149 3.214-1.32 3.064-3.513-.15-2.192-1.321-3.213-3.513-3.063l-1.461.1c-.731.05-1.121-.29-1.171-1.022-.05-.73.29-1.12 1.021-1.17l1.461-.1c.731-.05 1.113.168 1.146.656l2.193-.15c-.133-1.949-1.296-2.848-3.488-2.698Zm-3.388 7.036c-1.129-.544-1.752-1.669-1.868-3.374-.183-2.68 1.065-4.11 3.744-4.293l1.462-.1c1.632-.112 2.921.24 3.867 1.057.952.811 1.492 2.17 1.622 4.074l-2.017.138c.891.428 1.483 1 1.777 1.714.293.714.465 1.436.515 2.167.183 2.679-1.065 4.11-3.745 4.293l-1.461.1c-1.632.112-2.924-.241-3.875-1.057-.946-.811-1.484-2.169-1.615-4.074l2.017-.138a3.039 3.039 0 0 1-.423-.507Zm11.959 5.592-.3-4.384-2.192.15.3 4.384 2.192-.15Zm-2.873.931-.4-5.846 3.654-.25 1.171 1.022.399 5.845-3.653.25-1.171-1.021ZM106.38 128.316c.659.327 1.28.471 1.865.431l-.15-2.192c-.487.033-.756-.316-.806-1.046l-.074-1.096.73-.05-.149-2.192-.731.049-.05-.73-2.192.149.05.731-1.827.125c-.731.05-1.121-.291-1.171-1.021-.05-.731.29-1.121 1.021-1.171l1.096-.075-.15-2.192-1.096.075c-2.192.149-3.213 1.32-3.063 3.512.056.829.291 1.547.705 2.155-.327.658-.462 1.402-.406 2.23.15 2.192 1.321 3.213 3.513 3.063l.731-.049c.828-.057 1.546-.292 2.154-.706Zm-2.304-1.487-.731.05c-.73.05-1.121-.29-1.171-1.021-.05-.731.291-1.121 1.022-1.171l1.826-.125.075 1.096c.05.731-.29 1.121-1.021 1.171Zm1.618-8.553.175 2.558 1.827-.125.78.681.025.365.366-.025.78.681.25 3.654-.731.05.025.365c.017.244.269.349.756.315l.249 3.654c-1.208.083-2.07-.005-2.587-.264-.477.327-1.198.523-2.162.588l-.731.05c-1.705.117-3.013-.222-3.924-1.016-.91-.795-1.424-2.044-1.54-3.749-.066-.965.03-1.706.288-2.222-.326-.477-.522-1.198-.588-2.163-.183-2.679 1.065-4.11 3.744-4.293l1.827-.125 1.171 1.021Zm10.348 5.534 3.653-.25.3 4.384 2.192-.149-.749-10.961-2.192.15.299 4.384-3.653.249-.3-4.384-2.192.15.749 10.961 2.192-.15-.299-4.384Zm3.272 4.915-.225-3.288-1.096.075.3 4.384-3.654.25-1.171-1.022-.848-12.422 3.653-.249 1.171 1.021.225 3.288 1.096-.075-.3-4.384 3.654-.25 1.171 1.021.848 12.423-3.653.249-1.171-1.021Zm7.257-1.23-.749-10.961-2.192.15.749 10.961 2.192-.15Zm-2.873.931-.848-12.423 3.653-.249 1.171 1.021.849 12.422-3.654.25-1.171-1.021Zm9.066-12.366-1.461.1c-2.192.15-3.213 1.321-3.064 3.513l.3 4.384c.149 2.192 1.32 3.214 3.513 3.064l1.461-.1c2.192-.15 3.213-1.321 3.064-3.513l-.225-3.288-3.654.25.15 2.192 1.462-.1.074 1.096c.05.731-.29 1.121-1.021 1.171l-1.461.1c-.731.05-1.121-.291-1.171-1.022l-.3-4.384c-.05-.731.291-1.121 1.022-1.171l1.461-.1c.731-.05 1.113.169 1.146.656l2.192-.149c-.133-1.949-1.296-2.848-3.488-2.699Zm.184 8.063-.781-.681.05.731.731-.05Zm3.358-7.805c.883.757 1.386 2.024 1.507 3.802l.275 4.019c.183 2.679-1.065 4.111-3.744 4.294l-1.462.099c-1.583.109-2.799-.205-3.647-.94-.843-.74-1.319-1.902-1.427-3.485l-.299-4.384c-.183-2.679 1.065-4.111 3.744-4.294l1.461-.099c1.515-.104 2.713.225 3.592.988Zm4.58 5.795 3.654-.25.299 4.384 2.192-.149-.748-10.961-2.193.15.3 4.384-3.654.249-.299-4.384-2.192.15.748 10.961 2.193-.15-.3-4.384Zm3.272 4.915-.224-3.288-1.096.075.299 4.384-3.653.25-1.171-1.022-.849-12.422 3.654-.249 1.171 1.021.224 3.288 1.096-.075-.299-4.384 3.653-.25 1.171 1.021.849 12.423-3.654.249-1.171-1.021Zm9.066-12.365-1.461.1c-2.192.149-3.213 1.32-3.064 3.512.15 2.193 1.321 3.214 3.513 3.064l1.462-.1c.73-.05 1.121.291 1.171 1.021.05.731-.291 1.121-1.022 1.171l-1.461.1c-.731.05-1.113-.169-1.146-.656l-2.192.15c.133 1.949 1.296 2.848 3.488 2.698l1.461-.1c2.192-.149 3.214-1.32 3.064-3.512-.15-2.193-1.321-3.214-3.513-3.064l-1.462.1c-.73.05-1.121-.291-1.17-1.021-.05-.731.29-1.121 1.021-1.171l1.461-.1c.731-.05 1.113.169 1.146.656l2.192-.15c-.133-1.949-1.295-2.848-3.488-2.698Zm-3.388 7.037c-1.128-.545-1.751-1.67-1.867-3.375-.183-2.679 1.065-4.11 3.744-4.293l1.462-.1c1.631-.111 2.921.241 3.867 1.057.951.811 1.492 2.169 1.622 4.074l-2.017.138c.891.428 1.483 1 1.776 1.714a6.87 6.87 0 0 1 .515 2.167c.183 2.679-1.065 4.11-3.744 4.293l-1.461.1c-1.632.112-2.924-.241-3.875-1.056-.947-.812-1.485-2.17-1.615-4.075l2.017-.138a3.065 3.065 0 0 1-.424-.506Zm17.131-4.672c-.149-2.193-1.32-3.214-3.512-3.064l-1.462.1c-2.192.149-3.213 1.32-3.064 3.513l.3 4.384c.15 2.192 1.321 3.213 3.513 3.064l1.461-.1c2.192-.15 3.214-1.321 3.064-3.513l-.025-.365-2.192.149.025.366c.05.73-.291 1.121-1.022 1.171l-1.461.099c-.731.05-1.121-.29-1.171-1.021l-.299-4.384c-.05-.731.29-1.121 1.021-1.171l1.461-.1c.731-.05 1.121.291 1.171 1.021l.025.366 2.192-.15-.025-.365Zm-6.928 8.732c-.911-.795-1.424-2.044-1.541-3.749l-.299-4.384c-.183-2.68 1.065-4.111 3.744-4.294l1.462-.1c1.705-.116 3.013.223 3.923 1.017.911.794 1.425 2.044 1.541 3.749l.075 1.096-3.654.25-1.171-1.022-.025-.365-.73.05c-.244.016-.357.147-.341.39l.25 3.654.731-.05c.243-.017.357-.147.34-.39l-.075-1.097 3.654-.249 1.171 1.021.075 1.096c.183 2.679-1.066 4.111-3.745 4.294l-1.461.099c-1.705.117-3.013-.222-3.924-1.016Zm11.537-5.744 3.654-.249.299 4.384 2.193-.15-.749-10.96-2.192.149.299 4.385-3.653.249-.3-4.384-2.192.15.749 10.96 2.192-.149-.3-4.385Zm3.273 4.916-.225-3.289-1.096.075.299 4.385-3.653.249-1.171-1.021-.849-12.422 3.654-.25 1.171 1.021.224 3.289 1.097-.075-.3-4.385 3.654-.249 1.171 1.021.848 12.422-3.653.25-1.171-1.021Zm9.066-12.366-1.462.1c-2.192.15-3.213 1.321-3.063 3.513l.299 4.384c.15 2.193 1.321 3.214 3.513 3.064l1.461-.1c2.193-.15 3.214-1.32 3.064-3.513l-.299-4.384c-.15-2.192-1.321-3.213-3.513-3.064Zm1.32 3.214.3 4.384c.05.731-.291 1.121-1.021 1.171l-1.462.1c-.731.05-1.121-.291-1.171-1.021l-.299-4.385c-.05-.73.29-1.121 1.021-1.171l1.461-.099c.731-.05 1.121.29 1.171 1.021Zm-1.502 4.874.731-.05c.243-.016.357-.146.34-.39l-.249-3.654c-.731.05-1.072.441-1.022 1.171l.2 2.923Zm-3.234 3.708c-.911-.794-1.424-2.044-1.541-3.749l-.299-4.384c-.183-2.679 1.065-4.11 3.744-4.293l1.462-.1c1.705-.117 3.013.222 3.923 1.016.911.795 1.425 2.044 1.541 3.749l.3 4.385c.183 2.679-1.065 4.11-3.745 4.293l-1.461.1c-1.705.116-3.013-.223-3.924-1.017Zm13.646-12.494-1.462.099c-2.192.15-3.213 1.321-3.063 3.513l.299 4.385c.15 2.192 1.321 3.213 3.513 3.063l1.461-.1c2.193-.149 3.214-1.32 3.064-3.512l-.299-4.385c-.15-2.192-1.321-3.213-3.513-3.063Zm1.32 3.213.3 4.384c.05.731-.291 1.121-1.021 1.171l-1.462.1c-.73.05-1.121-.29-1.171-1.021l-.299-4.384c-.05-.731.29-1.121 1.021-1.171l1.461-.1c.731-.05 1.122.29 1.171 1.021Zm-1.502 4.874.731-.049c.243-.017.357-.147.34-.391l-.249-3.653c-.731.05-1.072.44-1.022 1.171l.2 2.922Zm-3.234 3.708c-.911-.794-1.424-2.043-1.541-3.748l-.299-4.385c-.183-2.679 1.065-4.11 3.744-4.293l1.462-.1c1.705-.117 3.013.222 3.923 1.017.911.794 1.425 2.044 1.541 3.749l.3 4.384c.183 2.679-1.065 4.11-3.745 4.293l-1.461.1c-1.705.117-3.013-.222-3.924-1.017Zm8.896-12.17.749 10.961 7.307-.499-.15-2.192-5.115.349-.599-8.768-2.192.149Zm.068 11.742-.848-12.423 3.653-.249 1.171 1.021.524 7.673 4.019-.275 1.171 1.021.25 3.654-8.769.599-1.171-1.021Zm14.181-12.715-1.461.1c-2.192.15-3.214 1.321-3.064 3.513.15 2.192 1.321 3.213 3.513 3.063l1.461-.1c.731-.049 1.121.291 1.171 1.022.05.73-.29 1.121-1.021 1.171l-1.461.099c-.731.05-1.113-.168-1.146-.655l-2.192.149c.133 1.949 1.295 2.848 3.487 2.699l1.462-.1c2.192-.15 3.213-1.321 3.063-3.513-.149-2.192-1.32-3.213-3.512-3.064l-1.462.1c-.731.05-1.121-.29-1.171-1.021-.05-.731.291-1.121 1.021-1.171l1.462-.1c.731-.05 1.113.169 1.146.656l2.192-.15c-.133-1.948-1.296-2.848-3.488-2.698Zm-3.388 7.037c-1.129-.545-1.751-1.669-1.868-3.374-.183-2.68 1.066-4.111 3.745-4.294l1.461-.1c1.632-.111 2.921.241 3.868 1.058.951.811 1.492 2.169 1.622 4.073l-2.017.138c.89.429 1.483 1 1.776 1.714.294.714.465 1.437.515 2.167.183 2.68-1.065 4.111-3.744 4.294l-1.462.1c-1.632.111-2.923-.241-3.875-1.057-.946-.812-1.484-2.17-1.614-4.074l2.017-.138a3.065 3.065 0 0 1-.424-.507Z"/></svg>