<svg xmlns="http://www.w3.org/2000/svg" width="201" height="139" fill="none"><g clip-path="url(#a)"><path fill="#F7F7F7" d="M14.95 92.72c8.557-27.813-2.851-46.89-9.625-52.953 40.642-1.283 49.02-21.573 48.128-31.558 13.69 19.256 57.041 13.016 77.006 7.489-10.268 27.386 33.511 45.286 56.684 50.813-29.091 23.535-19.607 44.04-11.23 51.349-36.791-10.269-52.762 7.845-56.15 18.186-14.545-21.823-40.285-14.798-51.337-8.558-5.561-38.083-37.967-39.046-53.475-34.767Z"/><path stroke="#000" d="M11.988 23.205c10.517 1.426 31.658-.32 32.085-18.72M1.293 48.88c5.169 5.348 13.796 18.827 6.952 29.953m20.32 24.07c9.626.178 28.77 5.349 28.343 24.604m29.946 2.14c6.417-1.426 20.428-1.712 25.134 8.558m17.647-3.744c4.634-7.31 19.786-19.149 43.315-8.023m6.952-28.884c-2.852-5.706-2.78-18.828 20.321-25.675m-8.556-19.79c-4.278 3.03-16.15 6.311-29.412-4.814M151.56 37.112c-6.417-1.248-17.968-7.06-12.834-20.326m-43.85-7.488c-8.735 3.21-28.557 6.205-37.968-7.488M6.105 39.786c6.774 6.063 18.182 25.14 9.626 52.954 15.508-4.28 47.915-3.316 53.476 34.767 11.052-6.24 36.792-13.265 51.337 8.559 3.387-10.342 19.358-28.456 56.15-18.187-8.378-7.309-17.861-27.814 11.23-51.348-23.174-5.528-66.952-23.428-56.685-50.814-19.965 5.527-63.315 11.767-77.005-7.489.891 9.985-7.487 30.275-48.129 31.558Z"/><path fill="#000" d="m32.02 49.59.202-.755-2.265-.604-.201.755c-2.076-.3-3.384.564-3.925 2.592-.604 2.265.227 3.699 2.491 4.302l1.51.403c.755.201 1.032.68.83 1.434-.2.755-.679 1.032-1.434.83l-1.51-.402c-.755-.201-1.065-.553-.93-1.057l-2.265-.603c-.474 1.776.264 3.051 2.214 3.824l-.201.755 2.265.604.2-.755c2.077.3 3.385-.564 3.926-2.592.604-2.265-.227-3.699-2.491-4.303l-1.51-.402c-.755-.201-1.032-.68-.83-1.434.2-.755.679-1.032 1.434-.83l1.51.402c.754.201 1.065.553.93 1.056l2.265.604c.474-1.776-.264-3.051-2.214-3.824Zm-6.22 5.836c-.953-.938-1.194-2.288-.724-4.05.659-2.47 2.026-3.556 4.102-3.256l.226-.845 3.774 1.006-.225.846c.385.151.72.342 1.003.574l.052.014-.006.023c.474.407.943.963 1.407 1.669.692.863.762 2.33.21 4.398l-2.083-.556c.086.163.234.345.444.547.825 1.012 1.002 2.4.532 4.16-.658 2.471-2.026 3.557-4.102 3.257l-.225.845-3.775-1.006.226-.846a3.706 3.706 0 0 1-1.003-.574l-.053-.014.006-.023c-.474-.407-.92-.849-1.336-1.326-.739-1.092-.832-2.672-.28-4.74l2.082.555a3.257 3.257 0 0 1-.253-.658Zm16.412-3.12-1.51-.402c-2.265-.604-3.699.227-4.303 2.491-.228.856-.238 1.662-.03 2.418-.557.552-.95 1.256-1.177 2.112-.604 2.264.226 3.699 2.491 4.302l1.51.403c2.264.604 3.699-.227 4.302-2.491.229-.856.239-1.662.03-2.418.557-.552.95-1.256 1.178-2.112.604-2.264-.227-3.699-2.491-4.302ZM40.4 59.102c.755.2 1.032.679.83 1.434-.2.755-.679 1.032-1.433.83l-1.51-.402c-.755-.202-1.032-.68-.83-1.434.2-.755.679-1.032 1.434-.83l1.51.402Zm2.038-3.096c-.201.755-.68 1.032-1.434.831l-1.51-.402c-.755-.202-1.031-.68-.83-1.435.201-.755.68-1.031 1.434-.83l1.51.402c.755.202 1.032.68.83 1.434Zm-7.737 7.034c-.646-1.116-.734-2.554-.264-4.316.265-.996.618-1.71 1.056-2.143-.165-.594-.114-1.39.151-2.386.738-2.768 2.491-3.783 5.26-3.045l1.509.403c1.761.47 2.965 1.262 3.61 2.377.647 1.116.735 2.554.265 4.316-.265.996-.618 1.71-1.056 2.144.165.593.114 1.389-.151 2.385-.738 2.768-2.491 3.783-5.26 3.045l-1.509-.403c-1.761-.47-2.965-1.262-3.61-2.377Zm11.814 4.969 1.208-4.53-2.265-.603-1.207 4.529 2.264.604Zm-3.22-.05 1.61-6.04 3.774 1.007.83 1.434-1.61 6.04-3.774-1.007-.83-1.434Zm14.014-11.626-1.51-.403c-2.264-.604-3.698.227-4.302 2.492-.228.855-.238 1.661-.03 2.417-.557.553-.95 1.256-1.178 2.112-.604 2.265.227 3.699 2.492 4.302l1.51.403c2.264.604 3.698-.227 4.302-2.491.228-.856.238-1.662.03-2.418.557-.552.95-1.256 1.178-2.111.603-2.265-.227-3.7-2.492-4.303Zm-1.811 6.794c.755.201 1.032.68.83 1.434-.2.755-.679 1.032-1.434.83l-1.51-.402c-.755-.201-1.031-.68-.83-1.434.201-.755.68-1.032 1.434-.83l1.51.402Zm2.038-3.095c-.201.755-.68 1.031-1.434.83l-1.51-.402c-.755-.202-1.032-.68-.83-1.435.2-.755.679-1.031 1.434-.83l1.51.402c.754.202 1.031.68.83 1.435Zm-7.737 7.033c-.646-1.115-.734-2.554-.265-4.315.266-.997.618-1.711 1.057-2.144-.165-.594-.115-1.39.151-2.386.738-2.767 2.49-3.782 5.259-3.045l1.51.403c1.76.47 2.964 1.262 3.61 2.378.646 1.115.734 2.553.265 4.315-.266.996-.618 1.711-1.057 2.144.165.594.115 1.389-.15 2.385-.739 2.768-2.492 3.783-5.26 3.045l-1.51-.402c-1.76-.47-2.964-1.262-3.61-2.378Zm18.079-7.915-1.51-.402c-2.265-.604-3.699.227-4.303 2.491l-1.207 4.53c-.604 2.264.226 3.698 2.491 4.302l1.51.403c2.264.603 3.699-.227 4.302-2.492l1.208-4.529c.604-2.265-.227-3.699-2.491-4.303Zm.226 3.7-1.207 4.529c-.202.754-.68 1.031-1.434.83l-1.51-.403c-.755-.2-1.032-.679-.83-1.434l1.207-4.529c.201-.755.68-1.032 1.434-.83l1.51.402c.755.201 1.031.68.83 1.434Zm-3.195 4.403.755.201c.251.067.41-.025.478-.277l1.006-3.774c-.755-.201-1.233.075-1.434.83l-.805 3.02Zm-4.542 2.63c-.646-1.116-.734-2.554-.264-4.316l1.207-4.529c.738-2.768 2.491-3.783 5.26-3.045l1.509.403c1.761.47 2.965 1.262 3.61 2.377.647 1.116.735 2.554.265 4.316l-1.207 4.529c-.738 2.768-2.491 3.783-5.26 3.045l-1.509-.403c-1.761-.47-2.965-1.262-3.61-2.377Zm18.079-7.915-1.51-.402c-2.265-.604-3.699.226-4.302 2.49l-1.208 4.53c-.604 2.265.227 3.699 2.491 4.303l1.51.402c2.265.604 3.699-.226 4.303-2.491l1.207-4.53c.604-2.264-.226-3.698-2.491-4.302Zm.227 3.699-1.208 4.53c-.201.754-.68 1.03-1.434.83l-1.51-.403c-.755-.201-1.032-.68-.83-1.434l1.207-4.53c.202-.754.68-1.031 1.434-.83l1.51.403c.755.2 1.032.679.83 1.434Zm-3.196 4.404.755.2c.252.068.411-.024.478-.276l1.007-3.775c-.755-.2-1.233.076-1.435.83l-.805 3.02Zm-4.541 2.63c-.646-1.116-.735-2.555-.265-4.316l1.208-4.53c.738-2.767 2.49-3.782 5.258-3.044l1.51.402c1.762.47 2.965 1.262 3.611 2.378.646 1.115.734 2.554.265 4.315l-1.208 4.53c-.738 2.767-2.49 3.782-5.259 3.044l-1.51-.402c-1.76-.47-2.965-1.262-3.61-2.378Zm16.252 3.726 3.019-11.323-2.265-.604-3.018 11.323 2.264.604Zm-3.22-.05 3.42-12.833 3.775 1.006.83 1.434-3.42 12.833-3.775-1.006-.83-1.434Zm9.569-5.567 1.759 7.778 2.46.656 3.019-11.323-2.264-.604-1.82 6.825-1.758-7.779-2.461-.656-3.02 11.324 2.266.603 1.819-6.824Zm1.104 8.412-.61-2.685-.93 3.488-3.774-1.007-.83-1.434 3.421-12.833 3.669.978.83 1.434.61 2.686.93-3.488 3.775 1.007.83 1.434-3.421 12.833-3.67-.978-.83-1.435Zm12.234-9.675-3.019 11.324 2.265.603 1.207-4.529 2.642.704c2.265.604 3.699-.226 4.303-2.49.604-2.266-.227-3.7-2.491-4.303l-4.907-1.309Zm1.661 2.869 2.642.704c.755.201 1.031.68.83 1.434-.201.755-.679 1.032-1.434.83l-2.642-.704.604-2.264Zm-5.636 9.008 3.421-12.833 5.662 1.51c1.761.47 2.965 1.262 3.611 2.377.646 1.116.734 2.554.264 4.316-.738 2.767-2.491 3.782-5.259 3.044l-1.887-.503-1.207 4.53-3.775-1.007-.83-1.434Zm14.543-9.06-3.019 11.324 2.265.604 1.208-4.53 1.056.282 1.412 5.228 2.612.696-1.426-5.296c1.729-.056 2.826-.955 3.29-2.696.604-2.265-.226-3.7-2.491-4.303l-4.907-1.308Zm1.661 2.87 2.642.704c.755.201 1.032.68.831 1.434-.202.755-.68 1.032-1.435.83l-2.642-.704.604-2.265Zm7.058.062c.646 1.115.734 2.554.265 4.315-.564 2.114-1.575 3.197-3.034 3.25l1.527 5.647-4.363-1.164-.831-1.434-.727-2.7-.926 3.472-3.774-1.006-.831-1.434 3.422-12.833 5.661 1.51c1.762.469 2.965 1.261 3.611 2.377Zm1.095 11.814 3.019-11.324-2.264-.603-3.019 11.323 2.264.604Zm-3.22-.05 3.421-12.834 3.774 1.007.831 1.434-3.422 12.833-3.774-1.006-.83-1.435Zm12.527-7.172-7.065 7.82 7.949 2.119.604-2.265-4.25-1.133 7.065-7.82-7.949-2.118-.604 2.264 4.25 1.133Zm-8.504 8.244 6.182-6.841-2.053-.548-.831-1.434 1.007-3.775 9.941 2.651.831 1.434-6.182 6.842 2.053.547.831 1.434-1.007 3.775-9.942-2.65-.83-1.435Zm14.899.738.604-2.265 4.529 1.208.604-2.265-4.53-1.207.604-2.265 5.284 1.409.604-2.265-7.549-2.012-3.019 11.323 7.549 2.012.604-2.264-5.284-1.409Zm6.592-3.498.931 1.057-1.006 3.774.553.956-1.006 3.775-9.058-2.415-.831-1.434 3.422-12.834 9.058 2.416.831 1.434-1.007 3.774-1.887-.503Zm8.278-2.24-1.509-.402c-2.265-.604-3.699.226-4.303 2.49-.604 2.266.227 3.7 2.491 4.304l1.51.402c.755.201 1.032.68.831 1.434-.202.755-.68 1.032-1.435.83l-1.509-.402c-.755-.201-1.066-.553-.932-1.056l-2.264-.604c-.537 2.013.327 3.321 2.592 3.925l1.51.402c2.264.604 3.698-.226 4.302-2.49.604-2.266-.227-3.7-2.491-4.304l-1.51-.402c-.755-.201-1.032-.68-.83-1.434.201-.755.679-1.032 1.434-.83l1.51.402c.754.201 1.065.553.931 1.057l2.264.603c.537-2.013-.327-3.321-2.592-3.925Zm-5.844 5.937c-.951-.938-1.193-2.288-.723-4.05.738-2.767 2.491-3.782 5.259-3.044l1.51.402c1.686.45 2.866 1.25 3.54 2.4.681 1.146.759 2.703.234 4.67l-2.083-.555c.751.74 1.152 1.52 1.203 2.342.05.822-.025 1.61-.227 2.365-.737 2.768-2.49 3.783-5.258 3.046l-1.51-.403c-1.686-.45-2.869-1.25-3.548-2.401-.676-1.145-.751-2.702-.227-4.67l2.084.556a3.3 3.3 0 0 1-.254-.658Z"/></g><defs><clipPath id="a"><path fill="#fff" d="M.4.91h200v138H.4z"/></clipPath></defs></svg>