<svg xmlns="http://www.w3.org/2000/svg" width="229" height="138" fill="none"><g clip-path="url(#a)"><path fill="#F7F7F7" d="m158.01 94.629 42.938 3.942-10.878-9.857-10.877-9.857 4.58-.912 42.937-8.55-22.327-5.357-28.625-6.867 6.344-5.125 23.426-18.926-16.603 2.067-30.915 3.847-.572-7.491-1.718-22.474-2.417 1.577-30.215 19.714-4.402-3.549-19.071-15.377-9.501 16.955-3.094 5.52L45.429 21.29 38.93 19.32l11.14 16.166 4.89 7.097-39.932 2.366-13.31.788L34.35 63.915l6.297 3.508-16.495 13.406 50.846-1.183-10.444 9.651L53.09 104.88l-2.71 3.683 50.38-20.243 10.305 35.029 13.74-22.412 6.298-10.646 32.408 17.349-5.501-13.011Z"/><path fill="#000" d="M45.429 21.291 87.02 33.91l3.094-5.52-49.467-14.983 4.782 7.885ZM54.96 42.583l-4.89-7.097-46.635 2.76 11.593 6.703 39.932-2.366ZM40.648 67.423l-6.298-3.508-20.61 16.914h10.412l16.495-13.406ZM64.692 89.109l-6.297.188-13.168 18.343 7.863-2.76 11.464-15.583.138-.188ZM179.193 78.857l10.877 9.857h5.153l-11.45-10.769-4.58.912ZM175.757 57.171l28.625 6.867 13.74-2.924-36.02-9.068-6.345 5.125ZM158.01 39.034l30.915-3.847 10.305-8.376-41.792 4.732.572 7.491ZM123.087 30.36l30.216-19.714V1.577l-34.617 25.234 4.401 3.549Z"/><path fill="#000" d="m24.152 80.829-12.13 9.857 46.373-1.389 6.297-.188-.138.188 10.444-9.651-50.846 1.183ZM92.172 99.754l10.878 36.669 8.015-13.074L100.76 88.32l-50.38 20.243-7.443 10.117 49.236-18.926ZM124.805 100.937l46.372 24.84-7.666-18.137-32.409-17.349-6.297 10.646Z"/><path stroke="#000" d="m124.805 100.937 46.373 24.84-7.667-18.137m-38.706-6.703-13.74 22.412m13.74-22.412 6.298-10.646 32.408 17.349m0 0-5.501-13.011 42.938 3.942-10.878-9.857m-79.005 34.635-8.015 13.074-10.877-36.669-49.236 18.926 7.443-10.117m60.685 14.786L100.76 88.32l-50.38 20.243m139.69-19.849-10.877-9.857 4.58-.912m6.297 10.77h5.153l-11.45-10.77m0 0 42.937-8.55-22.327-5.357m0 0-28.625-6.867 6.344-5.125m22.281 11.992 13.74-2.924-36.021-9.068m0 0 23.426-18.926-16.603 2.067m0 0-30.915 3.847-.572-7.491m31.487 3.644 10.305-8.376-41.792 4.732m0 0L155.72 9.069l-2.417 1.577m0 0L123.088 30.36l-4.402-3.549m34.617-16.165V1.577l-34.617 25.234m0 0L99.615 11.434 90.114 28.39m0 0-3.094 5.52L45.429 21.29m44.685 7.098L40.647 13.406l4.782 7.885m0 0L38.93 19.32l11.14 16.166m0 0 4.89 7.097-39.932 2.366m35.041-9.463-46.634 2.76 11.593 6.703m0 0-13.31.788L34.35 63.915m0 0 6.297 3.508-16.495 13.406M34.35 63.915 13.74 80.829h10.412m0 0-12.13 9.857 46.373-1.389m-34.243-8.468 50.846-1.183-10.444 9.651m-6.159 0 6.297-.188-.138.188m-6.159 0L45.227 107.64l7.863-2.76m11.464-15.583L53.09 104.88m0 0-2.71 3.683"/><path fill="#000" d="m58.846 59.444-1.555.153c-2.332.231-3.383 1.513-3.152 3.845l.46 4.665c.232 2.332 1.513 3.383 3.846 3.152l1.554-.154c2.333-.23 3.384-1.512 3.153-3.844-.23-2.332-1.512-3.383-3.845-3.153l-1.555.154c-.259.026-.644.098-1.156.216l-.125-1.267c-.077-.777.273-1.204 1.05-1.281l1.556-.154c.777-.077 1.192.144 1.243.662l2.332-.23c-.205-2.074-1.474-2.995-3.806-2.764Zm.923 9.33-1.555.153c-.778.077-1.205-.274-1.282-1.051-.077-.778.274-1.205 1.051-1.282l1.555-.153c.778-.077 1.205.273 1.282 1.05.076.778-.274 1.205-1.051 1.282Zm-4.182 3.357c-.997-.818-1.585-2.133-1.765-3.947l-.46-4.665c-.283-2.85 1.002-4.417 3.852-4.7l1.555-.153c1.736-.172 3.122.162 4.158 1.002 1.04.834 1.66 2.264 1.861 4.29l-2.146.213c1.533.895 2.39 2.25 2.569 4.064.282 2.85-1.002 4.417-3.853 4.699l-1.555.154c-1.814.179-3.22-.14-4.216-.957Zm13.742-1.948 1.555-.154c2.332-.23 3.383-1.512 3.152-3.845l-.077-.777c-.23-2.332-1.512-3.383-3.844-3.153l-1.555.154a10 10 0 0 0-1.156.216l-.164-1.655 6.22-.616-.231-2.332-8.552.846.692 6.997 2.332-.23c-.051-.519.312-.817 1.09-.894l1.555-.153c.777-.077 1.204.273 1.281 1.05l.077.778c.077.777-.273 1.205-1.05 1.281l-1.556.154c-.777.077-1.192-.143-1.243-.662l-2.332.23c.205 2.074 1.474 2.995 3.806 2.765Zm1.598-3.691-.778.077c-.181.018-.288.16-.32.424l.747-.074c.26-.025.376-.168.35-.427Zm4.284-8.275.385 3.888-2.146.212c1.533.895 2.389 2.25 2.568 4.064l.077.777c.282 2.851-1.002 4.417-3.853 4.7l-1.555.153c-1.736.172-3.125-.162-4.165-1.001-1.035-.835-1.653-2.265-1.854-4.292l-.846-8.552 10.108-1 1.281 1.052Zm4.3-.817 1.153 11.662 2.332-.231-.46-4.665 2.72-.269c2.333-.23 3.383-1.512 3.153-3.844-.23-2.333-1.512-3.384-3.845-3.153l-5.053.5Zm2.563 2.101 2.72-.269c.778-.077 1.206.274 1.282 1.051.077.778-.273 1.205-1.05 1.282l-2.721.269-.231-2.333Zm-2.11 10.415-1.308-13.217 5.831-.576c1.814-.18 3.22.139 4.217.956.996.818 1.584 2.133 1.764 3.947.282 2.851-1.003 4.417-3.853 4.7l-1.944.192.461 4.664-3.887.385-1.281-1.051Zm10.431-13.593 1.154 11.662 2.332-.23-.461-4.665 1.088-.108 3.16 4.398 2.689-.266-3.196-4.457c1.599-.66 2.31-1.888 2.132-3.681-.23-2.332-1.512-3.383-3.844-3.153l-5.054.5Zm2.563 2.102 2.721-.27c.778-.076 1.205.274 1.282 1.052.077.777-.274 1.204-1.051 1.281l-2.721.27-.23-2.333Zm6.63-2.422c.997.817 1.585 2.133 1.764 3.947.215 2.177-.35 3.546-1.697 4.109l3.413 4.75-4.493.444-1.282-1.051-1.63-2.272.354 3.576-3.888.384-1.281-1.05-1.307-13.217 5.83-.577c1.815-.18 3.22.14 4.217.957Zm6.745-1.256-1.555.154c-2.332.23-3.383 1.512-3.152 3.844l.461 4.665c.231 2.332 1.512 3.383 3.845 3.153l1.554-.154c2.333-.23 3.384-1.513 3.153-3.845l-.461-4.665c-.231-2.332-1.513-3.383-3.845-3.152Zm1.512 3.383.462 4.665c.076.777-.274 1.204-1.051 1.281l-1.555.154c-.778.077-1.205-.273-1.282-1.05l-.461-4.665c-.077-.778.273-1.205 1.051-1.282l1.555-.154c.777-.077 1.204.274 1.281 1.051Zm-1.444 5.246.778-.077c.259-.026.376-.168.35-.427l-.384-3.888c-.778.077-1.128.505-1.051 1.282l.307 3.11Zm-3.327 4.058c-.997-.817-1.585-2.133-1.765-3.947l-.461-4.665c-.282-2.85 1.003-4.417 3.853-4.699l1.555-.154c1.814-.179 3.22.14 4.216.957.997.818 1.585 2.133 1.765 3.947l.461 4.665c.282 2.85-1.002 4.417-3.853 4.7l-1.555.153c-1.814.18-3.22-.14-4.216-.957Zm16.117-5.716c.077.778-.273 1.205-1.051 1.282l-1.555.154c-.777.076-1.204-.274-1.281-1.051l-.039-.389-2.332.23.038.39c.231 2.332 1.513 3.383 3.845 3.152l1.555-.154c2.332-.23 3.383-1.512 3.152-3.844l-.807-8.164-2.332.231.807 8.163Zm-1.905.581.777-.077c.259-.025.376-.168.351-.427l-.885-8.94 3.888-.385 1.281 1.05.884 8.942c.282 2.85-1.002 4.417-3.853 4.698l-1.555.154c-1.814.18-3.219-.14-4.216-.956-.997-.818-1.585-2.133-1.764-3.948l-.115-1.166 3.887-.384 1.281 1.05.039.39Zm9.017-.106-.23-2.333 4.664-.461-.23-2.333-4.665.462-.231-2.333 5.443-.538-.231-2.332-7.775.769 1.154 11.661 7.774-.768-.23-2.333-5.443.538Zm4.943-5.592 1.243.662.384 3.887.855.7.384 3.888-9.329.923-1.282-1.051-1.307-13.217 9.329-.923 1.282 1.051.384 3.887-1.943.193Zm10.807-1.854c-.23-2.333-1.512-3.383-3.844-3.153l-1.555.154c-2.333.23-3.383 1.512-3.153 3.845l.462 4.664c.23 2.333 1.512 3.384 3.844 3.153l1.555-.154c2.333-.23 3.383-1.512 3.153-3.845l-.039-.388-2.332.23.038.39c.077.777-.273 1.204-1.051 1.28l-1.554.154c-.778.077-1.205-.273-1.282-1.05l-.461-4.665c-.077-.778.273-1.205 1.051-1.282l1.554-.153c.778-.077 1.205.273 1.282 1.05l.038.39 2.333-.231-.039-.39Zm-7.104 9.534c-.996-.817-1.584-2.133-1.764-3.947l-.461-4.665c-.282-2.85 1.002-4.416 3.853-4.698l1.555-.154c1.814-.18 3.219.14 4.216.957.997.817 1.585 2.133 1.764 3.947l.116 1.166-3.888.384-1.281-1.05-.039-.39-.777.078c-.259.025-.376.168-.35.427l.384 3.887.778-.077c.259-.025.375-.168.35-.427l-.115-1.166 3.887-.385 1.281 1.051.116 1.166c.282 2.851-1.003 4.417-3.853 4.7l-1.555.153c-1.814.18-3.22-.14-4.217-.957Zm14.764-11.47 3.109-.307-.23-2.332-8.552.846.23 2.332 3.11-.308.923 9.33 2.332-.23-.922-9.33Zm-6.143 1.393-.385-3.887 10.107-1 1.282 1.051.384 3.887-3.11.308.923 9.33-3.887.384-1.282-1.05-.807-8.164-1.944.192-1.281-1.05Zm16.408-4.763-1.555.154c-2.333.23-3.384 1.512-3.153 3.845.231 2.332 1.512 3.383 3.845 3.152l1.555-.154c.777-.077 1.204.274 1.281 1.051.077.778-.273 1.205-1.051 1.282l-1.555.154c-.777.076-1.191-.144-1.243-.663l-2.332.231c.205 2.073 1.474 2.994 3.806 2.764l1.555-.154c2.332-.23 3.383-1.512 3.152-3.845-.23-2.332-1.512-3.383-3.844-3.152l-1.555.154c-.777.077-1.205-.274-1.282-1.051-.076-.778.274-1.205 1.051-1.282l1.555-.153c.778-.077 1.192.143 1.243.662l2.333-.231c-.205-2.073-1.474-2.994-3.806-2.764Zm-3.385 7.612c-1.221-.543-1.921-1.722-2.1-3.536-.282-2.851 1.002-4.418 3.853-4.7l1.555-.153c1.736-.172 3.122.162 4.157 1.002 1.041.834 1.661 2.264 1.862 4.29l-2.146.213c.963.428 1.613 1.018 1.949 1.77a7.35 7.35 0 0 1 .619 2.294c.282 2.85-1.002 4.416-3.853 4.698l-1.555.154c-1.736.172-3.124-.162-4.165-1-1.035-.835-1.653-2.266-1.853-4.293l2.145-.212a3.296 3.296 0 0 1-.468-.526Z"/></g><defs><clipPath id="a"><path fill="#fff" d="M0 0h229v138H0z"/></clipPath></defs></svg>