<svg xmlns="http://www.w3.org/2000/svg" width="192" height="138" fill="none"><g clip-path="url(#a)"><path fill="#000" fill-rule="evenodd" d="M16.415 11.417C32.663 26.31 52.228 55.796.497 54.604c21.72 6.62 54.02 29.983 9.451 70.49 19.73-10.425 52.527-23.034 25.865 9.928 17.741-13.569 56.407-34.55 69.14-9.928-1.326-10.094 7.76-21.644 54.715 12.906-12.601-16.215-23.875-46.96 31.835-40.209-21.058-9.597-52.328-37.627-8.954-72.97-19.73 9.1-52.228 19.855-24.373-9.929C143.42 26.144 116.891 38.918 128.829 0c-11.44 15.389-40.688 38.62-66.155 8.439 6.134 13.734 5.471 33.557-46.26 2.978Zm-1.99 46.166C47.85 56.39 40.953 35.245 33.326 24.82c30.64 14.694 35.648 1.49 34.322-6.95 19.503 19.464 41.301 8.23 52.228-1.929a45.927 45.927 0 0 0 2.984-3.035c-2.785 21.842 12.767 19.03 20.891 14.893-6.367 15.885 11.275 12.244 20.892 8.438-21.489 27.402-.995 49.475 11.937 57.087-34.221-.397-33.16 20.352-28.352 30.777a144.267 144.267 0 0 0-3.509-2.482 126.864 126.864 0 0 0-3.455-2.284c-25.809-16.429-35.625-8.051-37.305-1.191-13.928-17.871-41.949-6.123-54.218 1.986 4.377-17.077-14.425-11.418-24.373-6.454 23.08-28.99 2.321-49.475-10.943-56.093Z" clip-rule="evenodd"/><path fill="#C3C3C3" d="M33.326 24.82c7.627 10.425 14.525 31.571-18.901 32.763 18.736 2.813 49.84 1.191 24.373-27.799 12.435 8.108 35.813 17.97 29.844-7.446 10.115 10.297 34.521 23.433 51.234-6.397-10.927 10.16-32.725 21.393-52.228 1.93 1.326 8.438-3.681 21.643-34.322 6.95ZM148.228 124.101c-4.808-10.425-5.869-31.174 28.352-30.777-17.096-3.31-47.402-2.284-31.861 28.295 1.14.781 2.31 1.607 3.509 2.482ZM103.959 118.144c1.68-6.86 11.496-15.238 37.305 1.191-26.263-28.831-35.813-12.807-37.305-1.191Z"/><path fill="#F7F7F7" d="M14.425 57.583c13.264 6.618 34.023 27.103 10.943 56.093 9.948-4.964 28.75-10.623 24.373 6.453 12.27-8.108 40.29-19.856 54.218-1.985 1.492-11.616 11.042-27.64 37.305 1.191 1.121.714 2.272 1.475 3.455 2.284-15.541-30.579 14.765-31.605 31.861-28.295-12.932-7.612-33.426-29.685-11.938-57.087-9.616 3.806-27.258 7.447-20.891-8.438-8.124 4.136-23.676 6.95-20.891-14.893a45.927 45.927 0 0 1-2.984 3.035c-16.713 29.83-41.12 16.694-51.234 6.397 5.97 25.416-17.409 15.554-29.844 7.446 25.467 28.99-5.637 30.612-24.373 27.799Z"/><path fill="#000" d="M80.759 51.103c.215-.802.723-1.096 1.525-.88l1.603.429c.802.215 1.096.723.88 1.525-.214.802-.722 1.095-1.524.88l-1.203-.322-.644 2.405 1.202.323c.802.214 1.096.723.88 1.524-.214.802-.722 1.096-1.524.881l-1.604-.43c-.802-.215-1.095-.723-.88-1.525l.107-.4-2.405-.645-.108.4c-.644 2.406.236 3.931 2.642 4.576l1.603.43c2.406.644 3.93-.236 4.575-2.642.244-.909.255-1.765.035-2.569.593-.586 1.01-1.333 1.254-2.242.645-2.405-.236-3.93-2.641-4.575l-1.604-.43c-2.405-.644-3.93.237-4.575 2.642l-.107.401 2.405.645.108-.401Zm7.821-1.127c.685 1.186.777 2.714.275 4.585-.283 1.059-.658 1.817-1.125 2.277.174.63.12 1.475-.164 2.534-.787 2.94-2.651 4.016-5.591 3.228l-1.604-.43c-1.87-.5-3.148-1.345-3.833-2.53-.685-1.187-.777-2.715-.275-4.586l.322-1.203 4.009 1.075.322-1.203-2.806-.752-.88-1.525.322-1.203c.787-2.94 2.651-4.016 5.591-3.228l1.604.43c1.87.501 3.148 1.345 3.833 2.53Zm2.35 12.875 1.604.43c2.406.645 3.93-.236 4.575-2.641l.215-.802c.645-2.405-.236-3.93-2.641-4.575l-1.604-.43a10.593 10.593 0 0 0-1.23-.218l.457-1.707 6.415 1.718.644-2.405-8.82-2.363-1.933 7.216 2.405.644c.143-.534.616-.694 1.418-.48l1.603.43c.802.215 1.096.724.88 1.526l-.214.801c-.215.802-.723 1.096-1.525.88l-1.604-.429c-.802-.215-1.13-.59-.988-1.124l-2.405-.645c-.573 2.139.343 3.53 2.749 4.174Zm2.972-3.07-.802-.215c-.187-.05-.346.05-.476.302l.77.206c.267.072.436-.026.508-.293Zm7.36-6.622-1.074 4.009-2.213-.593c1.189 1.464 1.533 3.132 1.031 5.003l-.215.802c-.787 2.94-2.651 4.016-5.591 3.228l-1.604-.43c-1.79-.48-3.046-1.332-3.766-2.556-.717-1.217-.795-2.871-.235-4.961l2.363-8.82 10.424 2.793.88 1.525Zm5.72 1.103-1.604-.43c-2.405-.644-3.93.236-4.574 2.642l-1.29 4.81c-.644 2.406.237 3.93 2.642 4.575l1.603.43c2.406.644 3.931-.236 4.575-2.641l1.289-4.811c.645-2.406-.236-3.93-2.641-4.575Zm.236 3.93-1.289 4.811c-.215.802-.723 1.095-1.525.88l-1.604-.43c-.801-.214-1.095-.722-.88-1.524l1.289-4.81c.215-.803.723-1.096 1.525-.881l1.604.43c.801.214 1.095.723.88 1.524Zm-3.401 4.675.802.215c.267.071.437-.026.508-.294l1.074-4.009c-.801-.215-1.31.079-1.525.88l-.859 3.208Zm-4.829 2.788c-.685-1.186-.776-2.715-.275-4.586l1.289-4.81c.788-2.94 2.651-4.016 5.591-3.228l1.604.43c1.871.5 3.149 1.344 3.833 2.53.685 1.186.777 2.715.276 4.586l-1.289 4.81c-.788 2.94-2.652 4.016-5.592 3.229l-1.604-.43c-1.87-.501-3.148-1.345-3.833-2.531Zm17.529-3.682.645-2.405-2.406-.645-.644 2.406-2.406-.645-.644 2.405 2.405.645-.644 2.405 2.405.645.645-2.406 2.405.645.645-2.405-2.406-.645Zm-6.472 1.703 1.075-4.009 2.405.645.644-2.405 4.009 1.074.881 1.525-.322 1.202 1.202.323.881 1.525-1.074 4.009-2.406-.645-.644 2.405-4.009-1.074-.881-1.525.322-1.202-1.202-.323-.881-1.525ZM57.377 69.41l4.009 1.074-1.289 4.811 2.405.645 3.223-12.027-2.405-.645-1.29 4.81-4.008-1.073 1.289-4.811-2.406-.645-3.222 12.027 2.405.645 1.29-4.81Zm1.703 6.472.967-3.608-1.203-.322-1.289 4.81-4.009-1.074-.88-1.525 3.652-13.63 4.01 1.074.88 1.525-.967 3.608 1.203.322 1.289-4.81 4.009 1.074.88 1.525-3.652 13.63-4.01-1.074-.88-1.525Zm13.008.907.004 1.72 2.485.666v-12.89l-3.272-.877-6.445 11.163 2.485.666.863-1.487 3.88 1.04Zm.004-2.577-2.598-.696 2.596-4.495.002 5.191Zm-.824 4.936.003-.43-1.788-.478-.863 1.487-4.137-1.108-.88-1.525 7.308-12.651 4.49 1.203.88 1.525.004 14.61-4.137-1.109-.88-1.524ZM88.01 73.75c.645-2.405-.236-3.93-2.641-4.575l-1.604-.43c-2.405-.644-3.93.237-4.575 2.642l-1.289 4.81c-.644 2.406.236 3.931 2.642 4.576l1.603.43c2.406.644 3.93-.237 4.575-2.642l.108-.401-2.406-.645-.107.401c-.215.802-.723 1.096-1.525.88l-1.604-.429c-.802-.215-1.095-.723-.88-1.525l1.289-4.81c.215-.802.723-1.096 1.525-.881l1.603.43c.802.215 1.096.723.88 1.525l-.107.4 2.406.645.107-.4ZM77.375 80.57c-.685-1.186-.777-2.714-.275-4.585l1.289-4.811c.787-2.94 2.651-4.016 5.591-3.228l1.604.43c1.87.5 3.148 1.344 3.833 2.53.685 1.187.777 2.715.275 4.586l-.322 1.203-4.009-1.075-.88-1.525.107-.4-.802-.215c-.267-.072-.436.026-.508.293l-1.074 4.01.802.214c.267.072.436-.026.508-.293l.322-1.203 4.01 1.074.88 1.525-.323 1.203c-.787 2.94-2.651 4.016-5.591 3.228l-1.604-.43c-1.87-.501-3.148-1.345-3.833-2.53Zm18.192-7.758 1.282-1.418 4.506 1.207.88 1.525-5.322 5.879 1.67 7.752-4.506-1.208-.88-1.525-.402-1.869-.763 2.847-4.008-1.075-.88-1.525 3.651-13.63 4.01 1.074.88 1.525-.118.441Zm-3.713 5.837.874.234 1.18 5.473 2.695.722-1.468-6.839 4.69-5.188-2.694-.722-3.758 4.149-.874-.234 1.289-4.81-2.406-.645-3.222 12.026 2.405.645 1.29-4.81Zm9.779 5.199.645-2.406 4.81 1.29.645-2.406-4.811-1.29.645-2.405 5.612 1.504.645-2.405-8.018-2.148-3.223 12.026 8.018 2.149.645-2.406-5.613-1.503Zm7.009-3.708.988 1.124-1.074 4.009.587 1.016-1.075 4.01-9.621-2.579-.88-1.525 3.652-13.63 9.621 2.578.881 1.525-1.074 4.009-2.005-.537Zm3.587-3.766L109.006 88.4l2.406.645 1.289-4.81 1.122.3 1.494 5.556 2.774.744-1.508-5.63c1.837-.057 3.003-1.01 3.499-2.86.644-2.406-.236-3.93-2.641-4.575l-5.212-1.397Zm1.761 3.05 2.806.752c.802.215 1.095.723.881 1.525-.215.802-.724 1.096-1.525.88l-2.807-.751.645-2.406Zm7.499.076c.685 1.186.776 2.715.275 4.586-.601 2.245-1.677 3.394-3.227 3.449l1.614 6.001-4.634-1.242-.88-1.525-.77-2.87-.988 3.688-4.009-1.074-.88-1.525 3.652-13.63 6.014 1.611c1.87.501 3.148 1.345 3.833 2.531Zm7.177 1.279-1.604-.43c-2.405-.645-3.93.236-4.575 2.641-.644 2.406.236 3.93 2.642 4.575l1.603.43c.802.215 1.096.723.881 1.525-.215.801-.723 1.095-1.525.88l-1.604-.43c-.802-.214-1.131-.589-.988-1.124l-2.405-.644c-.573 2.138.343 3.53 2.749 4.174l1.603.43c2.406.644 3.931-.236 4.575-2.642.645-2.405-.236-3.93-2.641-4.575l-1.604-.43c-.802-.214-1.095-.722-.88-1.524.215-.802.723-1.096 1.525-.88l1.603.429c.802.215 1.131.59.988 1.124l2.406.645c.572-2.138-.344-3.53-2.749-4.174Zm-6.217 6.3c-1.01-.998-1.265-2.433-.763-4.304.787-2.94 2.651-4.016 5.591-3.228l1.604.43c1.79.48 3.043 1.331 3.758 2.554.722 1.219.803 2.873.243 4.963l-2.213-.593c.797.787 1.222 1.617 1.275 2.49a7.841 7.841 0 0 1-.244 2.513c-.787 2.94-2.651 4.016-5.591 3.228l-1.604-.43c-1.79-.48-3.046-1.331-3.766-2.555-.717-1.218-.795-2.872-.235-4.962l2.213.593a3.43 3.43 0 0 1-.268-.699Z"/></g><defs><clipPath id="a"><path fill="#fff" d="M0 0h192v138H0z"/></clipPath></defs></svg>