<svg width="168" height="122" viewBox="0 0 168 122" fill="none" xmlns="http://www.w3.org/2000/svg">
    <path d="M3.5078 81.0948L3.43841 81.0444L3.35782 81.0151C1.59112 80.3737 0.608911 78.3962 0.608911 76.25V38.125C0.608911 36.0466 1.55378 34.3179 3.2453 33.0896C4.95185 31.8503 7.44069 31.1089 10.5 31.1089H147C150.023 31.1089 151.997 31.8317 153.992 33.2802L164.492 40.9052C165.507 41.6421 166.226 42.3492 166.693 43.1132C167.154 43.8668 167.391 44.708 167.391 45.75V83.875C167.391 85.9534 166.446 87.6821 164.755 88.9104C163.048 90.1497 160.559 90.8911 157.5 90.8911H21C17.977 90.8911 16.0025 90.1683 14.0078 88.7198L3.5078 81.0948ZM147 76.8589H147.609V76.25V38.125V37.5161H147H10.5H9.89109V38.125V76.25V76.8589H10.5H147Z" fill="#48B2F8" stroke="black" stroke-width="1.21782"/>
    <path d="M16.9039 65.1599V44.3808H22.2842C23.2452 44.3808 24.1442 44.4998 24.9815 44.7376C25.8188 44.966 26.5799 45.2942 27.2649 45.7223C27.8643 46.0744 28.3971 46.5073 28.8633 47.021C29.339 47.5253 29.7529 48.0771 30.1049 48.6765C30.514 49.4091 30.828 50.2178 31.0468 51.1026C31.2752 51.9875 31.3893 52.9294 31.3893 53.9284V55.6409C31.3893 56.6019 31.2847 57.5105 31.0754 58.3667C30.8661 59.223 30.5711 60.008 30.1905 60.7215C29.829 61.359 29.4056 61.9489 28.9204 62.4912C28.4352 63.024 27.9024 63.4711 27.322 63.8327C26.6465 64.2608 25.8996 64.5891 25.0814 64.8174C24.2727 65.0457 23.4069 65.1599 22.484 65.1599H16.9039ZM20.9427 47.6347V61.9346H22.484C22.9788 61.9346 23.4402 61.8727 23.8683 61.7491C24.2965 61.6254 24.6866 61.4446 25.0386 61.2067C25.4001 60.9594 25.7236 60.6454 26.009 60.2648C26.304 59.8748 26.5561 59.4228 26.7654 58.9091C26.9367 58.4619 27.0651 57.9672 27.1507 57.4248C27.2459 56.873 27.2935 56.2784 27.2935 55.6409V53.8998C27.2935 53.3004 27.2459 52.7343 27.1507 52.2015C27.0651 51.6592 26.9367 51.1645 26.7654 50.7173C26.5561 50.1845 26.2802 49.7088 25.9377 49.2902C25.6047 48.8715 25.2146 48.529 24.7674 48.2626C24.4249 48.0628 24.0443 47.9106 23.6257 47.806C23.2166 47.6918 22.7694 47.6347 22.2842 47.6347H20.9427ZM35.7421 49.7183H44.1479V61.9346H48.3294V65.1599H35.7421V61.9346H40.1377V52.9579H35.7421V49.7183ZM39.8522 45.7651C39.8522 45.4607 39.9046 45.18 40.0092 44.9231C40.1234 44.6567 40.2804 44.4284 40.4802 44.2381C40.68 44.0573 40.9178 43.9146 41.1938 43.81C41.4792 43.7053 41.7931 43.653 42.1357 43.653C42.8397 43.653 43.3963 43.8528 43.8054 44.2524C44.224 44.6425 44.4333 45.1467 44.4333 45.7651C44.4333 46.3836 44.224 46.8926 43.8054 47.2922C43.3963 47.6823 42.8397 47.8773 42.1357 47.8773C41.7931 47.8773 41.4792 47.825 41.1938 47.7203C40.9178 47.6157 40.68 47.4682 40.4802 47.2779C40.2804 47.0971 40.1234 46.8783 40.0092 46.6214C39.9046 46.355 39.8522 46.0696 39.8522 45.7651ZM62.2012 60.9213C62.2012 60.6835 62.1441 60.4742 62.0299 60.2934C61.9253 60.1126 61.735 59.9414 61.4591 59.7796C61.1736 59.6274 60.7978 59.4847 60.3316 59.3515C59.8654 59.2183 59.2756 59.0851 58.562 58.9519C57.6581 58.7711 56.8304 58.5475 56.0788 58.2811C55.3367 58.0052 54.6992 57.6722 54.1664 57.2821C53.6336 56.9016 53.215 56.4591 52.9105 55.9549C52.6156 55.4506 52.4681 54.8703 52.4681 54.2138C52.4681 53.5763 52.6203 52.9674 52.9248 52.3871C53.2293 51.8067 53.6669 51.2977 54.2378 50.86C54.8086 50.4224 55.5032 50.0751 56.3214 49.8182C57.1396 49.5613 58.0625 49.4329 59.09 49.4329C60.1651 49.4329 61.1308 49.5613 61.9871 49.8182C62.8434 50.0656 63.5712 50.4081 64.1706 50.8457C64.7605 51.2929 65.2124 51.821 65.5264 52.4299C65.8404 53.0388 65.9974 53.7 65.9974 54.4136H62.0299C62.0299 54.1567 61.9871 53.9188 61.9015 53.7C61.8159 53.4717 61.6874 53.2671 61.5162 53.0864C61.2783 52.8485 60.9548 52.6582 60.5457 52.5155C60.1461 52.3728 59.6609 52.3014 59.09 52.3014C58.6048 52.3014 58.1814 52.349 57.8199 52.4441C57.4583 52.5393 57.1634 52.6725 56.9351 52.8437C56.7257 52.996 56.564 53.1767 56.4498 53.386C56.3452 53.5858 56.2928 53.7999 56.2928 54.0283C56.2928 54.2566 56.3404 54.4707 56.4356 54.6705C56.5307 54.8608 56.702 55.032 56.9493 55.1842C57.1872 55.346 57.5154 55.4935 57.934 55.6267C58.3527 55.7503 58.8855 55.8597 59.5324 55.9549C60.4648 56.1071 61.3306 56.3022 62.1298 56.54C62.929 56.7779 63.6188 57.0823 64.1992 57.4534C64.7795 57.834 65.2315 58.2954 65.5549 58.8377C65.8879 59.3705 66.0544 60.008 66.0544 60.7501C66.0544 61.4351 65.8879 62.0678 65.5549 62.6482C65.2315 63.219 64.77 63.7137 64.1706 64.1324C63.5617 64.551 62.8291 64.8792 61.9728 65.1171C61.1166 65.3454 60.1604 65.4596 59.1043 65.4596C57.9436 65.4596 56.916 65.3074 56.0217 65.0029C55.1369 64.6985 54.3948 64.2989 53.7954 63.8041C53.196 63.3189 52.7393 62.7671 52.4253 62.1487C52.1208 61.5207 51.9686 60.8928 51.9686 60.2648H55.7505C55.7791 60.6835 55.8932 61.045 56.093 61.3495C56.2928 61.6444 56.5497 61.8823 56.8637 62.063C57.1777 62.2533 57.5344 62.3913 57.934 62.4769C58.3432 62.5625 58.7618 62.6053 59.1899 62.6053C59.7037 62.6053 60.1509 62.5625 60.5314 62.4769C60.9215 62.3818 61.2402 62.2581 61.4876 62.1058C61.7255 61.9536 61.9015 61.7776 62.0157 61.5778C62.1393 61.378 62.2012 61.1592 62.2012 60.9213ZM76.6295 62.2771C77.0196 62.2771 77.3907 62.22 77.7427 62.1058C78.0947 61.9917 78.4039 61.8299 78.6703 61.6206C78.9367 61.4113 79.1413 61.1592 79.284 60.8642C79.4362 60.5693 79.5028 60.2411 79.4838 59.8795H83.2229C83.2419 60.6787 83.0754 61.4208 82.7234 62.1058C82.3809 62.7909 81.9099 63.3808 81.3105 63.8755C80.7111 64.3702 80.0118 64.7603 79.2126 65.0457C78.4229 65.3217 77.5857 65.4596 76.7009 65.4596C75.5021 65.4596 74.4508 65.2598 73.5469 64.8602C72.643 64.4511 71.8914 63.8945 71.292 63.1905C70.6831 62.4864 70.2217 61.6634 69.9077 60.7215C69.6033 59.7701 69.451 58.7521 69.451 57.6675V57.2393C69.451 56.1547 69.6033 55.1414 69.9077 54.1995C70.2122 53.2481 70.6688 52.4204 71.2778 51.7163C71.8867 51.0122 72.6383 50.4557 73.5326 50.0466C74.4365 49.6374 75.483 49.4329 76.6723 49.4329C77.6238 49.4329 78.5038 49.5756 79.3125 49.861C80.1212 50.1465 80.8205 50.5461 81.4104 51.0598C81.9908 51.5831 82.4427 52.2158 82.7662 52.9579C83.0897 53.6905 83.2419 54.5135 83.2229 55.4269H79.4838C79.5028 55.0463 79.4457 54.6847 79.3125 54.3422C79.1793 53.9997 78.9843 53.7048 78.7274 53.4574C78.4705 53.21 78.1613 53.015 77.7998 52.8723C77.4382 52.7201 77.0434 52.6439 76.6152 52.6439C75.9873 52.6439 75.4688 52.7724 75.0597 53.0293C74.6506 53.2861 74.3271 53.6287 74.0892 54.0568C73.8418 54.4849 73.6658 54.9749 73.5612 55.5268C73.466 56.0786 73.4185 56.6494 73.4185 57.2393V57.6675C73.4185 58.2669 73.466 58.8472 73.5612 59.4086C73.6563 59.9604 73.8276 60.4456 74.0749 60.8642C74.3128 61.2924 74.6363 61.6349 75.0454 61.8918C75.464 62.1487 75.9921 62.2771 76.6295 62.2771ZM86.805 57.2964C86.805 56.1737 86.9667 55.1367 87.2902 54.1852C87.6137 53.2243 88.0894 52.3918 88.7173 51.6878C89.3358 50.9837 90.0922 50.4319 90.9865 50.0323C91.8903 49.6327 92.9226 49.4329 94.0834 49.4329C95.2441 49.4329 96.2764 49.6327 97.1803 50.0323C98.0841 50.4319 98.85 50.9837 99.4779 51.6878C100.096 52.3918 100.567 53.2243 100.891 54.1852C101.214 55.1367 101.376 56.1737 101.376 57.2964V57.5961C101.376 58.7283 101.214 59.7749 100.891 60.7358C100.567 61.6872 100.096 62.515 99.4779 63.219C98.8595 63.9231 98.0984 64.4749 97.1945 64.8745C96.2907 65.2646 95.2631 65.4596 94.1119 65.4596C92.9512 65.4596 91.9141 65.2646 91.0008 64.8745C90.0969 64.4749 89.3358 63.9231 88.7173 63.219C88.0894 62.515 87.6137 61.6872 87.2902 60.7358C86.9667 59.7749 86.805 58.7283 86.805 57.5961V57.2964ZM90.7724 57.5961C90.7724 58.2431 90.8343 58.852 90.9579 59.4228C91.0816 59.9842 91.2767 60.4742 91.5431 60.8928C91.8095 61.3209 92.152 61.6587 92.5706 61.906C92.9988 62.1534 93.5125 62.2771 94.1119 62.2771C94.6923 62.2771 95.1918 62.1534 95.6104 61.906C96.029 61.6587 96.3715 61.3209 96.6379 60.8928C96.8948 60.4742 97.0851 59.9842 97.2088 59.4228C97.3325 58.852 97.3943 58.2431 97.3943 57.5961V57.2964C97.3943 56.6685 97.3325 56.0738 97.2088 55.5125C97.0851 54.9511 96.8948 54.4564 96.6379 54.0283C96.3715 53.6001 96.029 53.2624 95.6104 53.015C95.1918 52.7676 94.6828 52.6439 94.0834 52.6439C93.4935 52.6439 92.9892 52.7676 92.5706 53.015C92.152 53.2624 91.8095 53.6001 91.5431 54.0283C91.2767 54.4564 91.0816 54.9511 90.9579 55.5125C90.8343 56.0738 90.7724 56.6685 90.7724 57.2964V57.5961ZM115.99 49.4329C116.589 49.4329 117.141 49.4757 117.645 49.5613C118.159 49.6374 118.573 49.7231 118.887 49.8182L118.302 53.7714C117.779 53.6477 117.241 53.5573 116.689 53.5002C116.147 53.4336 115.628 53.4003 115.134 53.4003C114.62 53.4003 114.154 53.4479 113.735 53.543C113.326 53.6287 112.96 53.7619 112.636 53.9426C112.246 54.1519 111.913 54.4183 111.637 54.7418C111.361 55.0653 111.133 55.4459 110.952 55.8835V65.1599H106.985V49.7183H110.681L110.838 51.9018L110.866 52.2443C111.494 51.369 112.246 50.684 113.121 50.1893C113.997 49.685 114.953 49.4329 115.99 49.4329ZM122.041 57.3249C122.041 56.1547 122.174 55.0843 122.441 54.1139C122.716 53.1434 123.116 52.3109 123.639 51.6164C124.163 50.9219 124.795 50.3843 125.537 50.0037C126.289 49.6232 127.145 49.4329 128.106 49.4329C128.915 49.4329 129.624 49.5804 130.233 49.8753C130.851 50.1607 131.398 50.5698 131.874 51.1026V43.2391H135.856V65.1599H132.274L132.074 63.5472C131.588 64.1466 131.018 64.6128 130.361 64.9458C129.705 65.2788 128.944 65.4453 128.078 65.4453C127.136 65.4453 126.289 65.2503 125.537 64.8602C124.795 64.4606 124.167 63.9135 123.654 63.219C123.13 62.5245 122.731 61.7015 122.455 60.7501C122.179 59.7891 122.041 58.7473 122.041 57.6246V57.3249ZM126.008 57.6246C126.008 58.2716 126.061 58.8758 126.165 59.4371C126.28 59.9889 126.46 60.4694 126.708 60.8785C126.955 61.2971 127.274 61.6254 127.664 61.8632C128.054 62.1011 128.53 62.22 129.091 62.22C129.776 62.22 130.342 62.0725 130.789 61.7776C131.246 61.4827 131.608 61.0783 131.874 60.5645V54.3137C131.608 53.7904 131.251 53.386 130.804 53.1006C130.356 52.8057 129.795 52.6582 129.12 52.6582C128.558 52.6582 128.078 52.7819 127.678 53.0293C127.288 53.2671 126.969 53.5954 126.722 54.014C126.475 54.4421 126.294 54.9416 126.18 55.5125C126.065 56.0738 126.008 56.678 126.008 57.3249V57.6246Z" fill="black"/>
</svg>
