<svg width="90" height="32" viewBox="0 0 90 32" fill="none" xmlns="http://www.w3.org/2000/svg">
    <g filter="url(#filter0_d_824_182)">
        <rect x="4" width="81.5245" height="23.5245" rx="4.20982" fill="#FFCA3A" shape-rendering="crispEdges"/>
        <path d="M9.86866 15.0464C10.325 14.9642 10.6847 14.8532 10.9478 14.7134C11.2151 14.5737 11.4165 14.3969 11.5522 14.1831C11.692 13.9652 11.7803 13.7041 11.8173 13.3999C11.8585 13.0916 11.879 12.7277 11.879 12.3084V5.52501H13.063V12.0926C13.063 12.5982 13.0301 13.0669 12.9644 13.4986C12.9027 13.9303 12.7711 14.3085 12.5697 14.6333C12.3682 14.9539 12.0764 15.217 11.694 15.4226C11.3158 15.6282 10.8122 15.7597 10.1832 15.8173L9.86866 15.0464ZM17.7961 14.6764C18.0921 14.6764 18.3491 14.6353 18.567 14.5531C18.789 14.4668 18.9781 14.3516 19.1343 14.2078C19.2946 14.0598 19.4262 13.8891 19.529 13.6959C19.6317 13.5027 19.714 13.2992 19.7756 13.0854C19.8373 12.8675 19.8805 12.6455 19.9051 12.4194C19.9298 12.1933 19.9421 11.9754 19.9421 11.7657C19.9421 11.5561 19.9298 11.3402 19.9051 11.1182C19.8805 10.8921 19.8373 10.6722 19.7756 10.4584C19.714 10.2405 19.6317 10.0349 19.529 9.84172C19.4262 9.64849 19.2946 9.47994 19.1343 9.33605C18.9781 9.18804 18.789 9.07293 18.567 8.99071C18.3449 8.90438 18.088 8.86121 17.7961 8.86121C17.5042 8.86121 17.2473 8.90438 17.0253 8.99071C16.8074 9.07704 16.6183 9.19421 16.4579 9.34221C16.3017 9.4861 16.1702 9.65466 16.0633 9.84788C15.9605 10.0411 15.8783 10.2446 15.8166 10.4584C15.7549 10.6722 15.7118 10.8921 15.6871 11.1182C15.6624 11.3443 15.6501 11.5602 15.6501 11.7657C15.6501 11.9754 15.6624 12.1933 15.6871 12.4194C15.7118 12.6414 15.7549 12.8614 15.8166 13.0792C15.8783 13.293 15.9605 13.4965 16.0633 13.6898C16.1702 13.883 16.3017 14.0536 16.4579 14.2016C16.6183 14.3455 16.8074 14.4606 17.0253 14.5469C17.2473 14.6333 17.5042 14.6764 17.7961 14.6764ZM21.0583 11.7472C21.0583 12.035 21.0378 12.329 20.9966 12.6291C20.9555 12.9251 20.8856 13.2129 20.787 13.4924C20.6883 13.772 20.5567 14.033 20.3923 14.2756C20.232 14.5182 20.0305 14.7299 19.788 14.9108C19.5495 15.0917 19.2638 15.2335 18.9308 15.3363C18.6019 15.4432 18.2216 15.4966 17.7899 15.4966C17.3583 15.4966 16.9759 15.4432 16.6429 15.3363C16.314 15.2335 16.0283 15.0917 15.7858 14.9108C15.5473 14.7299 15.3459 14.5182 15.1814 14.2756C15.0211 14.033 14.8916 13.772 14.7929 13.4924C14.6942 13.2129 14.6244 12.9251 14.5832 12.6291C14.5421 12.3331 14.5216 12.0391 14.5216 11.7472C14.5216 11.4553 14.5421 11.1614 14.5832 10.8654C14.6244 10.5653 14.6942 10.2775 14.7929 10.0021C14.8916 9.72249 15.0211 9.46144 15.1814 9.21888C15.3459 8.97632 15.5473 8.7646 15.7858 8.58371C16.0283 8.40282 16.314 8.26098 16.6429 8.1582C16.9759 8.05542 17.3583 8.00403 17.7899 8.00403C18.2216 8.00403 18.6019 8.05542 18.9308 8.1582C19.2638 8.26098 19.5495 8.40282 19.788 8.58371C20.0305 8.7646 20.232 8.97632 20.3923 9.21888C20.5567 9.46144 20.6883 9.72249 20.787 10.0021C20.8856 10.2775 20.9555 10.5653 20.9966 10.8654C21.0378 11.1614 21.0583 11.4553 21.0583 11.7472ZM22.634 15.2623V8.05337H23.7564V15.2623H22.634ZM22.5292 6.24652C22.5292 6.14785 22.5456 6.0574 22.5785 5.97518C22.6155 5.88885 22.6649 5.81279 22.7265 5.74701C22.7882 5.68123 22.8601 5.62985 22.9424 5.59284C23.0246 5.55584 23.113 5.53734 23.2075 5.53734C23.3062 5.53734 23.3966 5.5579 23.4789 5.59901C23.5611 5.63601 23.633 5.6874 23.6947 5.75318C23.7564 5.81896 23.8037 5.89501 23.8365 5.98135C23.8694 6.06768 23.8859 6.15607 23.8859 6.24652C23.8859 6.34519 23.8674 6.43769 23.8304 6.52402C23.7975 6.60624 23.7502 6.68024 23.6885 6.74602C23.6269 6.8118 23.5549 6.86319 23.4727 6.90019C23.3905 6.93719 23.3021 6.95569 23.2075 6.95569C23.1089 6.95569 23.0184 6.93719 22.9362 6.90019C22.854 6.85908 22.782 6.80563 22.7204 6.73986C22.6587 6.67408 22.6114 6.60008 22.5785 6.51785C22.5456 6.43152 22.5292 6.34107 22.5292 6.24652ZM26.5901 9.20655C26.7134 9.05443 26.8779 8.90232 27.0834 8.75021C27.289 8.59809 27.5131 8.46037 27.7556 8.33704C28.0023 8.2137 28.2572 8.11503 28.5203 8.04103C28.7875 7.96292 29.0424 7.92387 29.285 7.92387C29.7166 7.92387 30.0805 7.98964 30.3765 8.1212C30.6766 8.24865 30.9212 8.4357 31.1103 8.68237C31.2994 8.92493 31.4351 9.22299 31.5173 9.57655C31.6037 9.93011 31.6468 10.3309 31.6468 10.7791V15.2623H30.4751V10.7791C30.4751 10.4666 30.4505 10.1871 30.4011 9.94039C30.3518 9.68961 30.2716 9.47788 30.1606 9.30521C30.0496 9.13254 29.9057 9.00099 29.729 8.91054C29.5522 8.81599 29.3343 8.76871 29.0753 8.76871C28.878 8.76871 28.6621 8.80776 28.4278 8.88588C28.1935 8.96399 27.9673 9.05854 27.7495 9.16954C27.5316 9.28055 27.3322 9.39771 27.1513 9.52105C26.9704 9.64438 26.8368 9.74922 26.7504 9.83555V15.2623H25.5788V8.05337H26.4421L26.5901 9.20655ZM42.7163 10.3967C42.7163 9.08527 42.4923 8.09242 42.0442 7.4182C41.6002 6.74397 40.9157 6.40685 39.9906 6.40685H37.5548V14.3743H39.8488C40.7944 14.3743 41.5077 14.0392 41.9887 13.3691C42.4738 12.699 42.7163 11.7082 42.7163 10.3967ZM43.9558 10.3536C43.9558 10.7976 43.9291 11.2272 43.8757 11.6424C43.8263 12.0576 43.74 12.4482 43.6167 12.8141C43.4933 13.1759 43.3289 13.5068 43.1233 13.8069C42.9178 14.107 42.6608 14.366 42.3525 14.5839C42.0442 14.7977 41.6803 14.9642 41.261 15.0834C40.8458 15.2027 40.3627 15.2623 39.8118 15.2623H36.3769V5.52501H39.7008C40.4079 5.52501 41.0267 5.61957 41.557 5.80868C42.0873 5.99368 42.5293 6.28146 42.8828 6.67202C43.2405 7.06258 43.5077 7.56414 43.6845 8.1767C43.8654 8.78515 43.9558 9.51077 43.9558 10.3536ZM45.5501 15.2623V8.05337H46.6724V15.2623H45.5501ZM45.4452 6.24652C45.4452 6.14785 45.4617 6.0574 45.4946 5.97518C45.5316 5.88885 45.5809 5.81279 45.6426 5.74701C45.7042 5.68123 45.7762 5.62985 45.8584 5.59284C45.9406 5.55584 46.029 5.53734 46.1236 5.53734C46.2222 5.53734 46.3127 5.5579 46.3949 5.59901C46.4771 5.63601 46.5491 5.6874 46.6107 5.75318C46.6724 5.81896 46.7197 5.89501 46.7526 5.98135C46.7855 6.06768 46.8019 6.15607 46.8019 6.24652C46.8019 6.34519 46.7834 6.43769 46.7464 6.52402C46.7135 6.60624 46.6662 6.68024 46.6046 6.74602C46.5429 6.8118 46.471 6.86319 46.3887 6.90019C46.3065 6.93719 46.2181 6.95569 46.1236 6.95569C46.0249 6.95569 45.9345 6.93719 45.8522 6.90019C45.77 6.85908 45.6981 6.80563 45.6364 6.73986C45.5747 6.67408 45.5275 6.60008 45.4946 6.51785C45.4617 6.43152 45.4452 6.34107 45.4452 6.24652ZM49.6911 11.6609C49.4815 11.5869 49.2841 11.4965 49.0991 11.3896C48.9141 11.2786 48.7538 11.1491 48.6181 11.0011C48.4825 10.8489 48.3756 10.6763 48.2975 10.4831C48.2194 10.2898 48.1803 10.0719 48.1803 9.82938C48.1803 9.50871 48.2461 9.22916 48.3776 8.99071C48.5133 8.74815 48.6921 8.54876 48.9141 8.39254C49.1361 8.23631 49.389 8.11915 49.6726 8.04103C49.9563 7.96292 50.2503 7.92387 50.5545 7.92387C50.8258 7.92387 51.0889 7.95059 51.3438 8.00403C51.6028 8.05748 51.8392 8.12326 52.053 8.20137C52.2709 8.27948 52.46 8.36376 52.6203 8.4542C52.7807 8.54054 52.902 8.6166 52.9842 8.68237L52.6018 9.45938C52.3511 9.26616 52.0571 9.10377 51.72 8.97221C51.387 8.83654 51.0252 8.76871 50.6347 8.76871C50.3921 8.76871 50.1783 8.79749 49.9933 8.85504C49.8124 8.90849 49.6603 8.98249 49.537 9.07704C49.4136 9.16749 49.3211 9.27232 49.2595 9.39155C49.1978 9.51077 49.167 9.63616 49.167 9.76772C49.167 9.99794 49.2554 10.1871 49.4321 10.3351C49.613 10.4789 49.8618 10.6064 50.1783 10.7174L51.2143 11.0812C51.5309 11.1922 51.8166 11.3135 52.0715 11.4451C52.3305 11.5766 52.5505 11.7287 52.7313 11.9014C52.9163 12.0741 53.0582 12.2714 53.1568 12.4934C53.2596 12.7154 53.311 12.9703 53.311 13.2581C53.311 13.5171 53.2658 13.774 53.1753 14.0289C53.089 14.2838 52.9451 14.512 52.7437 14.7134C52.5463 14.9149 52.2873 15.0793 51.9667 15.2068C51.646 15.3301 51.2513 15.3918 50.7827 15.3918C50.462 15.3918 50.1639 15.363 49.8885 15.3054C49.6171 15.2479 49.3746 15.18 49.1608 15.1019C48.947 15.0197 48.762 14.9354 48.6058 14.8491C48.4496 14.7587 48.3283 14.6826 48.242 14.6209L48.6305 13.8378C48.7209 13.9118 48.8422 13.9899 48.9943 14.0721C49.1505 14.1543 49.3211 14.2304 49.5061 14.3003C49.6953 14.3701 49.8905 14.4277 50.092 14.4729C50.2934 14.5182 50.4867 14.5408 50.6717 14.5408C50.8073 14.5408 50.9656 14.5243 51.1465 14.4914C51.3315 14.4585 51.5042 14.3989 51.6645 14.3126C51.8289 14.2263 51.9667 14.107 52.0777 13.9549C52.1928 13.8028 52.2503 13.6096 52.2503 13.3753C52.2503 13.2108 52.2216 13.0669 52.164 12.9436C52.1064 12.8161 52.0242 12.7051 51.9173 12.6106C51.8146 12.5119 51.6912 12.4256 51.5473 12.3516C51.4034 12.2776 51.2452 12.2097 51.0725 12.1481L49.6911 11.6609ZM57.3534 15.3856C56.8848 15.3856 56.4572 15.3054 56.0707 15.1451C55.6884 14.9807 55.3595 14.7422 55.0841 14.4298C54.8127 14.1132 54.601 13.7268 54.4489 13.2704C54.2968 12.81 54.2207 12.2817 54.2207 11.6856C54.2207 11.1758 54.2886 10.6948 54.4242 10.2426C54.564 9.78622 54.7675 9.38744 55.0347 9.04621C55.302 8.70087 55.6309 8.42748 56.0214 8.22604C56.4161 8.02459 56.8663 7.92387 57.3719 7.92387C57.8283 7.92387 58.2579 7.9917 58.6608 8.12737C59.0637 8.25893 59.4316 8.44187 59.7646 8.67621L59.4131 9.49638C59.3103 9.3936 59.1849 9.29905 59.0369 9.21271C58.8889 9.12227 58.7307 9.04415 58.5621 8.97838C58.3935 8.9126 58.2188 8.86121 58.0379 8.82421C57.8612 8.78721 57.6926 8.76871 57.5323 8.76871C57.0718 8.80982 56.6998 8.91054 56.4161 9.07088C56.1365 9.2271 55.9207 9.43471 55.7686 9.69372C55.6165 9.95272 55.5157 10.2549 55.4664 10.6002C55.4171 10.9456 55.3924 11.3238 55.3924 11.7349C55.3924 12.1995 55.4376 12.6085 55.5281 12.9621C55.6226 13.3115 55.7542 13.6034 55.9227 13.8378C56.0954 14.0721 56.301 14.2489 56.5394 14.3681C56.782 14.4832 57.0533 14.5408 57.3534 14.5408C57.6001 14.5408 57.818 14.5243 58.0071 14.4914C58.2003 14.4544 58.3771 14.403 58.5374 14.3373C58.6978 14.2674 58.8478 14.1831 58.9876 14.0844C59.1274 13.9858 59.2692 13.8748 59.4131 13.7514L59.7646 14.5778C59.6207 14.6764 59.4645 14.7751 59.2959 14.8738C59.1315 14.9683 58.9485 15.0547 58.7471 15.1328C58.5498 15.2068 58.3339 15.2664 58.0996 15.3116C57.8694 15.3609 57.6206 15.3856 57.3534 15.3856ZM63.9859 14.6764C64.2819 14.6764 64.5388 14.6353 64.7567 14.5531C64.9787 14.4668 65.1678 14.3516 65.324 14.2078C65.4844 14.0598 65.6159 13.8891 65.7187 13.6959C65.8215 13.5027 65.9037 13.2992 65.9654 13.0854C66.027 12.8675 66.0702 12.6455 66.0949 12.4194C66.1195 12.1933 66.1319 11.9754 66.1319 11.7657C66.1319 11.5561 66.1195 11.3402 66.0949 11.1182C66.0702 10.8921 66.027 10.6722 65.9654 10.4584C65.9037 10.2405 65.8215 10.0349 65.7187 9.84172C65.6159 9.64849 65.4844 9.47994 65.324 9.33605C65.1678 9.18804 64.9787 9.07293 64.7567 8.99071C64.5347 8.90438 64.2778 8.86121 63.9859 8.86121C63.694 8.86121 63.437 8.90438 63.215 8.99071C62.9971 9.07704 62.808 9.19421 62.6477 9.34221C62.4915 9.4861 62.3599 9.65466 62.253 9.84788C62.1502 10.0411 62.068 10.2446 62.0063 10.4584C61.9447 10.6722 61.9015 10.8921 61.8768 11.1182C61.8522 11.3443 61.8398 11.5602 61.8398 11.7657C61.8398 11.9754 61.8522 12.1933 61.8768 12.4194C61.9015 12.6414 61.9447 12.8614 62.0063 13.0792C62.068 13.293 62.1502 13.4965 62.253 13.6898C62.3599 13.883 62.4915 14.0536 62.6477 14.2016C62.808 14.3455 62.9971 14.4606 63.215 14.5469C63.437 14.6333 63.694 14.6764 63.9859 14.6764ZM67.2481 11.7472C67.2481 12.035 67.2275 12.329 67.1864 12.6291C67.1453 12.9251 67.0754 13.2129 66.9767 13.4924C66.8781 13.772 66.7465 14.033 66.5821 14.2756C66.4217 14.5182 66.2203 14.7299 65.9777 14.9108C65.7393 15.0917 65.4535 15.2335 65.1205 15.3363C64.7916 15.4432 64.4114 15.4966 63.9797 15.4966C63.548 15.4966 63.1657 15.4432 62.8327 15.3363C62.5038 15.2335 62.2181 15.0917 61.9755 14.9108C61.7371 14.7299 61.5356 14.5182 61.3712 14.2756C61.2108 14.033 61.0813 13.772 60.9827 13.4924C60.884 13.2129 60.8141 12.9251 60.773 12.6291C60.7319 12.3331 60.7113 12.0391 60.7113 11.7472C60.7113 11.4553 60.7319 11.1614 60.773 10.8654C60.8141 10.5653 60.884 10.2775 60.9827 10.0021C61.0813 9.72249 61.2108 9.46144 61.3712 9.21888C61.5356 8.97632 61.7371 8.7646 61.9755 8.58371C62.2181 8.40282 62.5038 8.26098 62.8327 8.1582C63.1657 8.05542 63.548 8.00403 63.9797 8.00403C64.4114 8.00403 64.7916 8.05542 65.1205 8.1582C65.4535 8.26098 65.7393 8.40282 65.9777 8.58371C66.2203 8.7646 66.4217 8.97632 66.5821 9.21888C66.7465 9.46144 66.8781 9.72249 66.9767 10.0021C67.0754 10.2775 67.1453 10.5653 67.1864 10.8654C67.2275 11.1614 67.2481 11.4553 67.2481 11.7472ZM69.7056 9.23738C69.8454 9.06471 69.9872 8.89821 70.1311 8.73787C70.275 8.57754 70.4251 8.43776 70.5813 8.31854C70.7416 8.19931 70.9122 8.10476 71.0931 8.03487C71.274 7.96087 71.4734 7.92387 71.6913 7.92387C71.9215 7.92387 72.1271 7.94853 72.308 7.99787V8.93521C72.2998 8.9311 72.2771 8.92699 72.2401 8.92288C72.2031 8.91876 72.1559 8.91671 72.0983 8.91671C72.0408 8.9126 71.975 8.91054 71.901 8.91054C71.827 8.91054 71.753 8.91054 71.679 8.91054C71.5063 8.91054 71.3357 8.93932 71.1671 8.99688C70.9986 9.05443 70.8341 9.13049 70.6738 9.22505C70.5176 9.31549 70.3655 9.42032 70.2175 9.53955C70.0736 9.65466 69.9379 9.77388 69.8105 9.89722V15.2623H68.6388V8.05337H69.5206L69.7056 9.23738ZM73.933 11.6609C73.933 12.2118 73.9783 12.6722 74.0687 13.0422C74.1633 13.4081 74.2928 13.7021 74.4572 13.9241C74.6217 14.1461 74.8149 14.3044 75.0369 14.3989C75.263 14.4935 75.5076 14.5408 75.7707 14.5408C75.9475 14.5408 76.1304 14.5202 76.3196 14.4791C76.5087 14.438 76.6957 14.3784 76.8807 14.3003C77.0657 14.218 77.2466 14.1173 77.4234 13.9981C77.6002 13.8748 77.7626 13.7309 77.9106 13.5664V9.69372C77.7379 9.56627 77.5652 9.44705 77.3926 9.33605C77.2199 9.22093 77.0431 9.12227 76.8622 9.04004C76.6854 8.95371 76.5025 8.88793 76.3134 8.84271C76.1284 8.79337 75.9352 8.76871 75.7337 8.76871C75.3843 8.76871 75.0944 8.84476 74.8642 8.99688C74.634 9.14488 74.449 9.35044 74.3092 9.61355C74.1735 9.87666 74.0769 10.185 74.0194 10.5386C73.9618 10.888 73.933 11.2621 73.933 11.6609ZM75.5734 7.92387C76.0421 7.92387 76.4737 8.00403 76.8684 8.16437C77.2631 8.32059 77.6105 8.57343 77.9106 8.92288V5.52501L79.0822 5.30918V15.2623H78.2127L78.0401 14.1584C77.9044 14.3311 77.7502 14.4935 77.5776 14.6456C77.409 14.7936 77.2261 14.9231 77.0287 15.0341C76.8314 15.1451 76.6238 15.2314 76.4059 15.2931C76.1921 15.3548 75.9722 15.3856 75.7461 15.3856C75.2692 15.3856 74.8478 15.2972 74.4819 15.1204C74.1201 14.9437 73.8138 14.6888 73.563 14.3558C73.3164 14.0228 73.1293 13.6178 73.0019 13.1409C72.8744 12.6599 72.8107 12.1172 72.8107 11.5129C72.8107 11.0319 72.8744 10.5756 73.0019 10.1439C73.1334 9.70811 73.3184 9.32577 73.5569 8.99688C73.7994 8.66798 74.0913 8.40693 74.4325 8.2137C74.7738 8.02048 75.154 7.92387 75.5734 7.92387Z" fill="white"/>
    </g>
    <defs>
        <filter id="filter0_d_824_182" x="0" y="0" width="89.5247" height="31.5245" filterUnits="userSpaceOnUse" color-interpolation-filters="sRGB">
            <feFlood flood-opacity="0" result="BackgroundImageFix"/>
            <feColorMatrix in="SourceAlpha" type="matrix" values="0 0 0 0 0 0 0 0 0 0 0 0 0 0 0 0 0 0 127 0" result="hardAlpha"/>
            <feOffset dy="4"/>
            <feGaussianBlur stdDeviation="2"/>
            <feComposite in2="hardAlpha" operator="out"/>
            <feColorMatrix type="matrix" values="0 0 0 0 0 0 0 0 0 0 0 0 0 0 0 0 0 0 0.25 0"/>
            <feBlend mode="normal" in2="BackgroundImageFix" result="effect1_dropShadow_824_182"/>
            <feBlend mode="normal" in="SourceGraphic" in2="effect1_dropShadow_824_182" result="shape"/>
        </filter>
    </defs>
</svg>
