<svg xmlns="http://www.w3.org/2000/svg" xml:space="preserve" width="495.3" height="254.7" viewBox="0 0 131.1 67.4"><path d="M67 194.9c-28.4.5 50.6-26.4 6.5-23.7-6-19.2 3.1-34.4 26.3-24.6 10.4 5.2 26.4-19.8 39.8-17.5C156 134 155.2 153.3 154 160c-.1 1 4.2-1 8.5.2 14.8 4 12.9 19.4 7 29.2 6.7-.3 15 6.2 9.5 6.2-37.8.2-74.2-1.2-112-.6z" style="fill:#d8dedf;fill-opacity:1;stroke:none" transform="translate(-49.7 -128.2)"/><path d="M67 195c-17 0-16.5 0-17.1-.6-.3-.2-.1-.7 0-1 3.6-7.2 12.2-6.4 12.7-6.3 1 .2-.6-3.1 1.6-8 1.9-4 5.3-6.3 9.3-7.9.8-.3-5.7-5.4-3.5-15.5 1.9-9.2 12.5-18.4 29.8-4 .6.6.4-5.3 1-6.5a7.6 7.6 0 0 1 11.3-1.8c.5.5 8.7-19.8 27.5-14.3 16.4 4.8 10 41.1-10.4 41-5-.1-4.9-.2-12.5-4.2-5.3 1.6-7.8 0-9.8-1.8-1 5.3-3 6.3-6.3 6-1 6-3.3 5.1-5.5 5.6-2.5 14.5-11.4 12.5-11.4 12.5s-1.5 7-16.6 6.9z" style="opacity:1;fill:#f6fdff;fill-opacity:1;stroke:none" transform="translate(-49.7 -128.2)"/><text x="68.7" y="40.6" style="font-weight:700;font-size:10px;font-family:&quot;Glacial Indifference&quot;,sans-serif;text-anchor:middle;fill:#0a84dc">     <tspan x="68.7" dy="0">14 Hackathon</tspan> <tspan x="68.7" dy="13">Weekend Events</tspan></text></svg>