<?xml version="1.0" encoding="UTF-8" standalone="no"?>
<svg xmlns="http://www.w3.org/2000/svg"
     xmlns:svg="http://www.w3.org/2000/svg"
     version="1.1"
     width="105.556mm" height="31.4815mm"
     viewBox="0 0 399 119">
  <defs>
  </defs>
  <path id="vector0"
        fill="#FFFFFF"
        stroke="none"
        opacity="1.000000"
        stroke-width="6.000000"
        stroke-linecap="butt"
        stroke-linejoin="miter"
        stroke-miterlimit="10.000000"
        d="M 145.00,45.00
           C 145.65,31.69 154.38,19.69 165.00,12.21
             184.92,-1.83 212.05,-3.47 234.00,6.89
             240.87,10.13 246.83,15.34 251.82,21.00
             254.75,24.33 257.16,28.82 261.01,31.07
             266.54,34.29 270.47,31.46 280.00,35.06
             297.25,41.59 309.14,57.50 310.00,76.00
             320.34,72.62 327.26,71.71 337.00,77.97
             340.48,80.20 343.50,83.93 347.00,85.26
             352.59,87.39 361.44,83.20 368.36,92.09
             374.21,99.59 372.52,109.65 375.00,119.00
             375.00,119.00 33.00,119.00 33.00,119.00
             33.00,119.00 34.71,109.00 34.71,109.00
             35.51,102.58 34.17,98.86 38.64,93.09
             43.37,86.98 48.66,87.92 51.92,82.89
             51.92,82.89 56.53,72.00 56.53,72.00
             61.17,63.89 69.89,58.19 79.00,56.38
             84.62,55.26 92.62,56.16 98.00,58.09
             100.76,59.08 106.22,62.43 108.82,61.59
             111.73,60.65 112.58,56.65 119.00,51.93
             126.97,46.07 135.46,45.00 145.00,45.00 Z" />
</svg>
