<?xml version="1.0" encoding="UTF-8" standalone="no"?>
<svg xmlns="http://www.w3.org/2000/svg"
     xmlns:svg="http://www.w3.org/2000/svg"
     version="1.1"
     width="105.556mm" height="29.6296mm"
     viewBox="0 0 399 112">
  <defs>
  </defs>
  <path id="vector0"
        fill="#FFFFFF"
        stroke="none"
        opacity="1.000000"
        stroke-width="6.000000"
        stroke-linecap="butt"
        stroke-linejoin="miter"
        stroke-miterlimit="10.000000"
        d="M 35.00,0.00
           C 35.00,0.00 372.00,0.00 372.00,0.00
             372.00,9.49 373.57,20.72 362.00,24.35
             359.75,25.06 357.33,24.98 355.00,25.00
             354.61,42.61 341.73,55.79 324.00,56.00
             318.60,56.06 314.23,55.84 309.00,54.23
             306.18,53.36 301.84,50.72 299.09,51.56
             295.64,52.62 293.49,58.00 286.00,62.52
             278.42,67.09 271.43,66.00 263.00,66.00
             262.64,73.80 259.99,80.54 255.64,87.00
             239.15,111.47 202.11,118.55 176.00,106.69
             168.64,103.34 162.59,99.03 157.17,93.00
             153.83,89.27 150.27,83.33 146.00,80.98
             142.02,78.80 137.33,79.33 133.00,78.70
             127.05,77.83 120.76,75.14 116.00,71.47
             109.96,66.82 104.56,59.91 101.32,53.00
             99.64,49.40 97.75,40.91 94.73,39.02
             90.73,36.52 85.68,39.82 78.00,37.96
             67.75,35.47 65.72,28.94 61.83,27.31
             59.36,26.26 52.45,27.65 48.00,26.36
             36.06,22.91 35.09,10.48 35.00,0.00 Z" />
</svg>
