<?xml version="1.0" encoding="UTF-8" standalone="no"?>
<svg xmlns="http://www.w3.org/2000/svg"
     xmlns:svg="http://www.w3.org/2000/svg"
     version="1.1"
     width="4.15573in" height="12.7901in"
     viewBox="0 0 399 1228"
     preserveAspectRatio="none">
  <defs>
  </defs>
  <path id="vector0"
        fill="#FFFFFF"
        stroke="none"
        opacity="1.000000"
        stroke-width="6.000000"
        stroke-linecap="butt"
        stroke-linejoin="miter"
        stroke-miterlimit="10.000000"
        d="M 33.00,614.00
           C 27.00,607.87 27.28,607.66 22.58,601.00
             9.29,582.20 7.97,572.31 8.00,550.00
             8.01,542.28 9.00,538.33 11.34,531.00
             12.89,526.17 15.46,521.16 14.86,516.00
             14.26,510.76 8.90,505.18 6.27,500.00
             1.03,489.66 -0.15,484.34 0.00,473.00
             0.10,465.67 3.85,455.98 8.04,450.00
             10.93,445.88 16.60,441.08 16.77,436.00
             16.88,432.55 11.18,420.49 9.67,416.00
             5.50,403.63 2.83,391.06 2.09,378.00
             1.35,364.85 8.41,336.47 14.87,325.00
             17.14,320.98 19.79,317.32 23.04,314.04
             24.76,312.30 28.94,309.16 29.48,306.91
             30.41,303.08 20.74,291.60 18.36,288.00
             11.88,278.22 8.02,264.70 8.00,253.00
             7.98,242.37 7.27,238.54 10.15,228.00
             11.78,222.04 15.88,213.89 14.72,208.00
             13.89,203.76 10.17,199.72 7.92,196.00
             4.49,190.30 0.11,179.61 0.00,173.00
             -0.16,162.83 0.75,155.03 6.09,146.00
             11.12,137.50 17.19,134.51 16.74,128.00
             16.50,124.63 10.97,112.10 9.42,108.00
             5.59,97.84 3.02,86.89 3.00,76.00
             3.00,76.00 3.00,62.00 3.00,62.00
             3.02,49.47 9.34,27.82 15.62,17.00
             21.62,6.65 26.32,0.02 39.00,0.00
             39.00,0.00 368.00,0.00 368.00,0.00
             377.42,0.02 379.30,3.25 384.65,11.00
             391.11,20.35 397.01,47.50 396.99,58.89
             396.49,115.45 383.03,112.95 383.32,130.00
             383.02,136.46 390.52,141.41 393.59,147.00
             397.96,154.98 398.10,163.21 398.00,172.00
             397.92,178.50 395.84,185.39 392.53,191.00
             390.29,194.78 385.63,199.70 385.33,204.00
             385.33,204.00 393.15,227.00 393.15,227.00
             395.87,237.03 395.51,251.81 393.15,262.00
             391.65,269.85 388.48,278.37 383.97,285.00
             381.09,289.24 374.16,297.84 374.41,303.00
             374.62,307.31 379.07,310.85 381.68,314.00
             385.47,318.58 389.15,324.49 391.40,330.00
             400.59,352.50 399.28,363.51 399.00,387.00
             398.89,395.81 392.22,414.36 388.80,423.00
             387.45,426.41 383.45,434.04 383.32,437.00
             383.02,443.46 390.52,448.41 393.59,454.00
             397.84,461.76 398.04,469.47 398.00,478.00
             397.97,484.98 396.10,491.95 392.53,498.00
             390.29,501.78 385.63,506.70 385.33,511.00
             385.09,514.31 388.39,520.55 389.68,524.00
             392.82,532.41 394.89,538.86 395.00,548.00
             395.14,559.95 393.00,575.25 387.63,586.00
             384.57,592.11 374.34,603.77 374.36,610.00
             374.37,613.80 384.38,624.29 387.29,629.00
             393.20,638.52 397.78,656.81 397.80,668.00
             397.80,668.00 397.80,694.00 397.80,694.00
             397.73,699.75 396.71,702.58 395.08,708.00
             395.08,708.00 388.40,731.00 388.40,731.00
             387.06,734.29 383.46,740.97 383.32,744.00
             383.02,750.46 390.52,755.41 393.59,761.00
             397.84,768.76 398.04,776.47 398.00,785.00
             397.97,791.98 396.10,798.95 392.53,805.00
             390.29,808.78 385.63,813.70 385.33,818.00
             385.08,821.45 388.05,826.55 389.31,830.00
             392.33,838.31 394.89,846.06 395.00,855.00
             395.15,867.72 393.39,881.48 387.63,893.00
             384.54,899.16 374.11,910.82 374.41,917.00
             374.60,920.79 384.95,932.10 387.93,937.00
             393.95,946.88 398.98,964.43 399.00,976.00
             399.02,990.52 400.35,1001.94 395.98,1016.00
             395.98,1016.00 387.99,1039.00 387.99,1039.00
             386.67,1042.17 383.46,1047.93 383.32,1051.00
             383.02,1057.46 390.52,1062.41 393.59,1068.00
             397.84,1075.76 398.04,1083.47 398.00,1092.00
             397.97,1098.98 396.10,1105.95 392.53,1112.00
             390.29,1115.78 385.63,1120.70 385.33,1125.00
             385.10,1128.08 390.19,1139.18 391.57,1143.00
             394.29,1150.58 395.09,1158.00 395.00,1166.00
             394.88,1176.32 392.25,1190.76 387.63,1200.00
             382.44,1210.37 372.30,1215.27 371.98,1228.00
             371.98,1228.00 37.74,1228.28 37.74,1228.28
             20.43,1228.03 6.26,1197.49 8.00,1162.00
             8.08,1155.46 9.93,1149.17 12.00,1143.00
             13.56,1138.37 15.72,1134.04 14.72,1129.00
             13.89,1124.76 10.17,1120.72 7.92,1117.00
             4.49,1111.30 0.11,1100.61 0.00,1094.00
             -0.16,1083.83 0.75,1076.03 6.09,1067.00
             11.04,1058.63 17.23,1055.44 16.74,1049.00
             16.74,1049.00 9.67,1030.00 9.67,1030.00
             5.50,1017.63 2.83,1005.06 2.09,992.00
             1.36,979.06 8.22,951.47 14.32,940.00
             16.91,935.13 20.04,930.92 24.01,927.09
             25.93,925.24 29.56,922.83 29.59,919.96
             29.61,917.64 26.73,913.89 25.41,912.00
             22.29,907.54 17.76,901.70 15.37,897.00
             7.92,882.32 7.82,870.83 8.00,855.00
             8.08,848.46 9.93,842.17 12.00,836.00
             13.56,831.37 15.72,827.04 14.72,822.00
             13.89,817.76 10.17,813.72 7.92,810.00
             4.49,804.30 0.11,793.61 0.00,787.00
             -0.16,776.83 0.75,769.03 6.09,760.00
             11.12,751.50 17.19,748.51 16.74,742.00
             16.51,738.72 11.31,726.89 9.81,723.00
             6.11,713.42 3.05,701.29 3.00,691.00
             2.89,667.82 2.83,663.40 11.05,641.00
             15.35,629.29 21.26,619.24 33.00,614.00 Z" />
</svg>
