<?xml version="1.0" encoding="UTF-8" standalone="no"?>
<svg xmlns="http://www.w3.org/2000/svg"
     xmlns:svg="http://www.w3.org/2000/svg"
     version="1.1"
     width="4.15573in" height="6.39503in"
     viewBox="0 0 399 614"
     preserveAspectRatio="none">
  <defs>
  </defs>
  <path id="vector0"
        fill="#FFFFFF"
        stroke="none"
        opacity="1.000000"
        stroke-width="6.000000"
        stroke-linecap="butt"
        stroke-linejoin="miter"
        stroke-miterlimit="10.000000"
        d="M 32.00,308.00
           C 28.54,300.26 21.81,293.31 17.45,286.00
             11.27,275.63 8.02,263.03 8.00,251.00
             7.98,239.43 7.79,236.42 11.14,225.00
             12.54,220.23 16.58,212.54 15.69,208.00
             14.90,203.98 10.42,199.59 8.10,196.00
             4.77,190.84 0.10,178.09 0.00,172.00
             -0.16,162.20 2.16,152.36 7.55,144.00
             9.83,140.46 18.10,132.86 18.08,129.91
             18.06,127.89 15.68,122.99 14.77,121.00
             14.77,121.00 8.34,105.00 8.34,105.00
             3.65,90.37 2.83,78.18 3.00,63.00
             3.17,48.44 9.81,26.18 17.70,14.00
             23.56,4.95 28.00,0.02 39.00,0.00
             39.00,0.00 368.00,0.00 368.00,0.00
             369.89,0.00 373.01,-0.14 374.71,0.57
             378.66,2.22 385.25,12.14 387.55,16.00
             393.67,26.27 398.94,45.02 399.00,57.00
             399.00,57.00 399.00,78.00 399.00,78.00
             398.88,87.40 392.70,106.05 388.99,115.00
             387.47,118.67 382.35,127.84 382.36,131.00
             382.37,136.40 388.99,139.62 392.78,146.00
             397.24,153.51 398.10,162.50 398.00,171.00
             397.92,177.43 396.26,184.47 392.88,190.00
             390.57,193.79 384.92,199.80 384.60,204.00
             384.38,206.95 386.49,210.39 387.74,213.00
             389.86,217.40 391.62,222.30 392.96,227.00
             394.93,233.91 394.57,249.62 393.83,257.00
             392.90,266.34 389.36,276.13 384.30,284.00
             380.83,289.40 373.99,296.53 373.76,302.99
             373.61,307.41 377.95,309.93 380.54,313.01
             384.47,317.71 388.70,324.36 391.13,330.00
             399.67,349.89 399.25,364.10 399.00,385.00
             398.88,394.40 392.70,413.05 388.99,422.00
             387.47,425.67 382.35,434.84 382.36,438.00
             382.37,443.40 388.99,446.62 392.78,453.00
             397.24,460.51 398.10,469.50 398.00,478.00
             397.92,484.43 396.26,491.47 392.88,497.00
             390.57,500.79 384.92,506.80 384.60,511.00
             384.37,514.10 386.90,518.18 388.22,521.00
             389.83,524.43 392.32,531.35 393.24,535.00
             395.39,543.49 394.39,563.35 392.35,572.00
             386.81,595.40 374.75,595.27 372.22,614.00
             372.22,614.00 37.26,614.21 37.26,614.21
             26.31,614.19 7.57,584.32 8.00,550.00
             8.09,543.02 9.81,535.59 12.08,529.00
             13.51,524.85 16.55,519.38 15.69,515.00
             14.90,510.98 10.42,506.59 8.10,503.00
             4.77,497.84 0.10,485.09 0.00,479.00
             -0.16,469.20 2.16,459.36 7.55,451.00
             9.83,447.46 18.10,439.86 18.08,436.91
             18.06,434.73 15.29,429.19 14.30,427.00
             11.46,420.69 8.98,414.69 7.15,408.00
             0.22,382.66 1.70,358.47 11.06,334.00
             14.69,324.52 21.98,311.42 32.00,308.00 Z" />
</svg>
