<svg xmlns="http://www.w3.org/2000/svg" width="574" height="423" fill="none"><path fill="#6B6C6D" fill-rule="evenodd" d="M286 0h3c1.8 1 3.5 2.4 5 4-2.2 0-4.2-.7-6-2-1.6.3-3 1-4 2a6.999 6.999 0 0 1 2-4Z" clip-rule="evenodd"/><path fill="#6D6D6F" fill-rule="evenodd" d="M284 4c.2 2.7 0 5.4-.5 8a6.5 6.5 0 0 1-4.5 1c1-.7 2.2-1.4 3.5-2 .2-2.5.7-4.9 1.5-7Z" clip-rule="evenodd"/><path fill="#414244" fill-rule="evenodd" d="M302 8c2.4.8 4.4 2.2 6 4-1.6.9-3.3 1.4-5 1.5.1-1.7-.2-3.6-1-5.5Z" clip-rule="evenodd"/><path fill="#545556" fill-rule="evenodd" d="M309 12c4 1.6 7.6 3.6 11 6l-8-3c-2 .7-3-.3-3-3Z" clip-rule="evenodd"/><path fill="#70737A" fill-rule="evenodd" d="M365 52c2.4 1.7 5 3 8 4l40 22a955.847 955.847 0 0 1 48 29c.7.9 1.7 1.2 3 1a883.566 883.566 0 0 1 31 20.5 5.807 5.807 0 0 0 5.5.5l1 3c8.7 6.3 17.9 12 27.5 17 1 2 2.7 3 5 3a35.997 35.997 0 0 0 7 4c6.2 2.6 12.2 5.7 18 9.5 1.8 2 3 4.2 4 6.5-3 .2-5.7 1.2-8 3l-26 9.5c-2.7 3-5.7 5.7-9 8-9.1 4.4-18.1 9-27 14-19.7 13.8-39 28.2-58 43-24.5 11.7-49.1 23-74 34a659.553 659.553 0 0 0-51 35 94.02 94.02 0 0 0-15 8c-2.2 1.5-4 3.4-5.5 5.5a44.998 44.998 0 0 1-15.5-6 2.997 2.997 0 0 0-1-3 75.79 75.79 0 0 0-30-14.5l-56-29c-3.8-2.9-7.3-6-10.5-9.5-1.8-2.8-3.6-5.4-5.5-8-14-10-27.6-20.5-41-31.5l-16-9c-7.4-3-14.8-6.2-22-9.5a1531.395 1531.395 0 0 1-44-19.5 43.98 43.98 0 0 0-12-6.5c-5-4.4-10.4-8.4-16-12-.7-.9-1.7-1.2-3-1-.2-1.6.1-3.1 1-4.5a268.066 268.066 0 0 0 34-20c-.8-1-1.2-2.2-1-3.5 1.7.1 3.2.8 4.5 2a70.932 70.932 0 0 1 7.5-3c1.3.2 2.3-.1 3-1a30.002 30.002 0 0 0 14-8c19.7-10.8 39-22.3 58-34.5a782.246 782.246 0 0 0 96-56c10.7-3.7 20.4-9 29-16 10-4 19.2-9.5 27.5-16.5 16 9.4 32.5 17.9 49.5 25.5 7.7 5.9 16 10.7 25 14.5Z" clip-rule="evenodd"/><path fill="#727373" fill-rule="evenodd" d="M267 18c.5 4.5-.8 5.5-4 3-1 .6-2 1-3 1 2-1.7 4.4-3 7-4Z" clip-rule="evenodd"/><path fill="#444547" fill-rule="evenodd" d="M320 18a288.99 288.99 0 0 1 18 8c-1.6-.2-3.1.1-4.5 1-1.4-.7-2.9-1.2-4.5-1.5l2-1c-3-2-5.8-1.9-8.5.5a15.401 15.401 0 0 1-2.5-7Z" clip-rule="evenodd"/><path fill="#6E6E6F" fill-rule="evenodd" d="M260 22c-.5 2-1.4 4-2.5 6a5.204 5.204 0 0 0-3.5-3 8.899 8.899 0 0 1 6-3Z" clip-rule="evenodd"/><path fill="#656667" fill-rule="evenodd" d="M253 25c.3 4.8-1.7 6.2-6 4 1.7-1.7 3.7-3 6-4Z" clip-rule="evenodd"/><path fill="#1C1D1F" fill-rule="evenodd" d="M294 4c3.3.3 6 1.6 8 4 .8 2 1.1 3.8 1 5.5 1.7-.1 3.4-.6 5-1.5h1c0 2.7 1 3.7 3 3l8 3c.3 2.5 1 4.8 2.5 7 2.7-2.4 5.5-2.6 8.5-.5l-2 1c1.6.3 3.1.8 4.5 1.5a6.5 6.5 0 0 1 4.5-1l4 3c0 1 .2 1.8 1 2.5 4.5.7 8.2 2.7 11 6 1.6.5 3.3.7 5 .5 3.2 1.4 6.2 3.1 9 5 .2 1.4.7 2.8 1.5 4 1-1.2 1.7-1 2.5.5l-3 1 8 3c-4 1.5-8 1.7-12 .5-9-3.8-17.3-8.6-25-14.5-17-7.6-33.5-16.1-49.5-25.5A99.593 99.593 0 0 1 263 28.5a93.701 93.701 0 0 1-29 16 782.246 782.246 0 0 1-96 56A996.787 996.787 0 0 1 80 135c-.5 0-.9-.4-1-1a18.996 18.996 0 0 1 3-5c-1.5-1.7-1.2-2.8 1-3.5-.6-.4-.9-.9-1-1.5 0-.7.3-1 1-1 2.3.3 4.3-.4 6-2l1 2c1-1.5 1.7-3.2 2-5 .5-1.4 1.5-2 3-2 1 0 2-.4 3-1 .8.9 1.3 1.9 1.5 3a12 12 0 0 0 3.5-6c1.2 2.4 2.5 2.5 4 .5-.8-1-1.2-2.2-1-3.5 1.8-2 4.2-3.4 7-4 2.3-.7 4.6-1 7-1 2.1-1 3.8-2.5 5-4.5 1-.5 2-.6 3-.5v-4h1a6.597 6.597 0 0 0 5-3c4.9-1.8 9.6-4.1 14-7 3.6.2 6.3-1.1 8-4 1.5-1.2 3.1-2.2 5-3 5.8-2 11.8-3.9 18-5.5.8-1 1.8-1.6 3-2-1.1-1.8-.4-2.6 2-2.5v-3c7.6-.4 13.7-3.4 18.5-9 .4.5 1 .8 1.5 1a6.002 6.002 0 0 1 5-2v-5c.3-.8 1-1.2 2-1 2.3-.3 4.5 0 6.5 1a10.003 10.003 0 0 1 3.5-3c1.5-.6 3-1.2 4.5-2-1.1-2.2-.6-4 1.5-5.5 2.3-.2 4.4-.7 6.5-1.5.4.5 1 .8 1.5 1 1-1.5 1.3-3.2 1-5 3.2-2.5 7-4.1 11-5 4.3 2.2 6.3.8 6-4h1c1.6.4 2.8 1.4 3.5 3 1.1-2 2-4 2.5-6 1 0 2-.4 3-1 3.2 2.5 4.5 1.5 4-3l12-5c1.6.2 3.1-.1 4.5-1 .5-2.6.7-5.3.5-8 1-1 2.4-1.7 4-2 1.8 1.3 3.8 2 6 2Z" clip-rule="evenodd"/><path fill="#525354" fill-rule="evenodd" d="M342 29a41.801 41.801 0 0 1 17 9 13 13 0 0 1-5-.5 17.498 17.498 0 0 0-11-6c-.8-.7-1-1.5-1-2.5Z" clip-rule="evenodd"/><path fill="#393A3A" fill-rule="evenodd" d="M236 34c.3 1.8 0 3.5-1 5-.6-.2-1-.5-1.5-1-2 .8-4.2 1.3-6.5 1.5-2.1 1.5-2.6 3.3-1.5 5.5-1.5.8-3 1.4-4.5 2-1.4.2-2.7 0-4-.5.8-.7 1-1.5 1-2.5a40.002 40.002 0 0 1 18-10Z" clip-rule="evenodd"/><path fill="#676868" fill-rule="evenodd" d="M218 44c0 1-.2 1.8-1 2.5 1.3.5 2.6.7 4 .5a10.003 10.003 0 0 0-3.5 3c-2-1-4.2-1.3-6.5-1 2.1-1.9 4.5-3.6 7-5Z" clip-rule="evenodd"/><path fill="#37383A" fill-rule="evenodd" d="m368 43 20 11c-3.5 1.4-6.8 1-10-1-2.3.3-4 1.3-5 3-3-1-5.6-2.3-8-4 4 1.2 8 1 12-.5l-8-3 3-1c-.8-1.5-1.6-1.7-2.5-.5-.8-1.2-1.3-2.6-1.5-4Z" clip-rule="evenodd"/><path fill="#5C5D5E" fill-rule="evenodd" d="M388 54c3.6 1.3 7 3 10 5a6.802 6.802 0 0 1-5 1.5 6.998 6.998 0 0 0-4-3.5 2.998 2.998 0 0 1-1-3Z" clip-rule="evenodd"/><path fill="#555657" fill-rule="evenodd" d="M209 50v5a6 6 0 0 0-5 2c-.6-.2-1-.5-1.5-1-4.8 5.6-11 8.6-18.5 9 8.6-4.6 17-9.6 25-15Z" clip-rule="evenodd"/><path fill="#1C1D1F" fill-rule="evenodd" d="M388 54a3 3 0 0 0 1 3 6.998 6.998 0 0 1 4 3.5c1.8.2 3.5-.3 5-1.5.8 1.7 1.1 3.4 1 5 1.6.1 3.3.4 5 1a3 3 0 0 1 1 3c1.3.2 2.5-.2 3.5-1 2 .5 3.5 2.2 4.5 5 1.6-.7 3.1-1 4.5-1 .5 1 .3 2-.5 3 1 3-.4 4.3-4 4l-40-22c1-1.7 2.7-2.7 5-3 3.2 2 6.5 2.4 10 1Z" clip-rule="evenodd"/><path fill="#545455" fill-rule="evenodd" d="M398 59c3.7 2 7.2 4.3 10.5 7l1-1c5.5 3 10.6 6.3 15.5 10a31.995 31.995 0 0 0-1 4 18.996 18.996 0 0 1-5-3c1.1-1.7.4-2.4-2-2 .8-1 1-2 .5-3-1.4 0-2.9.3-4.5 1-1-2.8-2.5-4.5-4.5-5-1 .8-2.2 1.2-3.5 1a3 3 0 0 0-1-3c-1.7-.6-3.4-.9-5-1 .1-1.6-.2-3.3-1-5Z" clip-rule="evenodd"/><path fill="#5A5B5C" fill-rule="evenodd" d="M184 65v3c-2.4-.1-3.1.7-2 2.5-1.2.4-2.2 1-3 2-6.2 1.6-12.2 3.4-18 5.5 7.9-3.8 15.5-8.2 23-13Z" clip-rule="evenodd"/><path fill="#6D6E6F" fill-rule="evenodd" d="M425 75a6 6 0 0 1 5 2 8.699 8.699 0 0 0-3 4c-1.2-1.5-1.2-3 0-4.5-1-.3-1.6-.8-2-1.5Z" clip-rule="evenodd"/><path fill="#C5C8CD" fill-rule="evenodd" d="M370 156a6.603 6.603 0 0 0-5 3c-2.7 1.7-5 3.9-7 6.5a32.002 32.002 0 0 0-16 9 287.368 287.368 0 0 1-32 9 8.996 8.996 0 0 0-4 3 129.957 129.957 0 0 0-13 4.5c.2 1.4 0 2.7-.5 4a17.01 17.01 0 0 0-4.872 4.735A17.016 17.016 0 0 0 285 206c-1-.1-2 0-3 .5a21.895 21.895 0 0 1-5.5 7.5 44.093 44.093 0 0 1-34.5-6c-3.8-8.2-2.2-14.8 5-20 1.2-3.4 3-6.4 5.5-9a63.392 63.392 0 0 1 21.5-12.5c2-1 3-2.4 3-4.5 1.4.2 2.7 0 4-.5a281.12 281.12 0 0 0 25-23.5c1.3.2 2.5-.2 3.5-1 2.4-3 4.4-6.4 6-10 .7-2.7.7-5.3 0-8a15.402 15.402 0 0 1-2.5-7 153.041 153.041 0 0 1-16-5.5 31.997 31.997 0 0 0-18 2 9.496 9.496 0 0 0-3 10.5c4.5 3 9.2 5.9 14 8.5 1.4 6.3-1 10.5-7.5 12.5a3.995 3.995 0 0 1-2-1c-3.9 2.9-8 5.4-12.5 7.5a159.006 159.006 0 0 1-30 1c-4.2-.8-8.2-2.2-12-4a34.02 34.02 0 0 1-1.5-7.5c-2.5-3.3-4.3-7-5.5-11 0-8.4 2.7-15.7 8-22 5-3.2 9.7-6.9 14-11 17.3-7 35.3-10.8 54-11.5 2.9-.4 5.5-1.4 8-3 8.6-.4 17 0 25.5 1.5l3-1c15.9 3 31.7 6.1 47.5 9.5 2.3 2 4.8 3.8 7.5 5.5a47.998 47.998 0 0 1-3.5 55 38.611 38.611 0 0 1-13 8Z" clip-rule="evenodd"/><path fill="#4A4B4C" fill-rule="evenodd" d="M431 78c5 2.3 9.6 5 14 8-.5.8-1.4.8-2.5 0a9.605 9.605 0 0 0-3 3c-.2-2.3-1-4.3-2.5-6-.4 1-.4 2.4 0 4a13 13 0 0 1-5-.5c.5-2.8.2-5.6-1-8.5Z" clip-rule="evenodd"/><path fill="#626365" fill-rule="evenodd" d="M156 81c-1.7 2.9-4.4 4.2-8 4l8-4Z" clip-rule="evenodd"/><path fill="#828283" fill-rule="evenodd" d="M134 92a6.6 6.6 0 0 1-5 3 6.6 6.6 0 0 1 5-3Z" clip-rule="evenodd"/><path fill="#525354" fill-rule="evenodd" d="M447 87c4.9 2.3 9.2 5.3 13 9a11.988 11.988 0 0 0-2.5 4c-2.8-1-3-2.4-.5-4.5-1.5-.5-2.7 0-3.5 1.5a8.799 8.799 0 0 1-4.5-3c2.7-2.6 2-4-2-4v-3Z" clip-rule="evenodd"/><path fill="#28292B" fill-rule="evenodd" d="M417 74c2.4-.4 3.1.3 2 2a18.996 18.996 0 0 0 5 3 31.99 31.99 0 0 1 1-4c.4.7 1 1.2 2 1.5-1.2 1.5-1.2 3 0 4.5.6-1.7 1.6-3 3-4 .7 0 1 .3 1 1 1.2 2.9 1.5 5.7 1 8.5 1.6.5 3.3.7 5 .5-.4-1.6-.4-3 0-4 1.4 1.7 2.3 3.7 2.5 6a9.605 9.605 0 0 1 3-3c1.1.8 2 .8 2.5 0 1-.2 1.7.2 2 1v3c4 0 4.7 1.4 2 4a8.8 8.8 0 0 0 4.5 3c.8-1.5 2-2 3.5-1.5-2.5 2-2.3 3.6.5 4.5a11.988 11.988 0 0 1 2.5-4c0 1.4-.3 2.8-1 4l1 1c.8-.9 1.3-1.9 1.5-3 .8 3.2.6 6.2-.5 9a955.847 955.847 0 0 0-48-29c3.6.3 5-1 4-4Z" clip-rule="evenodd"/><path fill="#7E7E7F" fill-rule="evenodd" d="M122 100a7 7 0 0 0-2 4c-2.4 0-4.7.3-7 1 2.7-2 5.7-3.7 9-5Z" clip-rule="evenodd"/><path fill="#4A4B4C" fill-rule="evenodd" d="M128 95v4c-1-.1-2 0-3 .5-1.2 2-2.9 3.5-5 4.5a7 7 0 0 1 2-4l6-5Z" clip-rule="evenodd"/><path fill="#58595A" fill-rule="evenodd" d="M460 96c3.7 1.5 7 3.5 10 6-.7.4-1.2 1-1.5 2-1.6-2-3.4-2.3-5.5-1a9.099 9.099 0 0 1 1 5c-1.3.2-2.3-.1-3-1 1.1-2.8 1.3-5.8.5-9a6.8 6.8 0 0 1-1.5 3l-1-1c.7-1.2 1-2.6 1-4Z" clip-rule="evenodd"/><path fill="#6F6F70" fill-rule="evenodd" d="M471 103a5.993 5.993 0 0 1 5 2c-2.3.4-4-.2-5-2Z" clip-rule="evenodd"/><path fill="#464647" fill-rule="evenodd" d="M478 106c3.5 1.3 6.5 3.3 9 6-2.5-.4-5.2-.4-8 0a9.896 9.896 0 0 1-1-6Z" clip-rule="evenodd"/><path fill="#515252" fill-rule="evenodd" d="M106 109c-.2 1.3.2 2.5 1 3.5-1.5 2-2.8 1.9-4-.5a12 12 0 0 1-3.5 6 6.797 6.797 0 0 0-1.5-3c-1 .6-2 1-3 1 3.4-2.7 7-5 11-7Z" clip-rule="evenodd"/><path fill="#1C1D1F" fill-rule="evenodd" d="M470 102c.7 0 1 .3 1 1 1 1.8 2.7 2.4 5 2 1-.2 1.7.2 2 1-.3 2.1 0 4.1 1 6 2.8-.4 5.5-.4 8 0h1c0 1 .4 2 1 3-4.2 3.3-3.7 4.3 1.5 3 2.6 1 5 2.1 7.5 3.5l-2 2a6.997 6.997 0 0 1 4 3.5c1.4-1.6 3-2.1 5-1.5-.5.4-.8 1-1 1.5 2.2 1 4.6 1.3 7 1h1c1.2 1.2 1.2 2.4 0 3.5 1.6.5 3.3.7 5 .5a7.1 7.1 0 0 0 6 6c0 1-.2 1.8-1 2.5 6.5 0 8.8 2.8 7 8.5-9.6-5-18.8-10.7-27.5-17l-1-3c-1.8.8-3.6.6-5.5-.5-10.2-7-20.6-14-31-20.5.1-1.8-.2-3.4-1-5 2.1-1.3 4-1 5.5 1 .3-1 .8-1.6 1.5-2Z" clip-rule="evenodd"/><path fill="#595A5B" fill-rule="evenodd" d="M92 118c-.3 1.8-1 3.5-2 5l-1-2a7.104 7.104 0 0 1-6 2c2.7-2 5.7-3.7 9-5Z" clip-rule="evenodd"/><path fill="#434445" fill-rule="evenodd" d="m488 112 23 16c-2.4.3-4.8 0-7-1 .2-.6.5-1 1-1.5-2-.6-3.6-.1-5 1.5a6.997 6.997 0 0 0-4-3.5l2-2a55.134 55.134 0 0 0-7.5-3.5c-5.2 1.3-5.7.3-1.5-3-.6-1-1-2-1-3Z" clip-rule="evenodd"/><path fill="#6A6B6C" fill-rule="evenodd" d="M512 128c2.2.8 3.8 2.1 5 4-1.683.16-3.382-.01-5-.5 1.2-1.1 1.2-2.3 0-3.5Z" clip-rule="evenodd"/><path fill="#747475" fill-rule="evenodd" d="m517 132 12 8c-2.4.2-4.4-.4-6-2a7.1 7.1 0 0 1-6-6Z" clip-rule="evenodd"/><path fill="#1A1B1D" fill-rule="evenodd" d="M73 132c.9 2.3 1 4.6.5 7-.4-.5-1-.8-1.5-1-1.7 2.5-3.7 3.2-6 2 3.2-1.3 4.2-3.5 3-6.5 1-1.2 2.4-1.7 4-1.5Z" clip-rule="evenodd"/><path fill="#353738" fill-rule="evenodd" d="M82 124c.1.6.4 1.1 1 1.5-2.2.7-2.5 1.8-1 3.5a18.996 18.996 0 0 0-3 5c.1.6.5 1 1 1a30.002 30.002 0 0 1-14 8c-2.7-1-2.7-2 0-3 2.3 1.2 4.3.5 6-2 .6.2 1 .5 1.5 1 .6-2.4.4-4.7-.5-7v-3c3-1.4 6-3 9-5Z" clip-rule="evenodd"/><path fill="#4E4E4F" fill-rule="evenodd" d="M73 129v3c-1.6-.2-3 .3-4 1.5 1.2 3 .2 5.2-3 6.5-2.7 1-2.7 2 0 3-.7.9-1.7 1.2-3 1 0-1-.2-1.8-1-2.5-3-.1-5.9-1-8.5-2.5-.8 3-1.8 3.3-3 1-.7.8-1.5 1-2.5 1a834.155 834.155 0 0 0 25-12Z" clip-rule="evenodd"/><path fill="#323335" fill-rule="evenodd" d="M523 138a7.108 7.108 0 0 0 6 2c3.2 2.2 6.5 4.2 10 6v1c-2.4.3-4.7.8-7 1.5.8 1.1 1.5 2.3 2 3.5-2.3 0-4-1-5-3 1.8-5.7-.5-8.6-7-8.5.8-.7 1-1.5 1-2.5Z" clip-rule="evenodd"/><path fill="#6A6B6D" fill-rule="evenodd" d="M539 146c1.5 1.6 3.2 3 5 4-2.8.6-4.5-.4-5-3v-1Z" clip-rule="evenodd"/><path fill="#1A1B1D" fill-rule="evenodd" d="M539 147c.5 2.6 2.2 3.6 5 3 1-.2 1.7.2 2 1l2 4c-2.2 1-4.6 1.3-7 1a35.997 35.997 0 0 1-7-4c-.5-1.2-1.2-2.4-2-3.5 2.3-.7 4.6-1.2 7-1.5Z" clip-rule="evenodd"/><path fill="#575859" fill-rule="evenodd" d="M41 145a33.985 33.985 0 0 1-5 7c-1.87.087-3.72.423-5.5 1a13 13 0 0 0-.5 5l-7.5 3a13.01 13.01 0 0 0-5.5-1l24-15Z" clip-rule="evenodd"/><path fill="#323336" fill-rule="evenodd" d="M546 151a34.2 34.2 0 0 1 20 16l6 2.5c.8.7 1 1.5 1 2.5-2.5.1-4.9-.6-7-2a2.997 2.997 0 0 0-1 3h-4c.3 1.8-.4 3.2-2 4-1-1.4-2.4-2-4-2 2.3-1.8 5-2.8 8-3a21.989 21.989 0 0 0-4-6.5c-5.8-3.8-11.8-7-18-9.5 2.4.3 4.8 0 7-1l-2-4Z" clip-rule="evenodd"/><path fill="#28292B" fill-rule="evenodd" d="M63 144a70.924 70.924 0 0 0-7.5 3 7.2 7.2 0 0 0-4.5-2c-.2 1.3.2 2.5 1 3.5a268.073 268.073 0 0 1-34 20 6.5 6.5 0 0 0-1 4.5c1.3-.2 2.3.1 3 1h-4c.4-2.3-.2-4-2-5a5.5 5.5 0 0 1 4-5c-.7-1.2-1-2.6-1-4 1.9 0 3.7.3 5.5 1l7.5-3a13 13 0 0 1 .5-5c1.78-.577 3.63-.913 5.5-1a33.985 33.985 0 0 0 5-7c1.8-2 4.2-3.4 7-4 1 0 1.8-.2 2.5-1 1.2 2.3 2.2 2 3-1 2.6 1.5 5.4 2.4 8.5 2.5.8.7 1 1.5 1 2.5Z" clip-rule="evenodd"/><path fill="#9D9FA4" fill-rule="evenodd" d="M370 156c-1.6 2.6-1 4.5 2 5.5-.5.4-.8 1-1 1.5 1.5 1.3 2.2 3 2 5-2.8-1.4-5.8-2-9-2 .1 1 0 2-.5 3-.8-4.2.7-7.4 4.5-9.5a5 5 0 0 0-3-.5 6.594 6.594 0 0 1 5-3Z" clip-rule="evenodd"/><path fill="#595A5B" fill-rule="evenodd" d="M17 160c0 1.4.3 2.8 1 4a5.5 5.5 0 0 0-4 5c-2.3-.5-4.6-.8-7-1 3-3.1 6.3-5.8 10-8Z" clip-rule="evenodd"/><path fill="#6C6D6E" fill-rule="evenodd" d="M7 168v3c1.4-.2 2.7 0 4 .5a8.8 8.8 0 0 1-5 2.5c.4 1.9.8 3.7 1 5.5A24.5 24.5 0 0 0 4.5 196c.9-1.2 1.7-1.2 2.5 0l-3 15c-.8-10.7-1-21.7-.5-33a6.998 6.998 0 0 0 1-6c1-1.4 1.8-2.7 2.5-4Z" clip-rule="evenodd"/><path fill="#6F7279" fill-rule="evenodd" d="M556 266c-2.4 0-4.8.5-7 1.5a97.63 97.63 0 0 1-21 9l-12 7.5c-25.4 13.4-51 26.6-77 39.5l-33 21c-4.68 2.307-9.346 4.64-14 7-16.7 11.7-33.7 23-51 34a161.412 161.412 0 0 1-44.5 27.5l-1-36c-2.5-13.4-4.3-27-5.5-41 3.4.2 6.7 0 10-.5 15.9-10 31.2-20.6 46-32 19.4-12.7 40-22.7 62-30a626.446 626.446 0 0 0 36-18c6.8-6.2 13.8-12.2 21-18 12-6.3 22.9-14.1 32.5-23.5 13.1-5.5 25-13 35.5-22.5 10.4-5.5 21-10.4 32-14.5a90.974 90.974 0 0 0-3 14.5c.5 13.9 1.7 27.7 3.5 41.5.5 9 .7 18 .5 27h-4v3a8.09 8.09 0 0 0-6 3Z" clip-rule="evenodd"/><path fill="#70737A" fill-rule="evenodd" d="M287 394c.147 7.68-.187 15.362-1 23-4.1.4-7.8-.6-11-3a5.79 5.79 0 0 0-4-2c-10.4-8.9-22-15.7-35-20.5a175.33 175.33 0 0 1-26-16.5c-5.7-3.7-11.7-7.2-18-10.5a306.192 306.192 0 0 0-17-16c-14.6-9.1-29-18.4-43-28-9-4-17.7-8.6-26-14-24.1-7-46.8-17-68-30A24.3 24.3 0 0 0 19 265c-3-1.2-5.8-3-8.5-5 .3-6.3.5-12.6.5-19 .8-15.6 1.2-31 1-46.5-.2-4.7-1.2-9.2-3-13.5a3.003 3.003 0 0 1 2-2 5.993 5.993 0 0 1 5 1.5l19 15a697.348 697.348 0 0 0 77 35c1.5 1.6 3.2 3 5 4 4.2 2.3 8.5 4.3 13 6a200.514 200.514 0 0 0 35 27.5c4.7 6.2 9.8 11.8 15.5 17l1-1c3.5 3.2 7.4 6 11.5 8.5 12.7 5.2 25 11.2 37 18a1026.393 1026.393 0 0 1 39 16c3.4 4.9 8 8 14 9.5 1 14.4 2.7 28.7 5 43-1 5-1.3 10-1 15Z" clip-rule="evenodd"/><path fill="#606269" fill-rule="evenodd" d="M572 184c-.3 8.6.4 17 2 25.5-.4 6.2-1 12.4-2 18.5 0-6-.1-12.4-.5-19-.3-2-.8-3.8-1.5-5.5l2-19.5Z" clip-rule="evenodd"/><path fill="#6F7071" fill-rule="evenodd" d="M4 212c.6 1.7 1.6 3.2 3 4.5a5 5 0 0 1-3 .5c.5 2.3.8 4.6 1 7H4c-1.3-4-1.3-8 0-12Z" clip-rule="evenodd"/><path fill="#909191" fill-rule="evenodd" d="M4 224c.3 2.9 0 5.6-1 8-.7-2.8-.4-5.4 1-8Z" clip-rule="evenodd"/><path fill="#686869" fill-rule="evenodd" d="M3 232c1.1 7.3.5 14.3-2 21-.2-7.2.5-14.2 2-21Z" clip-rule="evenodd"/><path fill="#777778" fill-rule="evenodd" d="M0 255h1c.7 2.3 1 4.6 1 7l-2-2v-5Z" clip-rule="evenodd"/><path fill="#161718" fill-rule="evenodd" d="M4 263c-.7 0-1-.3-1-1v-3a2.999 2.999 0 0 0 3-1 31.977 31.977 0 0 1-4-2.5c3-2.2 3.7-5 2-8.5 1.7-3.7 3-3.7 4 0-.2.6-.5 1-1 1.5 1.4 1 2.4 2.4 3 4-.9 3.1-1.2 6.3-1 9.5-1.8-.1-3.5.2-5 1Z" clip-rule="evenodd"/><path fill="#2E2F31" fill-rule="evenodd" d="M4 224h1c.6.2 1 .7 1 1.5a20.4 20.4 0 0 0-.5 13.5 5.602 5.602 0 0 0 5.5 2c0 6.4-.2 12.7-.5 19 2.7 2 5.5 3.8 8.5 5-1.5.3-2.2 1.3-2 3 3.3-.1 5.6 1.2 7 4l-1-.5c-6.7-2.6-13-5.1-19-8.5a9.202 9.202 0 0 1 5-1c-.2-3.2.1-6.4 1-9.5-.6-1.6-1.6-3-3-4 .5-.4.8-1 1-1.5-1-3.7-2.3-3.7-4 0 1.7 3.4 1 6.3-2 8.5a31.977 31.977 0 0 0 4 2.5 2.999 2.999 0 0 1-3 1v3H2c0-2.4-.3-4.7-1-7v-2a41.4 41.4 0 0 0 2-21c1-2.4 1.3-5.1 1-8Z" clip-rule="evenodd"/><path fill="#818387" fill-rule="evenodd" d="M572 251c0 5 0 10 .5 15a33.296 33.296 0 0 1-12.5 7c3.4-3.9 7.4-7 12-9.5a20.997 20.997 0 0 1 0-12.5Z" clip-rule="evenodd"/><path fill="#191A1C" fill-rule="evenodd" d="M7 168c2.4.2 4.7.5 7 1 1.8 1 2.4 2.7 2 5h4c5.6 3.6 11 7.6 16 12a43.98 43.98 0 0 1 12 6.5A1531.395 1531.395 0 0 0 92 212c7.2 3.3 14.6 6.4 22 9.5l16 9c13.4 11 27 21.5 41 31.5 1.9 2.6 3.7 5.2 5.5 8 3.2 3.5 6.7 6.6 10.5 9.5l56 29a75.79 75.79 0 0 1 30 14.5 2.997 2.997 0 0 1 1 3c4.7 3 9.9 5 15.5 6 1.5-2.1 3.3-4 5.5-5.5a94.02 94.02 0 0 1 15-8 659.553 659.553 0 0 1 51-35c24.9-11 49.5-22.3 74-34 19-14.8 38.3-29.2 58-43 8.9-5 17.9-9.6 27-14 3.3-2.3 6.3-5 9-8l26-9.5c1.6 0 3 .6 4 2 1.6-.8 2.3-2.2 2-4h4a2.997 2.997 0 0 1 1-3c2.1 1.4 4.5 2.1 7 2 .3 4.1 0 8.1-1 12l-2 19.5c.7 1.7 1.2 3.6 1.5 5.5.4 6.6.6 13 .5 19v23a20.997 20.997 0 0 0 0 12.5 42.695 42.695 0 0 0-12 9.5c0 .7-.3 1-1 1-1.7-.2-2.7.5-3 2h-2c0-.5-.4-.9-1-1-.8.9.5 1-1.5 1.5-1.5-.5-2-.8-3.5-1.5.7-1.2 1-2.6 1-4h3c0-2.9 1.2-4.6 4-5a8.09 8.09 0 0 1 6-3v-3h4c.2-9 0-18-.5-27-1.8-13.8-3-27.6-3.5-41.5a90.974 90.974 0 0 1 3-14.5c-11 4.1-21.6 9-32 14.5-10.5 9.5-22.4 17-35.5 22.5a135.805 135.805 0 0 1-32.5 23.5 423.637 423.637 0 0 0-21 18 626.446 626.446 0 0 1-36 18c-22 7.3-42.6 17.3-62 30a566.364 566.364 0 0 1-46 32c-3.3.5-6.6.7-10 .5 1.2 14 3 27.6 5.5 41l1 36c16.3-6.7 31.2-16 44.5-27.5 17.3-11 34.3-22.3 51-34l14-7 33-21c26-13 51.6-26 77-39.5l6-.5a6.997 6.997 0 0 0-2.5 3.5c-1.2-1.5-2-1.3-2.5.5.484 1.118.82 2.295 1 3.5a635.634 635.634 0 0 1-30 19.5c-6.9 3.3-13.9 6.3-21 9l-10 7c-7 3.9-14.4 7.2-22 10l-4 4c-8 4.2-15.6 8.7-23 13.5l-9 4.5a498.338 498.338 0 0 1-24 16.5 396.398 396.398 0 0 1-29 19c-2-.3-3.5.4-4.5 2-.4-.5-1-.8-1.5-1-1.2.8-1.2 1.6 0 2.5l-5 1c.8 1.2.5 2.4-1 3.5-1.2 1.2-2.4 1.2-3.5 0-2.4.8-2.9 2.1-1.5 4h-4v3l-16 9a10.004 10.004 0 0 0-10.5 3c-2.4-1.7-3.6-1-3.5 2h-5c-.5 0-1.5 0-3.5-1.5-1-5 0-3.5.5-8.5 5.7 0 6-.5 1-1.5l2-1c-2.6-3.5-2.6-7 0-10.5-1.4-2-2.4-4-3-6-.3-5 0-10 1-15-2.3-14.3-4-28.6-5-43-6-1.4-10.6-4.6-14-9.5a1026.393 1026.393 0 0 0-39-16c-12-6.8-24.3-12.8-37-18-4.1-2.5-8-5.3-11.5-8.5l-1 1a125.503 125.503 0 0 1-15.5-17c-12.7-7.9-24.4-17-35-27.5-4.5-1.7-8.8-3.7-13-6-1.8-1-3.5-2.4-5-4a697.348 697.348 0 0 1-77-35l-19-15a5.993 5.993 0 0 0-5-1.5 2.998 2.998 0 0 0-2 2c1.8 4.3 2.8 8.8 3 13.5.2 15.4-.2 31-1 46.5-2.3.4-4.1-.3-5.5-2-1.4-4.4-1.2-8.9.5-13.5 0-.8-.4-1.3-1-1.5-.2-2.4-.5-4.7-1-7 1 .1 2 0 3-.5a11.402 11.402 0 0 1-3-4.5v-1l3-15c-.8-1.2-1.6-1.2-2.5 0-1-5.8-.3-11.3 2.5-16.5-.2-1.8-.6-3.6-1-5.5 1.6-.1 3.2-1 5-2.5a8.404 8.404 0 0 0-4-.5v-3Z" clip-rule="evenodd"/><path fill="#B0B2B6" fill-rule="evenodd" d="M180 268c0-.5.4-.9 1-1 2.4.6 4.7 1.2 7 2-1.5 1.2-3 1.2-4.5 0-.7.9-1.5 1.5-2.5 2 0-1-.4-2-1-3Z" clip-rule="evenodd"/><path fill="#DCDDDE" fill-rule="evenodd" d="m348 254 6.5-1c1.1 1 1.6 2.2 1.5 3.5-1.3.7-2.7.7-4 0-1.2-1-2.5-2-4-2.5Z" clip-rule="evenodd"/><path fill="#7F8288" fill-rule="evenodd" d="M60 228c-2-2.6-4-2.6-6 0a9.002 9.002 0 0 1 3 3c-2.4 1.7-4 4-5 7a6.498 6.498 0 0 0-4.5 0 8.597 8.597 0 0 1-1.5-6.5c2-1.2 3.2-3 3.5-5.5 3 2.2 3.2 1.7.5-1.5 1.8-.3 2.1-1 1-2 1-.4 1.7-.9 2.5-1.5.3.8.8 1.5 1.5 2 3-1 6-1.2 9-1 .2 2.7 0 5.4-.5 8-1-.8-1.6-1.8-2-3-.4.6-.9.9-1.5 1Z" clip-rule="evenodd"/><path fill="#DBDBDD" fill-rule="evenodd" d="M60 228c-.3 1.6-1.3 2.6-3 3a9 9 0 0 0-3-3c2-2.6 4-2.6 6 0Z" clip-rule="evenodd"/><path fill="#C4C7CC" fill-rule="evenodd" d="M238 223c.4-.6 1-1 2-1 2.3 1.4 4.8 2.4 7.5 3 7.9-.4 15.7-.8 23.5-1v4c1.4-.2 2.7 0 4 .5 4.3 4.1 9.3 6.6 15 7.5-.1 1 0 2 .5 3 3.8 3.4 5.6 7.7 5.5 13a15.997 15.997 0 0 1-7 14.5l-36 7a35.794 35.794 0 0 1-33.5-14.5 5 5 0 0 1-.5-3h-3c-1.7-5.7-1-11 2.5-16 5.3-7.8 12.4-13 21.5-15.5a4.297 4.297 0 0 0-2-1.5Z" clip-rule="evenodd"/><path fill="#A0A3A7" fill-rule="evenodd" d="M545 217c1.3 2.4 2 5 2 8-1.3-.2-2.5.2-3.5 1-2-2.3-2.9-5-2.5-8 1.6.3 3 0 4-1Z" clip-rule="evenodd"/><path fill="#DDDEDF" fill-rule="evenodd" d="M98 206c-1 1.6-2.3 3-4 4a18 18 0 0 1 3-7c.7-1.3 1.3-1.3 2 0-.6 1-1 2-1 3Z" clip-rule="evenodd"/><path fill="#A5A7AC" fill-rule="evenodd" d="M98 206c0-1 .4-2 1-3-.7-1.3-1.3-1.3-2 0a18 18 0 0 0-3 7c0 1.3-.7 2-2 2 1-1.6 1-3 0-4.5a6.5 6.5 0 0 1 3-3c-1-4.5 1-6.3 6-5.5 0 2.8-1 5.2-3 7Z" clip-rule="evenodd"/><path fill="#82858B" fill-rule="evenodd" d="M401 184c2.3 0 4.3.8 6 2.5-.8.3-1.5.8-2 1.5 2 1.5 3 3.5 3 6l14 3c1 1.3.7 2.6-.5 4-.9-1.2-1.7-1.2-2.5 0 .6 1.1 1.5 2.1 2.5 3 .8 1.8.3 3.2-1.5 4a4.908 4.908 0 0 1-1-4c-2-.2-4 .2-6 1l-1-1 2-2a14.5 14.5 0 0 1-3-6h-5c.2-1.3-.2-2.5-1-3.5-2-.5-4-.7-6-.5v-3c3.1-.6 3.8-2.3 2-5Z" clip-rule="evenodd"/><path fill="#EFF0F1" fill-rule="evenodd" d="M416 198c1.7.7 2.3 2 2 4h-3a7.003 7.003 0 0 1 1-4Z" clip-rule="evenodd"/><path fill="#DDDEDF" fill-rule="evenodd" d="M401 184c1.8 2.7 1.1 4.4-2 5-1.7-2.7-1-4.3 2-5Z" clip-rule="evenodd"/><path fill="#252629" fill-rule="evenodd" d="M556 266c-2.8.4-4 2.1-4 5h-3c0 1.4-.3 2.8-1 4 1.4.7 2 .5 3.5 1 1-.5.7-.1 1.5-1 .6.1 1 .5 1 1l-1 1.5c-2.808-1.5-3 0-6.5-1.5.7-.7.7-1.3 0-2a152.236 152.236 0 0 0-28.5 17 14.027 14.027 0 0 0-1-3.5c.5-1.8 1.3-2 2.5-.5a6.997 6.997 0 0 1 2.5-3.5l-6 .5 12-7.5a97.63 97.63 0 0 0 21-9c2.2-1 4.6-1.5 7-1.5Z" clip-rule="evenodd"/><path fill="#17181A" fill-rule="evenodd" d="M19 265c8.2.8 14.5 4.6 19 11.5 21.2 13 43.9 23 68 30 8.3 5.4 17 10 26 14 14 9.6 28.4 18.9 43 28 5.9 5.1 11.6 10.5 17 16 6.3 3.3 12.3 6.8 18 10.5-.3 3.6-1.6 4-4 1-2.4 2.3-4.9 2.3-7.5 0v-4a7.292 7.292 0 0 1-6.5 2c-10.6-7.3-21-15-31-23a97.987 97.987 0 0 1-19-13.5 752.883 752.883 0 0 1-41-22 40.022 40.022 0 0 1-8-2.5c-2-.2-4-.7-6-1.5-5.6-3.2-11.3-6-17-8.5-1-1-2-1-3.5-1.5-1.5-1.5-1-.5-2.5-1.5l-2.5-1.5c-2-.5-2.7-.9-4.5-1.5-1.5-.5-1-.9-3-1.5-1.5 0-2.6-1.5-4-1.5a63.007 63.007 0 0 1-18-11 2.993 2.993 0 0 0-2-2c-.93-2.017 0-1.5-3-4-1-1.9-2-3.5-3-5-2.5-2-4.5-2.5-7-4-.2-1.7.5-2.7 2-3Z" clip-rule="evenodd"/><path fill="#C2C5CA" fill-rule="evenodd" d="M326 365c1.8 1.4 3.1 3.2 4 5.5-3.3 2.2-5.6 1.4-7-2.5.8-1.2 1.8-2.2 3-3Z" clip-rule="evenodd"/><path fill="#1F2124" fill-rule="evenodd" d="M210 375c8.2 6.3 16.8 11.8 26 16.5 13 4.8 24.6 11.6 35 20.5.1 1 0 2-.5 3-1.8-2.3-4-2.7-6.5-1-11.4-6-23.1-11.8-35-17-.8-.7-1.5-1.6-2-2.5-12.3-5.8-24-12.6-35-20.5 2.5.4 4.7-.3 6.5-2v4c2.6 2.3 5.1 2.3 7.5 0 2.4 3 3.7 2.6 4-1Z" clip-rule="evenodd"/><path fill="#34373B" fill-rule="evenodd" d="M346 394a80.005 80.005 0 0 1-17 12c-1.4-1.9-.9-3.2 1.5-4 1.1 1.2 2.3 1.2 3.5 0 1.5-1 1.8-2.3 1-3.5l5-1c-1.2-.9-1.2-1.7 0-2.5.6.2 1 .5 1.5 1 1-1.6 2.5-2.3 4.5-2Z" clip-rule="evenodd"/><path fill="#54575D" fill-rule="evenodd" d="M329 406a7.001 7.001 0 0 1-4 3v-3h4Z" clip-rule="evenodd"/><path fill="#292B2F" fill-rule="evenodd" d="M287 394c.6 2 1.6 4 3 6-2.6 3.5-2.6 7 0 10.5l-2 1c5 1 4.7 1.5-1 1.5-.5 5-1 4 0 8.5 0 .5-.5 0-1-.5-3.8.3-7.4 0-11-1 0-1 .2-1.8 1-2.5-3.1-1-3.5-2.2-1-3.5 3.2 2.4 6.9 3.4 11 3a184.032 184.032 0 0 0 1-23Z" clip-rule="evenodd"/><path fill="#4E5156" fill-rule="evenodd" d="M271 412c1.7.2 3 .8 4 2-2.5 1.3-2.1 2.5 1 3.5-.8.7-1 1.5-1 2.5-1.2-.5-2.4-1.2-3.5-2-1.5-1.091-1-.5-2.5-2-2.2.4-3.9-.3-5-2 2.5-1.7 4.7-1.3 6.5 1 .5-1 .6-2 .5-3Z" clip-rule="evenodd"/><path fill="#43454B" fill-rule="evenodd" d="M309 418c-.5.5-.5.5-1.5 1-4.33 1.177-8.164 2.844-12.5 4-.5-3 1-4 3.5-2a10.004 10.004 0 0 1 10.5-3Z" clip-rule="evenodd"/><path fill="#404040" d="M517.503 291.194c.396-.194.78-.452 1.184-.621.375-.157.704-.4 1.077-.56.43-.184.845-.405 1.282-.583.464-.189.942-.391 1.411-.562.61-.222 1.156-.606 1.758-.84 1.43-.556 2.76-1.368 4.155-2.01 1.548-.712 3.092-1.446 4.664-2.104 1.38-.578 2.755-1.24 4.167-1.716 1.252-.423 2.486-.89 3.744-1.297.594-.192 1.169-.46 1.755-.674.541-.199 1.08-.414 1.61-.64a22.712 22.712 0 0 1 3.397-1.16c.603-.148 1.167-.381 1.761-.559.493-.148.985-.276 1.459-.48.251-.107 1.573-.388 1.157-.346h-1.127c-.964 0-1.925.107-2.877.107-.114 0-.42-.053-.503-.136-.073-.073-.243-.276-.243-.37 0-.315-.053-.632-.053-.933 0-.19-.141-.857-.32-.947-.38-.19-1.31-.108-1.701.069-.297.133-.568.332-.867.452-.4.16-.855.258-1.237.438-.904.427-1.874.725-2.776 1.16-.898.434-1.839.888-2.791 1.196-.595.193-1.15.423-1.72.681-.454.205-1.014.417-1.426.692-.367.245-.788.397-1.175.607-.477.258-.932.554-1.406.82-.369.206-.723.43-1.083.651-.339.208-.727.435-1.036.68-.701.558-1.547.978-2.302 1.462-.881.566-1.861.958-2.746 1.521-.68.433-1.402.841-1.995 1.386-.303.278-.723.496-1.068.722-.377.245-.694.591-1.066.849-1.573 1.089-6.566 4.351-5.066 3.851.38-.152 1.635-.625 2.003-.806Z"/><path stroke="#404040" stroke-linecap="round" stroke-width="2" d="M552.084 277.042c-.584-.542-.584-.042-1.127 0m1.127 0c.416-.042-.906.239-1.157.346-.474.204-.966.332-1.459.48-.594.178-1.158.411-1.761.559a22.712 22.712 0 0 0-3.397 1.16c-.53.226-1.069.441-1.61.64-.586.214-1.161.482-1.755.674-1.258.407-2.492.874-3.744 1.297-1.412.476-2.787 1.138-4.167 1.716-1.572.658-3.116 1.392-4.664 2.104-1.395.642-2.725 1.454-4.155 2.01-.602.234-1.148.618-1.758.84-.469.171-.947.373-1.411.562-.437.178-.852.399-1.282.583-.373.16-.702.403-1.077.56-.404.169-.788.427-1.184.621-.368.181-1.623.654-2.003.806-1.5.5 3.493-2.762 5.066-3.851.372-.258.689-.604 1.066-.849.345-.226.765-.444 1.068-.722.593-.545 1.315-.953 1.995-1.386.885-.563 1.865-.955 2.746-1.521.755-.484 1.601-.904 2.302-1.462.309-.245.697-.472 1.036-.68.36-.221.714-.445 1.083-.651.474-.266.929-.562 1.406-.82.387-.21.808-.362 1.175-.607.412-.275.972-.487 1.426-.692.57-.258 1.125-.488 1.72-.681.952-.308 1.893-.762 2.791-1.196.902-.435 1.872-.733 2.776-1.16.382-.18.837-.278 1.237-.438.299-.12.57-.319.867-.452.391-.177 1.321-.259 1.701-.069.179.09.32.757.32.947 0 .301.053.618.053.933 0 .094.17.297.243.37.083.083.389.136.503.136.952 0 1.913-.107 2.877-.107m1.127 0h-1.127"/></svg>