<svg width="574" height="423" viewBox="0 0 574 423" fill="none" xmlns="http://www.w3.org/2000/svg">
    <g id="mystery-box-lid">
        <path id="Vector" fill-rule="evenodd" clip-rule="evenodd"
            d="M286 0H289C290.8 1 292.5 2.4 294 4C291.8 4 289.8 3.3 288 2C286.4 2.3 285 3 284 4C284.211 2.48385 284.914 1.07878 286 0Z"
            fill="#6B6C6D" />
        <path id="Vector_2" fill-rule="evenodd" clip-rule="evenodd"
            d="M284 4C284.2 6.7 284 9.4 283.5 12C282.173 12.8719 280.572 13.2276 279 13C280 12.3 281.2 11.6 282.5 11C282.7 8.5 283.2 6.1 284 4Z"
            fill="#6D6D6F" />
        <path id="Vector_3" fill-rule="evenodd" clip-rule="evenodd"
            d="M302 8C304.4 8.8 306.4 10.2 308 12C306.4 12.9 304.7 13.4 303 13.5C303.1 11.8 302.8 9.9 302 8Z"
            fill="#414244" />
        <path id="Vector_4" fill-rule="evenodd" clip-rule="evenodd"
            d="M309 12C313 13.6 316.6 15.6 320 18L312 15C310 15.7 309 14.7 309 12Z" fill="#545556" />
        <path id="Vector_5" fill-rule="evenodd" clip-rule="evenodd"
            d="M365 52C367.4 53.7 370 55 373 56L413 78C429.28 87.195 445.287 96.8659 461 107C461.7 107.9 462.7 108.2 464 108C474.476 114.615 484.811 121.45 495 128.5C495.803 129.034 496.726 129.359 497.687 129.447C498.647 129.534 499.614 129.38 500.5 129L501.5 132C510.2 138.3 519.4 144 529 149C530 151 531.7 152 534 152C536.176 153.591 538.524 154.933 541 156C547.2 158.6 553.2 161.7 559 165.5C560.8 167.5 562 169.7 563 172C560 172.2 557.3 173.2 555 175L529 184.5C526.3 187.5 523.3 190.2 520 192.5C510.9 196.9 501.9 201.5 493 206.5C473.3 220.3 454 234.7 435 249.5C410.5 261.2 385.9 272.5 361 283.5C343.462 294.363 326.443 306.042 310 318.5C304.769 320.708 299.748 323.386 295 326.5C292.8 328 291 329.9 289.5 332C284.006 330.98 278.749 328.945 274 326C274.129 325.456 274.104 324.888 273.927 324.358C273.751 323.828 273.43 323.357 273 323C264.199 316.001 253.952 311.048 243 308.5L187 279.5C183.2 276.6 179.7 273.5 176.5 270C174.7 267.2 172.9 264.6 171 262C157 252 143.4 241.5 130 230.5L114 221.5C106.6 218.5 99.2 215.3 92 212C77.2321 205.731 62.5637 199.23 48 192.5C44.3624 189.722 40.3137 187.529 36 186C31 181.6 25.6 177.6 20 174C19.3 173.1 18.3 172.8 17 173C16.8 171.4 17.1 169.9 18 168.5C29.8091 162.677 41.1732 155.993 52 148.5C51.2 147.5 50.8 146.3 51 145C52.7 145.1 54.2 145.8 55.5 147C57.9411 145.858 60.4451 144.857 63 144C64.3 144.2 65.3 143.9 66 143C71.3093 141.661 76.1509 138.894 80 135C99.7 124.2 119 112.7 138 100.5C171.287 84.1332 203.368 65.4193 234 44.5C244.7 40.8 254.4 35.5 263 28.5C273 24.5 282.2 19 290.5 12C306.5 21.4 323 29.9 340 37.5C347.7 43.4 356 48.2 365 52Z"
            fill="#70737A" />
        <path id="Vector_6" fill-rule="evenodd" clip-rule="evenodd"
            d="M267 18C267.5 22.5 266.2 23.5 263 21C262 21.6 261 22 260 22C262 20.3 264.4 19 267 18Z"
            fill="#727373" />
        <path id="Vector_7" fill-rule="evenodd" clip-rule="evenodd"
            d="M320 18C326.089 20.4614 332.093 23.1296 338 26C336.4 25.8 334.9 26.1 333.5 27C332.1 26.3 330.6 25.8 329 25.5L331 24.5C328 22.5 325.2 22.6 322.5 25C321.108 22.9058 320.249 20.5025 320 18Z"
            fill="#444547" />
        <path id="Vector_8" fill-rule="evenodd" clip-rule="evenodd"
            d="M260 22C259.5 24 258.6 26 257.5 28C257.186 27.2645 256.708 26.6113 256.101 26.091C255.494 25.5707 254.775 25.1973 254 25C255.532 23.2557 257.685 22.1791 260 22Z"
            fill="#6E6E6F" />
        <path id="Vector_9" fill-rule="evenodd" clip-rule="evenodd"
            d="M253 25C253.3 29.8 251.3 31.2 247 29C248.7 27.3 250.7 26 253 25Z" fill="#656667" />
        <path id="Vector_10" fill-rule="evenodd" clip-rule="evenodd"
            d="M294 4C297.3 4.3 300 5.6 302 8C302.8 10 303.1 11.8 303 13.5C304.7 13.4 306.4 12.9 308 12H309C309 14.7 310 15.7 312 15L320 18C320.3 20.5 321 22.8 322.5 25C325.2 22.6 328 22.4 331 24.5L329 25.5C330.6 25.8 332.1 26.3 333.5 27C334.827 26.1281 336.428 25.7724 338 26L342 29C342 30 342.2 30.8 343 31.5C347.5 32.2 351.2 34.2 354 37.5C355.6 38 357.3 38.2 359 38C362.2 39.4 365.2 41.1 368 43C368.2 44.4 368.7 45.8 369.5 47C370.5 45.8 371.2 46 372 47.5L369 48.5L377 51.5C373 53 369 53.2 365 52C356 48.2 347.7 43.4 340 37.5C323 29.9 306.5 21.4 290.5 12C282.285 18.9494 272.998 24.5216 263 28.5C254.36 35.5131 244.54 40.931 234 44.5C203.368 65.4193 171.287 84.1332 138 100.5C119.062 112.651 99.7173 124.158 80 135C79.5 135 79.1 134.6 79 134C79.7368 132.189 80.7487 130.502 82 129C80.5 127.3 80.8 126.2 83 125.5C82.4 125.1 82.1 124.6 82 124C82 123.3 82.3 123 83 123C85.3 123.3 87.3 122.6 89 121L90 123C91 121.5 91.7 119.8 92 118C92.5 116.6 93.5 116 95 116C96 116 97 115.6 98 115C98.8 115.9 99.3 116.9 99.5 118C101.233 116.389 102.45 114.301 103 112C104.2 114.4 105.5 114.5 107 112.5C106.2 111.5 105.8 110.3 106 109C107.8 107 110.2 105.6 113 105C115.3 104.3 117.6 104 120 104C122.1 103 123.8 101.5 125 99.5C126 99 127 98.9 128 99V95H129C130.008 94.9163 130.982 94.6023 131.849 94.0821C132.716 93.562 133.452 92.8496 134 92C138.9 90.2 143.6 87.9 148 85C151.6 85.2 154.3 83.9 156 81C157.5 79.8 159.1 78.8 161 78C166.8 76 172.8 74.1 179 72.5C179.8 71.5 180.8 70.9 182 70.5C180.9 68.7 181.6 67.9 184 68V65C191.6 64.6 197.7 61.6 202.5 56C202.9 56.5 203.5 56.8 204 57C204.62 56.3001 205.395 55.7548 206.263 55.4075C207.131 55.0603 208.068 54.9207 209 55V50C209.3 49.2 210 48.8 211 49C213.3 48.7 215.5 49 217.5 50C218.417 48.7411 219.616 47.7138 221 47C222.5 46.4 224 45.8 225.5 45C224.4 42.8 224.9 41 227 39.5C229.3 39.3 231.4 38.8 233.5 38C233.9 38.5 234.5 38.8 235 39C236 37.5 236.3 35.8 236 34C239.2 31.5 243 29.9 247 29C251.3 31.2 253.3 29.8 253 25H254C255.6 25.4 256.8 26.4 257.5 28C258.6 26 259.5 24 260 22C261 22 262 21.6 263 21C266.2 23.5 267.5 22.5 267 18L279 13C280.6 13.2 282.1 12.9 283.5 12C284 9.4 284.2 6.7 284 4C285 3 286.4 2.3 288 2C289.8 3.3 291.8 4 294 4Z"
            fill="#1C1D1F" />
        <path id="Vector_11" fill-rule="evenodd" clip-rule="evenodd"
            d="M342 29C348.289 30.6376 354.11 33.7192 359 38C357.317 38.1601 355.618 37.9903 354 37.5C351.2 34.2109 347.282 32.0738 343 31.5C342.2 30.8 342 30 342 29Z"
            fill="#525354" />
        <path id="Vector_12" fill-rule="evenodd" clip-rule="evenodd"
            d="M236 34C236.3 35.8 236 37.5 235 39C234.4 38.8 234 38.5 233.5 38C231.5 38.8 229.3 39.3 227 39.5C224.9 41 224.4 42.8 225.5 45C224 45.8 222.5 46.4 221 47C219.6 47.2 218.3 47 217 46.5C217.8 45.8 218 45 218 44C223.025 39.153 229.23 35.7054 236 34Z"
            fill="#393A3A" />
        <path id="Vector_13" fill-rule="evenodd" clip-rule="evenodd"
            d="M218 44C218 45 217.8 45.8 217 46.5C218.3 47 219.6 47.2 221 47C219.616 47.7138 218.417 48.7411 217.5 50C215.5 49 213.3 48.7 211 49C213.1 47.1 215.5 45.4 218 44Z"
            fill="#676868" />
        <path id="Vector_14" fill-rule="evenodd" clip-rule="evenodd"
            d="M368 43L388 54C384.5 55.4 381.2 55 378 53C375.7 53.3 374 54.3 373 56C370 55 367.4 53.7 365 52C369 53.2 373 53 377 51.5L369 48.5L372 47.5C371.2 46 370.4 45.8 369.5 47C368.7 45.8 368.2 44.4 368 43Z"
            fill="#37383A" />
        <path id="Vector_15" fill-rule="evenodd" clip-rule="evenodd"
            d="M388 54C391.6 55.3 395 57 398 59C397.306 59.5671 396.508 59.9915 395.65 60.2489C394.792 60.5063 393.891 60.5917 393 60.5C392.179 58.8528 390.742 57.5954 389 57C388.571 56.6427 388.249 56.1725 388.073 55.6425C387.896 55.1124 387.871 54.5436 388 54Z"
            fill="#5C5D5E" />
        <path id="Vector_16" fill-rule="evenodd" clip-rule="evenodd"
            d="M209 50V55C208.068 54.9207 207.131 55.0603 206.263 55.4075C205.395 55.7548 204.62 56.3001 204 57C203.4 56.8 203 56.5 202.5 56C197.7 61.6 191.5 64.6 184 65C192.6 60.4 201 55.4 209 50Z"
            fill="#555657" />
        <path id="Vector_17" fill-rule="evenodd" clip-rule="evenodd"
            d="M388 54C387.871 54.5436 387.896 55.1124 388.073 55.6425C388.249 56.1725 388.57 56.6427 389 57C390.742 57.5954 392.179 58.8528 393 60.5C394.8 60.7 396.5 60.2 398 59C398.8 60.7 399.1 62.4 399 64C400.6 64.1 402.3 64.4 404 65C404.43 65.3573 404.751 65.8275 404.927 66.3575C405.104 66.8876 405.129 67.4564 405 68C406.3 68.2 407.5 67.8 408.5 67C410.5 67.5 412 69.2 413 72C414.6 71.3 416.1 71 417.5 71C418 72 417.8 73 417 74C418 77 416.6 78.3 413 78L373 56C374 54.3 375.7 53.3 378 53C381.2 55 384.5 55.4 388 54Z"
            fill="#1C1D1F" />
        <path id="Vector_18" fill-rule="evenodd" clip-rule="evenodd"
            d="M398 59C401.7 61 405.2 63.3 408.5 66L409.5 65C415 68 420.1 71.3 425 75C424.581 76.3105 424.247 77.6466 424 79C422.189 78.2632 420.502 77.2513 419 76C420.1 74.3 419.4 73.6 417 74C417.8 73 418 72 417.5 71C416.1 71 414.6 71.3 413 72C412 69.2 410.5 67.5 408.5 67C407.5 67.8 406.3 68.2 405 68C405.129 67.4564 405.104 66.8876 404.927 66.3575C404.751 65.8275 404.43 65.3573 404 65C402.3 64.4 400.6 64.1 399 64C399.1 62.4 398.8 60.7 398 59Z"
            fill="#545455" />
        <path id="Vector_19" fill-rule="evenodd" clip-rule="evenodd"
            d="M184 65V68C181.6 67.9 180.9 68.7 182 70.5C180.8 70.9 179.8 71.5 179 72.5C172.8 74.1 166.8 75.9 161 78C168.9 74.2 176.5 69.8 184 65Z"
            fill="#5A5B5C" />
        <path id="Vector_20" fill-rule="evenodd" clip-rule="evenodd"
            d="M425 75C425.932 74.9207 426.869 75.0603 427.737 75.4075C428.605 75.7548 429.38 76.3001 430 77C428.63 78.0111 427.587 79.4018 427 81C425.8 79.5 425.8 78 427 76.5C426 76.2 425.4 75.7 425 75Z"
            fill="#6D6E6F" />
        <path id="Vector_21" fill-rule="evenodd" clip-rule="evenodd"
            d="M370 156C368.992 156.084 368.018 156.398 367.151 156.918C366.284 157.438 365.548 158.15 365 159C362.3 160.7 360 162.9 358 165.5C351.902 166.873 346.34 170.002 342 174.5C331.516 178.115 320.831 181.12 310 183.5C308.41 184.102 307.023 185.142 306 186.5C301.59 187.769 297.251 189.272 293 191C293.2 192.4 293 193.7 292.5 195C290.574 196.235 288.917 197.845 287.628 199.735C286.34 201.625 285.446 203.756 285 206C284 205.9 283 206 282 206.5C280.725 209.365 278.849 211.923 276.5 214C270.644 215.409 264.562 215.603 258.629 214.571C252.695 213.539 247.036 211.303 242 208C238.2 199.8 239.8 193.2 247 188C248.2 184.6 250 181.6 252.5 179C258.771 173.455 266.078 169.206 274 166.5C276 165.5 277 164.1 277 162C278.4 162.2 279.7 162 281 161.5C289.804 154.183 298.153 146.335 306 138C307.3 138.2 308.5 137.8 309.5 137C311.9 134 313.9 130.6 315.5 127C316.2 124.3 316.2 121.7 315.5 119C314.108 116.906 313.249 114.502 313 112C307.569 110.463 302.228 108.627 297 106.5C290.933 105.419 284.682 106.114 279 108.5C277.481 109.729 276.377 111.397 275.841 113.276C275.304 115.155 275.359 117.154 276 119C280.5 122 285.2 124.9 290 127.5C291.4 133.8 289 138 282.5 140C281.752 139.864 281.058 139.517 280.5 139C276.6 141.9 272.5 144.4 268 146.5C258.054 147.779 248.009 148.113 238 147.5C233.8 146.7 229.8 145.3 226 143.5C225.22 141.064 224.716 138.548 224.5 136C222 132.7 220.2 129 219 125C219 116.6 221.7 109.3 227 103C232 99.8 236.7 96.1 241 92C258.3 85 276.3 81.2 295 80.5C297.9 80.1 300.5 79.1 303 77.5C311.6 77.1 320 77.5 328.5 79L331.5 78C347.4 81 363.2 84.1 379 87.5C381.3 89.5 383.8 91.3 386.5 93C391.637 101.417 394.056 111.212 393.43 121.052C392.804 130.893 389.162 140.302 383 148C379.242 151.505 374.823 154.225 370 156Z"
            fill="#C5C8CD" />
        <path id="Vector_22" fill-rule="evenodd" clip-rule="evenodd"
            d="M431 78C436 80.3 440.6 83 445 86C444.5 86.8 443.6 86.8 442.5 86C441.289 86.7637 440.264 87.7888 439.5 89C439.3 86.7 438.5 84.7 437 83C436.6 84 436.6 85.4 437 87C435.317 87.1601 433.618 86.9903 432 86.5C432.5 83.7 432.2 80.9 431 78Z"
            fill="#4A4B4C" />
        <path id="Vector_23" fill-rule="evenodd" clip-rule="evenodd"
            d="M156 81C154.3 83.9 151.6 85.2 148 85L156 81Z" fill="#626365" />
        <path id="Vector_24" fill-rule="evenodd" clip-rule="evenodd"
            d="M134 92C133.452 92.8496 132.716 93.562 131.849 94.0821C130.982 94.6023 130.008 94.9163 129 95C129.548 94.1504 130.284 93.438 131.151 92.9179C132.018 92.3977 132.992 92.0837 134 92Z"
            fill="#828283" />
        <path id="Vector_25" fill-rule="evenodd" clip-rule="evenodd"
            d="M447 87C451.9 89.3 456.2 92.3 460 96C458.91 97.1548 458.06 98.5144 457.5 100C454.7 99 454.5 97.6 457 95.5C455.5 95 454.3 95.5 453.5 97C451.722 96.4972 450.148 95.4476 449 94C451.7 91.4 451 90 447 90V87Z"
            fill="#525354" />
        <path id="Vector_26" fill-rule="evenodd" clip-rule="evenodd"
            d="M417 74C419.4 73.6 420.1 74.3 419 76C420.502 77.2513 422.189 78.2632 424 79C424.247 77.6465 424.581 76.3104 425 75C425.4 75.7 426 76.2 427 76.5C425.8 78 425.8 79.5 427 81C427.6 79.3 428.6 78 430 77C430.7 77 431 77.3 431 78C432.2 80.9 432.5 83.7 432 86.5C433.6 87 435.3 87.2 437 87C436.6 85.4 436.6 84 437 83C438.4 84.7 439.3 86.7 439.5 89C440.264 87.7888 441.289 86.7637 442.5 86C443.6 86.8 444.5 86.8 445 86C446 85.8 446.7 86.2 447 87V90C451 90 451.7 91.4 449 94C450.148 95.4476 451.722 96.4971 453.5 97C454.3 95.5 455.5 95 457 95.5C454.5 97.5 454.7 99.1 457.5 100C458.06 98.5144 458.91 97.1548 460 96C460 97.4 459.7 98.8 459 100L460 101C460.8 100.1 461.3 99.1 461.5 98C462.3 101.2 462.1 104.2 461 107C445.287 96.8659 429.28 87.195 413 78C416.6 78.3 418 77 417 74Z"
            fill="#28292B" />
        <path id="Vector_27" fill-rule="evenodd" clip-rule="evenodd"
            d="M122 100C120.914 101.079 120.211 102.484 120 104C117.6 104 115.3 104.3 113 105C115.7 103 118.7 101.3 122 100Z"
            fill="#7E7E7F" />
        <path id="Vector_28" fill-rule="evenodd" clip-rule="evenodd"
            d="M128 95V99C127 98.9 126 99 125 99.5C123.8 101.5 122.1 103 120 104C120.211 102.484 120.914 101.079 122 100L128 95Z"
            fill="#4A4B4C" />
        <path id="Vector_29" fill-rule="evenodd" clip-rule="evenodd"
            d="M460 96C463.7 97.5 467 99.5 470 102C469.3 102.4 468.8 103 468.5 104C466.9 102 465.1 101.7 463 103C463.803 104.537 464.15 106.272 464 108C462.7 108.2 461.7 107.9 461 107C462.1 104.2 462.3 101.2 461.5 98C461.258 99.1096 460.743 100.141 460 101L459 100C459.7 98.8 460 97.4 460 96Z"
            fill="#58595A" />
        <path id="Vector_30" fill-rule="evenodd" clip-rule="evenodd"
            d="M471 103C471.932 102.921 472.869 103.06 473.737 103.408C474.605 103.755 475.38 104.3 476 105C473.7 105.4 472 104.8 471 103Z"
            fill="#6F6F70" />
        <path id="Vector_31" fill-rule="evenodd" clip-rule="evenodd"
            d="M478 106C481.5 107.3 484.5 109.3 487 112C484.5 111.6 481.8 111.6 479 112C478.045 110.154 477.695 108.055 478 106Z"
            fill="#464647" />
        <path id="Vector_32" fill-rule="evenodd" clip-rule="evenodd"
            d="M106 109C105.8 110.3 106.2 111.5 107 112.5C105.5 114.5 104.2 114.4 103 112C102.45 114.301 101.233 116.389 99.5 118C99.2583 116.89 98.7427 115.859 98 115C97 115.6 96 116 95 116C98.4 113.3 102 111 106 109Z"
            fill="#515252" />
        <path id="Vector_33" fill-rule="evenodd" clip-rule="evenodd"
            d="M470 102C470.7 102 471 102.3 471 103C472 104.8 473.7 105.4 476 105C477 104.8 477.7 105.2 478 106C477.7 108.1 478 110.1 479 112C481.8 111.6 484.5 111.6 487 112H488C488 113 488.4 114 489 115C484.8 118.3 485.3 119.3 490.5 118C493.1 119 495.5 120.1 498 121.5L496 123.5C497.742 124.095 499.179 125.353 500 127C501.4 125.4 503 124.9 505 125.5C504.5 125.9 504.2 126.5 504 127C506.2 128 508.6 128.3 511 128H512C513.2 129.2 513.2 130.4 512 131.5C513.6 132 515.3 132.2 517 132C517.221 133.513 517.924 134.914 519.005 135.995C520.086 137.076 521.487 137.779 523 138C523 139 522.8 139.8 522 140.5C528.5 140.5 530.8 143.3 529 149C519.4 144 510.2 138.3 501.5 132L500.5 129C498.7 129.8 496.9 129.6 495 128.5C484.8 121.5 474.4 114.5 464 108C464.1 106.2 463.8 104.6 463 103C465.1 101.7 467 102 468.5 104C468.8 103 469.3 102.4 470 102Z"
            fill="#1C1D1F" />
        <path id="Vector_34" fill-rule="evenodd" clip-rule="evenodd"
            d="M92 118C91.7 119.8 91 121.5 90 123L89 121C88.2225 121.774 87.276 122.358 86.235 122.705C85.194 123.052 84.0866 123.153 83 123C85.7 121 88.7 119.3 92 118Z"
            fill="#595A5B" />
        <path id="Vector_35" fill-rule="evenodd" clip-rule="evenodd"
            d="M488 112L511 128C508.6 128.3 506.2 128 504 127C504.2 126.4 504.5 126 505 125.5C503 124.9 501.4 125.4 500 127C499.179 125.353 497.742 124.095 496 123.5L498 121.5C495.591 120.147 493.084 118.977 490.5 118C485.3 119.3 484.8 118.3 489 115C488.4 114 488 113 488 112Z"
            fill="#434445" />
        <path id="Vector_36" fill-rule="evenodd" clip-rule="evenodd"
            d="M512 128C514.2 128.8 515.8 130.1 517 132C515.317 132.16 513.618 131.99 512 131.5C513.2 130.4 513.2 129.2 512 128Z"
            fill="#6A6B6C" />
        <path id="Vector_37" fill-rule="evenodd" clip-rule="evenodd"
            d="M517 132L529 140C526.6 140.2 524.6 139.6 523 138C521.487 137.779 520.086 137.076 519.005 135.995C517.924 134.914 517.221 133.513 517 132Z"
            fill="#747475" />
        <path id="Vector_38" fill-rule="evenodd" clip-rule="evenodd"
            d="M73 132C73.9 134.3 74 136.6 73.5 139C73.1 138.5 72.5 138.2 72 138C70.3 140.5 68.3 141.2 66 140C69.2 138.7 70.2 136.5 69 133.5C70 132.3 71.4 131.8 73 132Z"
            fill="#1A1B1D" />
        <path id="Vector_39" fill-rule="evenodd" clip-rule="evenodd"
            d="M82 124C82.1 124.6 82.4 125.1 83 125.5C80.8 126.2 80.5 127.3 82 129C80.7487 130.502 79.7368 132.189 79 134C79.1 134.6 79.5 135 80 135C76.1508 138.894 71.3093 141.661 66 143C63.3 142 63.3 141 66 140C68.3 141.2 70.3 140.5 72 138C72.6 138.2 73 138.5 73.5 139C74.1 136.6 73.9 134.3 73 132V129C76 127.6 79 126 82 124Z"
            fill="#353738" />
        <path id="Vector_40" fill-rule="evenodd" clip-rule="evenodd"
            d="M73 129V132C71.4 131.8 70 132.3 69 133.5C70.2 136.5 69.2 138.7 66 140C63.3 141 63.3 142 66 143C65.3 143.9 64.3 144.2 63 144C63 143 62.8 142.2 62 141.5C59 141.4 56.1 140.5 53.5 139C52.7 142 51.7 142.3 50.5 140C49.8 140.8 49 141 48 141C56.3993 137.139 64.7338 133.138 73 129Z"
            fill="#4E4E4F" />
        <path id="Vector_41" fill-rule="evenodd" clip-rule="evenodd"
            d="M523 138C523.778 138.774 524.724 139.358 525.765 139.705C526.806 140.052 527.913 140.153 529 140C532.2 142.2 535.5 144.2 539 146V147C536.6 147.3 534.3 147.8 532 148.5C532.8 149.6 533.5 150.8 534 152C531.7 152 530 151 529 149C530.8 143.3 528.5 140.4 522 140.5C522.8 139.8 523 139 523 138Z"
            fill="#323335" />
        <path id="Vector_42" fill-rule="evenodd" clip-rule="evenodd"
            d="M539 146C540.5 147.6 542.2 149 544 150C541.2 150.6 539.5 149.6 539 147V146Z"
            fill="#6A6B6D" />
        <path id="Vector_43" fill-rule="evenodd" clip-rule="evenodd"
            d="M539 147C539.5 149.6 541.2 150.6 544 150C545 149.8 545.7 150.2 546 151L548 155C545.8 156 543.4 156.3 541 156C538.524 154.933 536.176 153.591 534 152C533.5 150.8 532.8 149.6 532 148.5C534.3 147.8 536.6 147.3 539 147Z"
            fill="#1A1B1D" />
        <path id="Vector_44" fill-rule="evenodd" clip-rule="evenodd"
            d="M41 145C39.6364 147.536 37.9563 149.888 36 152C34.1303 152.087 32.2806 152.423 30.5 153C30.0097 154.618 29.8399 156.317 30 158L22.5 161C20.7609 160.272 18.8842 159.931 17 160L41 145Z"
            fill="#575859" />
        <path id="Vector_45" fill-rule="evenodd" clip-rule="evenodd"
            d="M546 151C554.487 153.541 561.657 159.277 566 167L572 169.5C572.8 170.2 573 171 573 172C570.5 172.1 568.1 171.4 566 170C565.57 170.357 565.249 170.828 565.073 171.358C564.896 171.888 564.871 172.456 565 173H561C561.3 174.8 560.6 176.2 559 177C558 175.6 556.6 175 555 175C557.3 173.2 560 172.2 563 172C562.056 169.617 560.702 167.417 559 165.5C553.2 161.7 547.2 158.5 541 156C543.4 156.3 545.8 156 548 155L546 151Z"
            fill="#323336" />
        <path id="Vector_46" fill-rule="evenodd" clip-rule="evenodd"
            d="M63 144C60.4451 144.857 57.941 145.858 55.5 147C54.2817 145.825 52.6884 145.117 51 145C50.8 146.3 51.2 147.5 52 148.5C41.1731 155.993 29.8091 162.677 18 168.5C17.1281 169.827 16.7724 171.428 17 173C18.3 172.8 19.3 173.1 20 174H16C16.4 171.7 15.8 170 14 169C14.0613 167.853 14.48 166.755 15.1974 165.858C15.9147 164.961 16.8947 164.312 18 164C17.3 162.8 17 161.4 17 160C18.9 160 20.7 160.3 22.5 161L30 158C29.8399 156.317 30.0097 154.618 30.5 153C32.2806 152.423 34.1303 152.087 36 152C37.9563 149.888 39.6364 147.536 41 145C42.8 143 45.2 141.6 48 141C49 141 49.8 140.8 50.5 140C51.7 142.3 52.7 142 53.5 139C56.1 140.5 58.9 141.4 62 141.5C62.8 142.2 63 143 63 144Z"
            fill="#28292B" />
        <path id="Vector_47" fill-rule="evenodd" clip-rule="evenodd"
            d="M370 156C368.4 158.6 369 160.5 372 161.5C371.5 161.9 371.2 162.5 371 163C372.5 164.3 373.2 166 373 168C370.2 166.6 367.2 166 364 166C364.1 167 364 168 363.5 169C362.7 164.8 364.2 161.6 368 159.5C367.076 159.026 366.028 158.851 365 159C365.548 158.15 366.284 157.438 367.151 156.918C368.018 156.398 368.992 156.084 370 156Z"
            fill="#9D9FA4" />
        <path id="Vector_48" fill-rule="evenodd" clip-rule="evenodd"
            d="M17 160C17 161.4 17.3 162.8 18 164C16.8947 164.312 15.9147 164.961 15.1974 165.858C14.48 166.755 14.0613 167.853 14 169C11.7 168.5 9.4 168.2 7 168C10 164.9 13.3 162.2 17 160Z"
            fill="#595A5B" />
        <path id="Vector_49" fill-rule="evenodd" clip-rule="evenodd"
            d="M7.00001 168V171C8.40001 170.8 9.70001 171 11 171.5C9.64937 172.855 7.8941 173.732 6.00001 174C6.40001 175.9 6.80001 177.7 7.00001 179.5C4.26146 184.538 3.37677 190.377 4.50001 196C5.40001 194.8 6.20001 194.8 7.00001 196L4.00001 211C3.20001 200.3 3.00001 189.3 3.50001 178C4.10733 177.14 4.51265 176.153 4.68579 175.114C4.85894 174.075 4.79543 173.011 4.50001 172C5.50001 170.6 6.30001 169.3 7.00001 168Z"
            fill="#6C6D6E" />
        <path id="Vector_50" fill-rule="evenodd" clip-rule="evenodd"
            d="M556 266C553.6 266 551.2 266.5 549 267.5C542.376 271.312 535.328 274.332 528 276.5L516 284C490.6 297.4 465 310.6 439 323.5L406 344.5C401.32 346.807 396.654 349.14 392 351.5C375.3 363.2 358.3 374.5 341 385.5C327.761 397.025 312.73 406.314 296.5 413L295.5 377C293 363.6 291.2 350 290 336C293.4 336.2 296.7 336 300 335.5C315.9 325.5 331.2 314.9 346 303.5C365.4 290.8 386 280.8 408 273.5C420.19 267.887 432.196 261.884 444 255.5C450.8 249.3 457.8 243.3 465 237.5C477 231.2 487.9 223.4 497.5 214C510.6 208.5 522.5 201 533 191.5C543.4 186 554 181.1 565 177C563.608 181.744 562.604 186.593 562 191.5C562.5 205.4 563.7 219.2 565.5 233C566 242 566.2 251 566 260H562V263C560.844 263.042 559.71 263.332 558.675 263.85C557.64 264.367 556.728 265.1 556 266Z"
            fill="#6F7279" />
        <path id="Vector_51" fill-rule="evenodd" clip-rule="evenodd"
            d="M287 394C287.147 401.68 286.813 409.362 286 417C281.9 417.4 278.2 416.4 275 414C274.499 413.418 273.887 412.942 273.201 412.599C272.514 412.256 271.766 412.052 271 412C260.6 403.1 249 396.3 236 391.5C226.866 386.773 218.166 381.252 210 375C204.3 371.3 198.3 367.8 192 364.5C186.539 358.953 180.868 353.615 175 348.5C160.4 339.4 146 330.1 132 320.5C123 316.5 114.3 311.9 106 306.5C81.9 299.5 59.2 289.5 38 276.5C35.9749 273.211 33.1949 270.452 29.8907 268.452C26.5864 266.452 22.853 265.269 19 265C16 263.8 13.2 262 10.5 260C10.8 253.7 11 247.4 11 241C11.8 225.4 12.2 210 12 194.5C11.8 189.8 10.8 185.3 9 181C9.14321 180.528 9.40065 180.098 9.74951 179.749C10.0984 179.401 10.5279 179.143 11 179C11.8926 178.857 12.8059 178.918 13.6717 179.178C14.5375 179.437 15.3334 179.889 16 180.5L35 195.5C59.9349 208.714 85.6488 220.402 112 230.5C113.5 232.1 115.2 233.5 117 234.5C121.2 236.8 125.5 238.8 130 240.5C140.61 250.937 152.349 260.161 165 268C169.7 274.2 174.8 279.8 180.5 285L181.5 284C185 287.2 188.9 290 193 292.5C205.7 297.7 218 303.7 230 310.5C243.108 315.566 256.111 320.9 269 326.5C272.4 331.4 277 334.5 283 336C284 350.4 285.7 364.7 288 379C287 384 286.7 389 287 394Z"
            fill="#70737A" />
        <path id="Vector_52" fill-rule="evenodd" clip-rule="evenodd"
            d="M572 184C571.7 192.6 572.4 201 574 209.5C573.6 215.7 573 221.9 572 228C572 222 571.9 215.6 571.5 209C571.2 207 570.7 205.2 570 203.5L572 184Z"
            fill="#606269" />
        <path id="Vector_53" fill-rule="evenodd" clip-rule="evenodd"
            d="M4.00002 212C4.60002 213.7 5.60002 215.2 7.00002 216.5C6.0762 216.974 5.02768 217.149 4.00002 217C4.50002 219.3 4.80002 221.6 5.00002 224H4.00002C2.70002 220 2.70002 216 4.00002 212Z"
            fill="#6F7071" />
        <path id="Vector_54" fill-rule="evenodd" clip-rule="evenodd"
            d="M4.00004 224C4.30004 226.9 4.00004 229.6 3.00004 232C2.30004 229.2 2.60004 226.6 4.00004 224Z"
            fill="#909191" />
        <path id="Vector_55" fill-rule="evenodd" clip-rule="evenodd"
            d="M3.00002 232C4.10002 239.3 3.50002 246.3 1.00002 253C0.800025 245.8 1.50002 238.8 3.00002 232Z"
            fill="#686869" />
        <path id="Vector_56" fill-rule="evenodd" clip-rule="evenodd"
            d="M0 255H1C1.7 257.3 2 259.6 2 262L0 260V255Z" fill="#777778" />
        <path id="Vector_57" fill-rule="evenodd" clip-rule="evenodd"
            d="M4 263C3.3 263 3 262.7 3 262V259C3.54357 259.129 4.11242 259.104 4.64246 258.927C5.1725 258.751 5.64267 258.429 6 258C4.60698 257.266 3.27001 256.431 2 255.5C5 253.3 5.7 250.5 4 247C5.7 243.3 7 243.3 8 247C7.8 247.6 7.5 248 7 248.5C8.4 249.5 9.4 250.9 10 252.5C9.1 255.6 8.8 258.8 9 262C7.2 261.9 5.5 262.2 4 263Z"
            fill="#161718" />
        <path id="Vector_58" fill-rule="evenodd" clip-rule="evenodd"
            d="M4 224H5C5.6 224.2 6 224.7 6 225.5C4.30494 229.813 4.1286 234.574 5.5 239C6.14316 239.808 6.9973 240.423 7.96795 240.776C8.9386 241.129 9.98797 241.206 11 241C11 247.4 10.8 253.7 10.5 260C13.2 262 16 263.8 19 265C17.5 265.3 16.8 266.3 17 268C20.3 267.9 22.6 269.2 24 272L23 271.5C16.3 268.9 10 266.4 4 263C5.53916 262.202 7.2724 261.856 9 262C8.8 258.8 9.1 255.6 10 252.5C9.4 250.9 8.4 249.5 7 248.5C7.5 248.1 7.8 247.5 8 247C7 243.3 5.7 243.3 4 247C5.7 250.4 5 253.3 2 255.5C3.27001 256.431 4.60698 257.266 6 258C5.64267 258.43 5.1725 258.751 4.64246 258.927C4.11242 259.104 3.54357 259.129 3 259V262H2C2 259.6 1.7 257.3 1 255V253C3.4688 246.29 4.15783 239.055 3 232C4 229.6 4.3 226.9 4 224Z"
            fill="#2E2F31" />
        <path id="Vector_59" fill-rule="evenodd" clip-rule="evenodd"
            d="M572 251C572 256 572 261 572.5 266C568.891 269.213 564.625 271.601 560 273C563.4 269.1 567.4 266 572 263.5C570.731 259.43 570.731 255.07 572 251Z"
            fill="#818387" />
        <path id="Vector_60" fill-rule="evenodd" clip-rule="evenodd"
            d="M7 168C9.4 168.2 11.7 168.5 14 169C15.8 170 16.4 171.7 16 174H20C25.6 177.6 31 181.6 36 186C40.3137 187.529 44.3624 189.722 48 192.5C62.5637 199.23 77.2321 205.731 92 212C99.2 215.3 106.6 218.4 114 221.5L130 230.5C143.4 241.5 157 252 171 262C172.9 264.6 174.7 267.2 176.5 270C179.7 273.5 183.2 276.6 187 279.5L243 308.5C253.952 311.048 264.199 316.001 273 323C273.43 323.357 273.751 323.828 273.927 324.358C274.104 324.888 274.129 325.456 274 326C278.7 329 283.9 331 289.5 332C291 329.9 292.8 328 295 326.5C299.748 323.386 304.769 320.708 310 318.5C326.443 306.042 343.462 294.363 361 283.5C385.9 272.5 410.5 261.2 435 249.5C454 234.7 473.3 220.3 493 206.5C501.9 201.5 510.9 196.9 520 192.5C523.3 190.2 526.3 187.5 529 184.5L555 175C556.6 175 558 175.6 559 177C560.6 176.2 561.3 174.8 561 173H565C564.871 172.456 564.896 171.888 565.073 171.358C565.249 170.828 565.57 170.357 566 170C568.1 171.4 570.5 172.1 573 172C573.3 176.1 573 180.1 572 184L570 203.5C570.7 205.2 571.2 207.1 571.5 209C571.9 215.6 572.1 222 572 228V251C570.731 255.07 570.731 259.43 572 263.5C567.46 265.918 563.395 269.136 560 273C560 273.7 559.7 274 559 274C557.3 273.8 556.3 274.5 556 276H554C554 275.5 553.6 275.1 553 275C552.2 275.9 553.5 276 551.5 276.5C550 276 549.5 275.7 548 275C548.7 273.8 549 272.4 549 271H552C552 268.1 553.2 266.4 556 266C556.728 265.1 557.64 264.367 558.675 263.85C559.71 263.332 560.844 263.042 562 263V260H566C566.2 251 566 242 565.5 233C563.7 219.2 562.5 205.4 562 191.5C562.604 186.593 563.608 181.744 565 177C554 181.1 543.4 186 533 191.5C522.5 201 510.6 208.5 497.5 214C487.889 223.399 476.937 231.318 465 237.5C457.806 243.27 450.802 249.273 444 255.5C432.196 261.884 420.19 267.887 408 273.5C386 280.8 365.4 290.8 346 303.5C331.204 314.919 315.852 325.599 300 335.5C296.7 336 293.4 336.2 290 336C291.2 350 293 363.6 295.5 377L296.5 413C312.8 406.3 327.7 397 341 385.5C358.3 374.5 375.3 363.2 392 351.5L406 344.5L439 323.5C465 310.5 490.6 297.5 516 284L522 283.5C520.82 284.375 519.945 285.6 519.5 287C518.3 285.5 517.5 285.7 517 287.5C517.484 288.618 517.82 289.795 518 291C508.185 297.78 498.181 304.283 488 310.5C481.1 313.8 474.1 316.8 467 319.5L457 326.5C450 330.4 442.6 333.7 435 336.5L431 340.5C423 344.7 415.4 349.2 408 354L399 358.5C391.162 364.233 383.159 369.735 375 375C365.615 381.753 355.939 388.093 346 394C344 393.7 342.5 394.4 341.5 396C341.1 395.5 340.5 395.2 340 395C338.8 395.8 338.8 396.6 340 397.5L335 398.5C335.8 399.7 335.5 400.9 334 402C332.8 403.2 331.6 403.2 330.5 402C328.1 402.8 327.6 404.1 329 406H325V409L309 418C307.147 417.428 305.169 417.408 303.304 417.94C301.44 418.473 299.771 419.536 298.5 421C296.1 419.3 294.9 420 295 423C293.333 423 291.667 423 290 423C289.5 423 288.5 423 286.5 421.5C285.5 416.5 286.5 418 287 413C292.7 413 293 412.5 288 411.5L290 410.5C287.4 407 287.4 403.5 290 400C288.6 398 287.6 396 287 394C286.7 389 287 384 288 379C285.7 364.7 284 350.4 283 336C277 334.6 272.4 331.4 269 326.5C256.111 320.9 243.108 315.566 230 310.5C218 303.7 205.7 297.7 193 292.5C188.9 290 185 287.2 181.5 284L180.5 285C174.824 279.82 169.635 274.129 165 268C152.3 260.1 140.6 251 130 240.5C125.5 238.8 121.2 236.8 117 234.5C115.2 233.5 113.5 232.1 112 230.5C85.6488 220.402 59.9349 208.714 35 195.5L16 180.5C15.3334 179.889 14.5375 179.437 13.6717 179.178C12.8059 178.918 11.8926 178.857 11 179C10.5279 179.143 10.0984 179.401 9.74951 179.75C9.40065 180.098 9.14321 180.528 9 181C10.8 185.3 11.8 189.8 12 194.5C12.2 209.9 11.8 225.5 11 241C8.7 241.4 6.9 240.7 5.5 239C4.1 234.6 4.3 230.1 6 225.5C6 224.7 5.6 224.2 5 224C4.8 221.6 4.5 219.3 4 217C5 217.1 6 217 7 216.5C5.65351 215.262 4.62456 213.719 4 212V211L7 196C6.2 194.8 5.4 194.8 4.5 196C3.5 190.2 4.2 184.7 7 179.5C6.8 177.7 6.4 175.9 6 174C7.6 173.9 9.2 173 11 171.5C9.72702 171.011 8.35415 170.84 7 171V168Z"
            fill="#191A1C" />
        <path id="Vector_61" fill-rule="evenodd" clip-rule="evenodd"
            d="M180 268C180 267.5 180.4 267.1 181 267C183.4 267.6 185.7 268.2 188 269C186.5 270.2 185 270.2 183.5 269C182.8 269.9 182 270.5 181 271C181 270 180.6 269 180 268Z"
            fill="#B0B2B6" />
        <path id="Vector_62" fill-rule="evenodd" clip-rule="evenodd"
            d="M348 254L354.5 253C355.6 254 356.1 255.2 356 256.5C354.7 257.2 353.3 257.2 352 256.5C350.8 255.5 349.5 254.5 348 254Z"
            fill="#DCDDDE" />
        <path id="Vector_63" fill-rule="evenodd" clip-rule="evenodd"
            d="M60 228C58 225.4 56 225.4 54 228C55.2248 228.747 56.2533 229.775 57 231C54.6 232.7 53 235 52 238C50.5478 237.464 48.9521 237.464 47.5 238C46.8297 237.071 46.3517 236.018 46.0941 234.901C45.8365 233.785 45.8045 232.629 46 231.5C48 230.3 49.2 228.5 49.5 226C52.5 228.2 52.7 227.7 50 224.5C51.8 224.2 52.1 223.5 51 222.5C52 222.1 52.7 221.6 53.5 221C53.8 221.8 54.3 222.5 55 223C58 222 61 221.8 64 222C64.2 224.7 64 227.4 63.5 230C62.5 229.2 61.9 228.2 61.5 227C61.1 227.6 60.6 227.9 60 228Z"
            fill="#7F8288" />
        <path id="Vector_64" fill-rule="evenodd" clip-rule="evenodd"
            d="M60 228C59.7 229.6 58.7 230.6 57 231C56.2534 229.775 55.2248 228.747 54 228C56 225.4 58 225.4 60 228Z"
            fill="#DBDBDD" />
        <path id="Vector_65" fill-rule="evenodd" clip-rule="evenodd"
            d="M238 223C238.4 222.4 239 222 240 222C242.3 223.4 244.8 224.4 247.5 225C255.4 224.6 263.2 224.2 271 224V228C272.4 227.8 273.7 228 275 228.5C279.3 232.6 284.3 235.1 290 236C289.9 237 290 238 290.5 239C294.3 242.4 296.1 246.7 296 252C296.219 254.82 295.686 257.648 294.457 260.195C293.227 262.742 291.344 264.917 289 266.5L253 273.5C246.629 274.31 240.157 273.392 234.263 270.84C228.369 268.289 223.27 264.2 219.5 259C219.026 258.076 218.851 257.028 219 256H216C214.3 250.3 215 245 218.5 240C223.8 232.2 230.9 227 240 224.5C239.497 223.813 238.801 223.291 238 223Z"
            fill="#C4C7CC" />
        <path id="Vector_66" fill-rule="evenodd" clip-rule="evenodd"
            d="M545 217C546.3 219.4 547 222 547 225C545.7 224.8 544.5 225.2 543.5 226C541.5 223.7 540.6 221 541 218C542.6 218.3 544 218 545 217Z"
            fill="#A0A3A7" />
        <path id="Vector_67" fill-rule="evenodd" clip-rule="evenodd"
            d="M98 206C97 207.6 95.7 209 94 210C94.4893 207.479 95.5122 205.093 97 203C97.7 201.7 98.3 201.7 99 203C98.4 204 98 205 98 206Z"
            fill="#DDDEDF" />
        <path id="Vector_68" fill-rule="evenodd" clip-rule="evenodd"
            d="M98 206C98 205 98.4 204 99 203C98.3 201.7 97.7 201.7 97 203C95.5122 205.093 94.4893 207.479 94 210C94 211.3 93.3 212 92 212C93 210.4 93 209 92 207.5C92.6363 206.193 93.6926 205.136 95 204.5C94 200 96 198.2 101 199C101 201.8 100 204.2 98 206Z"
            fill="#A5A7AC" />
        <path id="Vector_69" fill-rule="evenodd" clip-rule="evenodd"
            d="M401 184C403.3 184 405.3 184.8 407 186.5C406.2 186.8 405.5 187.3 405 188C407 189.5 408 191.5 408 194L422 197C423 198.3 422.7 199.6 421.5 201C420.6 199.8 419.8 199.8 419 201C419.6 202.1 420.5 203.1 421.5 204C422.3 205.8 421.8 207.2 420 208C419.553 207.446 419.232 206.801 419.059 206.11C418.886 205.42 418.866 204.699 419 204C417 203.8 415 204.2 413 205L412 204L414 202C412.545 200.262 411.517 198.207 411 196H406C406.2 194.7 405.8 193.5 405 192.5C403 192 401 191.8 399 192V189C402.1 188.4 402.8 186.7 401 184Z"
            fill="#82858B" />
        <path id="Vector_70" fill-rule="evenodd" clip-rule="evenodd"
            d="M416 198C417.7 198.7 418.3 200 418 202H415C414.924 200.597 415.273 199.203 416 198Z"
            fill="#EFF0F1" />
        <path id="Vector_71" fill-rule="evenodd" clip-rule="evenodd"
            d="M401 184C402.8 186.7 402.1 188.4 399 189C397.3 186.3 398 184.7 401 184Z"
            fill="#DDDEDF" />
        <path id="Vector_72" fill-rule="evenodd" clip-rule="evenodd"
            d="M556 266C553.2 266.4 552 268.1 552 271H549C549 272.4 548.7 273.8 548 275C549.4 275.7 550 275.5 551.5 276C552.5 275.5 552.2 275.9 553 275C553.6 275.1 554 275.5 554 276L553 277.5C550.192 276 550 277.5 546.5 276C547.2 275.3 547.2 274.7 546.5 274C536.409 278.611 526.852 284.312 518 291C517.82 289.795 517.484 288.618 517 287.5C517.5 285.7 518.3 285.5 519.5 287C519.945 285.6 520.82 284.375 522 283.5L516 284L528 276.5C535.328 274.332 542.376 271.312 549 267.5C551.2 266.5 553.6 266 556 266Z"
            fill="#252629" />
        <path id="Vector_73" fill-rule="evenodd" clip-rule="evenodd"
            d="M19 265C27.2 265.8 33.5 269.6 38 276.5C59.2 289.5 81.9 299.5 106 306.5C114.3 311.9 123 316.5 132 320.5C146 330.1 160.4 339.4 175 348.5C180.9 353.6 186.6 359 192 364.5C198.3 367.8 204.3 371.3 210 375C209.7 378.6 208.4 379 206 376C203.6 378.3 201.1 378.3 198.5 376V372C197.66 372.836 196.63 373.455 195.497 373.803C194.365 374.152 193.164 374.219 192 374C181.4 366.7 171 359 161 351C154.152 347.272 147.774 342.74 142 337.5C128.11 330.591 114.437 323.254 101 315.5C98.2532 314.949 95.5718 314.111 93 313C91 312.8 89 312.3 87 311.5C81.4 308.3 75.7 305.5 70 303C69 302 68 302 66.5 301.5C65 300 65.5 301 64 300L61.5 298.5C59.5 298 58.8 297.6 57 297C55.5 296.5 56 296.1 54 295.5C52.5 295.5 51.4 294 50 294C43.4244 291.371 37.3391 287.652 32 283C31.8568 282.528 31.5994 282.098 31.2505 281.75C30.9017 281.401 30.4721 281.143 30 281C29.0691 278.983 30 279.5 27 277C26 275.1 25 273.5 24 272C21.5 270 19.5 269.5 17 268C16.8 266.3 17.5 265.3 19 265Z"
            fill="#17181A" />
        <path id="Vector_74" fill-rule="evenodd" clip-rule="evenodd"
            d="M326 365C327.8 366.4 329.1 368.2 330 370.5C326.7 372.7 324.4 371.9 323 368C323.8 366.8 324.8 365.8 326 365Z"
            fill="#C2C5CA" />
        <path id="Vector_75" fill-rule="evenodd" clip-rule="evenodd"
            d="M210 375C218.2 381.3 226.8 386.8 236 391.5C249 396.3 260.6 403.1 271 412C271.1 413 271 414 270.5 415C268.7 412.7 266.5 412.3 264 414C252.6 408 240.9 402.2 229 397C228.2 396.3 227.5 395.4 227 394.5C214.7 388.7 203 381.9 192 374C194.5 374.4 196.7 373.7 198.5 372V376C201.1 378.3 203.6 378.3 206 376C208.4 379 209.7 378.6 210 375Z"
            fill="#1F2124" />
        <path id="Vector_76" fill-rule="evenodd" clip-rule="evenodd"
            d="M346 394C340.88 398.723 335.165 402.757 329 406C327.6 404.1 328.1 402.8 330.5 402C331.6 403.2 332.8 403.2 334 402C335.5 401 335.8 399.7 335 398.5L340 397.5C338.8 396.6 338.8 395.8 340 395C340.6 395.2 341 395.5 341.5 396C342.5 394.4 344 393.7 346 394Z"
            fill="#34373B" />
        <path id="Vector_77" fill-rule="evenodd" clip-rule="evenodd"
            d="M329 406C328.081 407.458 326.657 408.527 325 409V406H329Z" fill="#54575D" />
        <path id="Vector_78" fill-rule="evenodd" clip-rule="evenodd"
            d="M287 394C287.6 396 288.6 398 290 400C287.4 403.5 287.4 407 290 410.5L288 411.5C293 412.5 292.7 413 287 413C286.5 418 286 417 287 421.5C287 422 286.5 421.5 286 421C282.2 421.3 278.6 421 275 420C275 419 275.2 418.2 276 417.5C272.9 416.5 272.5 415.3 275 414C278.2 416.4 281.9 417.4 286 417C286.813 409.362 287.147 401.68 287 394Z"
            fill="#292B2F" />
        <path id="Vector_79" fill-rule="evenodd" clip-rule="evenodd"
            d="M271 412C272.7 412.2 274 412.8 275 414C272.5 415.3 272.9 416.5 276 417.5C275.2 418.2 275 419 275 420C273.8 419.5 272.6 418.8 271.5 418C270 416.909 270.5 417.5 269 416C266.8 416.4 265.1 415.7 264 414C266.5 412.3 268.7 412.7 270.5 415C271 414 271.1 413 271 412Z"
            fill="#4E5156" />
        <path id="Vector_80" fill-rule="evenodd" clip-rule="evenodd"
            d="M309 418C308.5 418.5 308.5 418.5 307.5 419C303.17 420.177 299.336 421.844 295 423C294.5 420 296 419 298.5 421C299.771 419.536 301.44 418.473 303.304 417.94C305.169 417.408 307.147 417.428 309 418Z"
            fill="#43454B" />
    </g>
</svg>