<svg xmlns="http://www.w3.org/2000/svg" version="1.1" width="168px" height="265px"
    style="shape-rendering:geometricPrecision; text-rendering:geometricPrecision; image-rendering:optimizeQuality; fill-rule:evenodd; clip-rule:evenodd"
    xmlns:xlink="http://www.w3.org/1999/xlink">
    <g>
        <path style="opacity:1" fill="#858383"
            d="M 98.5,-0.5 C 103.833,-0.5 109.167,-0.5 114.5,-0.5C 131.42,2.56242 145.253,10.8958 156,24.5C 160.172,33.1636 164.006,41.8303 167.5,50.5C 167.5,54.5 167.5,58.5 167.5,62.5C 163.38,75.7375 156.88,87.7375 148,98.5C 135.251,111.584 122.251,124.251 109,136.5C 106.497,141.061 104.997,145.894 104.5,151C 105.863,158.815 107.363,166.649 109,174.5C 112.312,186.573 107.812,192.906 95.5,193.5C 69.8591,188.349 58.0257,172.683 60,146.5C 61.067,137.966 63.7337,129.966 68,122.5C 80.2765,103.891 92.9432,85.558 106,67.5C 112.271,56.9616 117.437,45.9616 121.5,34.5C 121.264,30.4293 119.264,27.596 115.5,26C 100.162,22.3317 86.1619,25.3317 73.5,35C 69,38.8333 64.8333,43 61,47.5C 59.1282,49.4382 58.2948,51.7715 58.5,54.5C 59.4392,59.9682 60.1059,65.4682 60.5,71C 59.0925,84.5175 57.5925,98.0175 56,111.5C 51.2678,118.283 44.7678,121.449 36.5,121C 14.5918,112.944 2.25846,97.4437 -0.5,74.5C -0.5,72.1667 -0.5,69.8333 -0.5,67.5C 3.81351,50.3254 13.4802,36.8254 28.5,27C 49.7668,12.4142 73.1001,3.24753 98.5,-0.5 Z" />
    </g>
    <g>
        <path style="opacity:1" fill="#e8e8e8"
            d="M 120.5,9.5 C 120.735,8.90326 121.235,8.56993 122,8.5C 126.894,9.79799 131.727,11.298 136.5,13C 139.362,13.9305 141.695,15.5971 143.5,18C 142.5,18.6667 141.5,18.6667 140.5,18C 134.159,14.3274 127.492,11.4941 120.5,9.5 Z" />
    </g>
    <g>
        <path style="opacity:1" fill="#bfbebe"
            d="M 121.5,18.5 C 118.615,18.1936 115.948,18.5269 113.5,19.5C 112.957,19.44 112.624,19.1067 112.5,18.5C 115.645,17.1968 118.645,17.1968 121.5,18.5 Z" />
    </g>
    <g>
        <path style="opacity:1" fill="#f9f8f8"
            d="M 113.5,19.5 C 115.948,18.5269 118.615,18.1936 121.5,18.5C 126.933,20.3702 128.933,24.0369 127.5,29.5C 122.537,26.5297 117.87,23.1964 113.5,19.5 Z" />
    </g>
    <g>
        <path style="opacity:1" fill="#fafafa"
            d="M 132.5,20.5 C 132.56,19.9569 132.893,19.6236 133.5,19.5C 139.092,22.2102 144.259,25.5436 149,29.5C 150.291,37.4976 149.291,45.1642 146,52.5C 142.662,58.5125 138.828,64.1791 134.5,69.5C 134.167,69.1667 133.833,68.8333 133.5,68.5C 136.706,59.5065 139.04,50.3399 140.5,41C 141.234,32.7167 138.568,25.8833 132.5,20.5 Z" />
    </g>
    <g>
        <path style="opacity:1" fill="#ededed"
            d="M 28.5,78.5 C 29.465,84.6584 30.1316,90.9918 30.5,97.5C 29.5,97.5 28.5,97.5 27.5,97.5C 27.6527,91.155 27.986,84.8217 28.5,78.5 Z" />
    </g>
    <g>
        <path style="opacity:1" fill="#cac9c9"
            d="M 14.5,93.5 C 16.0986,94.7985 16.5986,96.4652 16,98.5C 14.9914,96.9751 14.4914,95.3084 14.5,93.5 Z" />
    </g>
    <g>
        <path style="opacity:1" fill="#eae9e9"
            d="M 31.5,106.5 C 34.0588,106.39 36.3921,107.056 38.5,108.5C 35.3499,112.281 32.3499,112.281 29.5,108.5C 30.2427,107.818 30.9094,107.151 31.5,106.5 Z" />
    </g>
    <g>
        <path style="opacity:1" fill="#cbcaca"
            d="M 94.5,152.5 C 93.8333,156.5 93.1667,160.5 92.5,164.5C 92.3339,158.824 92.5006,153.157 93,147.5C 93.6077,149.154 94.1077,150.821 94.5,152.5 Z" />
    </g>
    <g>
        <path style="opacity:1" fill="#f8f8f8"
            d="M 94.5,152.5 C 95.9401,159.473 97.2735,166.473 98.5,173.5C 97.5518,183.268 92.2185,187.101 82.5,185C 78.149,182.884 75.8157,179.718 75.5,175.5C 88.0109,183.025 93.6776,179.358 92.5,164.5C 93.1667,160.5 93.8333,156.5 94.5,152.5 Z" />
    </g>
    <g>
        <path style="opacity:1" fill="#858383"
            d="M 101.5,264.5 C 96.8333,264.5 92.1667,264.5 87.5,264.5C 73.3401,259.843 63.5067,250.51 58,236.5C 56.5655,216.766 65.7321,206.099 85.5,204.5C 106.805,206.472 118.472,218.138 120.5,239.5C 119.799,252.191 113.466,260.525 101.5,264.5 Z" />
    </g>
    <g>
        <path style="opacity:1" fill="#b3b1b1"
            d="M 98.5,214.5 C 100.97,214.027 103.304,214.861 105.5,217C 103.037,216.78 100.704,215.946 98.5,214.5 Z" />
    </g>
    <g>
        <path style="opacity:1" fill="#f0f0f0"
            d="M 97.5,222.5 C 105.983,221.501 108.817,225.168 106,233.5C 104.345,231.253 104.012,228.92 105,226.5C 102.658,224.885 100.158,223.551 97.5,222.5 Z" />
    </g>
    <g>
        <path style="opacity:1" fill="#f7f7f7"
            d="M 78.5,240.5 C 82.9507,243.111 87.2841,245.944 91.5,249C 86.0556,252.911 81.5556,252.077 78,246.5C 77.3224,244.402 77.4891,242.402 78.5,240.5 Z" />
    </g>
</svg>