<svg xmlns="http://www.w3.org/2000/svg" width="168" height="265" style="shape-rendering:geometricPrecision;text-rendering:geometricPrecision;image-rendering:optimizeQuality;fill-rule:evenodd;clip-rule:evenodd"><path fill="#858383" d="M98.5-.5h16c16.92 3.062 30.753 11.396 41.5 25a432.877 432.877 0 0 1 11.5 26v12c-4.12 13.237-10.62 25.237-19.5 36a1042.296 1042.296 0 0 1-39 38c-2.503 4.561-4.003 9.394-4.5 14.5a727.472 727.472 0 0 0 4.5 23.5c3.312 12.073-1.188 18.406-13.5 19-25.64-5.151-37.474-20.817-35.5-47a63.883 63.883 0 0 1 8-24 1559.742 1559.742 0 0 1 38-55 185.76 185.76 0 0 0 15.5-33c-.236-4.07-2.236-6.904-6-8.5-15.338-3.668-29.338-.668-42 9-4.5 3.833-8.667 8-12.5 12.5-1.872 1.938-2.705 4.272-2.5 7a167.896 167.896 0 0 1 2 16.5 2948.362 2948.362 0 0 1-4.5 40.5c-4.732 6.783-11.232 9.949-19.5 9.5-21.908-8.056-34.242-23.556-37-46.5v-7c4.314-17.175 13.98-30.675 29-40.5C49.767 12.414 73.1 3.248 98.5-.5Z" style="opacity:1"/><path fill="#e8e8e8" d="M120.5 9.5c.235-.597.735-.93 1.5-1a182.27 182.27 0 0 1 14.5 4.5c2.862.93 5.195 2.597 7 5-1 .667-2 .667-3 0a87.82 87.82 0 0 0-20-8.5Z" style="opacity:1"/><path fill="#bfbebe" d="M121.5 18.5c-2.885-.306-5.552.027-8 1-.543-.06-.876-.393-1-1 3.145-1.303 6.145-1.303 9 0Z" style="opacity:1"/><path fill="#f9f8f8" d="M113.5 19.5c2.448-.973 5.115-1.306 8-1 5.433 1.87 7.433 5.537 6 11a105.641 105.641 0 0 1-14-10Z" style="opacity:1"/><path fill="#fafafa" d="M132.5 20.5c.06-.543.393-.876 1-1a75.466 75.466 0 0 1 15.5 10c1.291 7.998.291 15.664-3 23a116.512 116.512 0 0 1-11.5 17l-1-1a151.34 151.34 0 0 0 7-27.5c.734-8.283-1.932-15.117-8-20.5Z" style="opacity:1"/><path fill="#ededed" d="M28.5 78.5a193.234 193.234 0 0 1 2 19h-3c.153-6.345.486-12.678 1-19Z" style="opacity:1"/><path fill="#cac9c9" d="M14.5 93.5c1.599 1.299 2.099 2.965 1.5 5-1.009-1.525-1.509-3.192-1.5-5Z" style="opacity:1"/><path fill="#eae9e9" d="M31.5 106.5c2.559-.11 4.892.556 7 2-3.15 3.781-6.15 3.781-9 0a31.12 31.12 0 0 0 2-2Z" style="opacity:1"/><path fill="#cbcaca" d="m94.5 152.5-2 12c-.166-5.676 0-11.343.5-17a42.584 42.584 0 0 1 1.5 5Z" style="opacity:1"/><path fill="#f8f8f8" d="M94.5 152.5a692.68 692.68 0 0 1 4 21c-.948 9.768-6.281 13.601-16 11.5-4.351-2.116-6.684-5.282-7-9.5 12.51 7.525 18.178 3.858 17-11l2-12Z" style="opacity:1"/><path fill="#858383" d="M101.5 264.5h-14c-14.16-4.657-23.993-13.99-29.5-28-1.434-19.734 7.732-30.401 27.5-32 21.305 1.972 32.972 13.638 35 35-.701 12.691-7.034 21.025-19 25Z" style="opacity:1"/><path fill="#b3b1b1" d="M98.5 214.5c2.47-.473 4.804.361 7 2.5-2.463-.22-4.796-1.054-7-2.5Z" style="opacity:1"/><path fill="#f0f0f0" d="M97.5 222.5c8.483-.999 11.317 2.668 8.5 11-1.655-2.247-1.988-4.58-1-7a37.381 37.381 0 0 0-7.5-4Z" style="opacity:1"/><path fill="#f7f7f7" d="M78.5 240.5a160.623 160.623 0 0 1 13 8.5c-5.444 3.911-9.944 3.077-13.5-2.5-.678-2.098-.51-4.098.5-6Z" style="opacity:1"/></svg>